<svg width="48" height="44" viewBox="0 0 48 44" fill="none" xmlns="http://www.w3.org/2000/svg">
<path d="M46.7402 43.29H1.76953C1.54167 43.29 1.33008 43.2331 1.13477 43.1191C0.939453 43.0052 0.792969 42.8506 0.695312 42.6553C0.565104 42.46 0.5 42.2565 0.5 42.0449C0.5 41.8333 0.548828 41.6299 0.646484 41.4346L23.1562 1.39551C23.2539 1.2002 23.4004 1.04557 23.5957 0.931641C23.791 0.817707 24.0026 0.760742 24.2305 0.760742C24.4583 0.760742 24.6699 0.817707 24.8652 0.931641C25.0605 1.04557 25.2233 1.2002 25.3535 1.39551L47.8633 41.4346C47.9609 41.6299 48.0098 41.8333 48.0098 42.0449C48.0098 42.2565 47.9447 42.46 47.8145 42.6553C47.7168 42.8506 47.5703 43.0052 47.375 43.1191C47.1797 43.2331 46.9681 43.29 46.7402 43.29ZM3.86914 40.7998H44.5918L24.2305 4.56934L3.86914 40.7998ZM24.2305 30.79C23.9049 30.79 23.6201 30.668 23.376 30.4238C23.1318 30.1797 23.0098 29.8786 23.0098 29.5205V17.0205C23.0098 16.695 23.1318 16.4102 23.376 16.166C23.6201 15.9219 23.9049 15.7998 24.2305 15.7998C24.5885 15.7998 24.8896 15.9219 25.1338 16.166C25.3779 16.4102 25.5 16.695 25.5 17.0205V29.5205C25.5 29.8786 25.3779 30.1797 25.1338 30.4238C24.8896 30.668 24.5885 30.79 24.2305 30.79ZM24.2305 38.2607C23.9049 38.2607 23.6201 38.1387 23.376 37.8945C23.1318 37.6504 23.0098 37.3656 23.0098 37.04V34.5498C23.0098 34.1917 23.1318 33.8906 23.376 33.6465C23.6201 33.4023 23.9049 33.2803 24.2305 33.2803C24.5885 33.2803 24.8896 33.4023 25.1338 33.6465C25.3779 33.8906 25.5 34.1917 25.5 34.5498V37.04C25.5 37.3656 25.3779 37.6504 25.1338 37.8945C24.8896 38.1387 24.5885 38.2607 24.2305 38.2607Z" fill="#977018"/>
</svg>
