<svg width="51" height="51" viewBox="0 0 51 51" fill="none" xmlns="http://www.w3.org/2000/svg">
<g clip-path="url(#clip0_12_111)">
<path d="M49.2061 6.15112C48.7829 5.66284 48.2946 5.28849 47.7412 5.02808C47.1878 4.76766 46.6019 4.63745 45.9834 4.63745H39.4893V2.53784C39.4893 2.01701 39.3184 1.59383 38.9766 1.26831C38.6348 0.94279 38.2197 0.780029 37.7315 0.780029H27.2334C27.0381 0.780029 26.8591 0.86141 26.6963 1.02417C26.5335 1.18693 26.4522 1.34969 26.4522 1.51245C26.4522 1.70776 26.5335 1.8868 26.6963 2.04956C26.8591 2.21232 27.0381 2.2937 27.2334 2.2937H37.7315C37.7966 2.2937 37.8535 2.31812 37.9024 2.36694C37.9512 2.41577 37.9756 2.47274 37.9756 2.53784C37.9756 3.35164 37.9756 4.14103 37.9756 4.90601C37.9756 5.67098 37.9756 6.21623 37.9756 6.54175H12.9756C12.9756 5.79305 12.9756 5.10946 12.9756 4.49097C12.9756 3.87248 12.9756 3.22144 12.9756 2.53784C12.9756 2.47274 13 2.41577 13.0488 2.36694C13.0977 2.31812 13.1546 2.2937 13.2197 2.2937H23.7178C23.9131 2.2937 24.084 2.21232 24.2305 2.04956C24.377 1.8868 24.4502 1.70776 24.4502 1.51245C24.4502 1.34969 24.3932 1.18693 24.2793 1.02417C24.1654 0.86141 24.027 0.780029 23.8643 0.780029C18.2328 0.780029 15.0427 0.780029 14.294 0.780029C13.5453 0.780029 13.1384 0.780029 13.0732 0.780029C12.6501 0.845133 12.3001 1.04045 12.0234 1.36597C11.7468 1.69149 11.6084 2.08211 11.6084 2.53784V4.63745H5.11427C4.46322 4.63745 3.85287 4.76766 3.28321 5.02808C2.71355 5.28849 2.23341 5.66284 1.84278 6.15112C1.4196 6.60685 1.11036 7.12769 0.915047 7.71362C0.719734 8.29956 0.65463 8.90177 0.719734 9.52026C0.980151 11.5385 1.50912 13.4428 2.30665 15.2332C3.10417 17.0235 4.15398 18.7 5.45606 20.2625C6.72559 21.7598 8.17416 23.0375 9.80177 24.0955C11.4294 25.1534 13.1546 25.9591 14.9775 26.5125C15.7262 27.6518 16.6621 28.783 17.7852 29.906C18.9082 31.0291 20.0882 31.8998 21.3252 32.5183V41.5515L18.3467 46.0437H16.5889C15.9704 46.0437 15.417 46.2634 14.9287 46.7029C14.4404 47.1423 14.1963 47.7039 14.1963 48.3875C14.1963 49.0385 14.4242 49.6 14.8799 50.072C15.3356 50.544 15.9053 50.78 16.5889 50.78H34.46C35.0785 50.78 35.6318 50.5522 36.1201 50.0964C36.6084 49.6407 36.8525 49.071 36.8525 48.3875C36.8525 47.7039 36.6084 47.1586 36.1201 46.7517C35.6318 46.3448 35.0785 46.1414 34.46 46.1414H32.7022L29.7236 41.6492V40.0378C29.7236 39.8425 29.6423 39.6635 29.4795 39.5007C29.3167 39.338 29.154 39.2566 28.9912 39.2566C28.7959 39.2566 28.6169 39.3217 28.4541 39.4519C28.2913 39.5821 28.21 39.7774 28.21 40.0378V41.8933C28.21 42.0235 28.3076 42.2351 28.5029 42.5281C28.6982 42.821 29.5283 44.0255 30.9932 46.1414H20.1045C21.4717 44.0255 22.2692 42.821 22.4971 42.5281C22.7249 42.2351 22.8389 42.0235 22.8389 41.8933V33.1531C23.7178 33.4135 24.6211 33.5437 25.5488 33.5437C26.4766 33.5437 27.4124 33.4135 28.3565 33.1531V36.6687C28.3565 36.8315 28.4297 36.9942 28.5762 37.157C28.7227 37.3197 28.8936 37.4011 29.0889 37.4011C29.2842 37.4011 29.4551 37.3197 29.6016 37.157C29.7481 36.9942 29.8213 36.8315 29.8213 36.6687V32.6648C31.0257 32.1114 32.2057 31.2488 33.3613 30.0769C34.5169 28.905 35.4691 27.7657 36.2178 26.6589C38.0407 26.1056 39.766 25.2836 41.3936 24.1931C43.0212 23.1026 44.4697 21.8412 45.7393 20.4089C47.0413 18.8464 48.0912 17.1619 48.8887 15.3552C49.6862 13.5486 50.2152 11.6524 50.4756 9.66675C50.4756 8.98315 50.3779 8.34025 50.1826 7.73804C49.9873 7.13582 49.6618 6.60685 49.2061 6.15112ZM34.46 47.5085C34.7204 47.5085 34.932 47.5981 35.0947 47.7771C35.2575 47.9561 35.3389 48.1596 35.3389 48.3875C35.3389 48.6479 35.2575 48.8595 35.0947 49.0222C34.932 49.185 34.7204 49.2664 34.46 49.2664H16.5889C16.3285 49.2664 16.1169 49.185 15.9541 49.0222C15.7913 48.8595 15.71 48.6479 15.71 48.3875C15.71 48.1596 15.7913 47.9561 15.9541 47.7771C16.1169 47.5981 16.3285 47.5085 16.5889 47.5085C16.6865 47.5085 17.6468 47.5085 19.4697 47.5085C21.3252 47.5085 23.3434 47.5085 25.5244 47.5085C27.7054 47.5085 29.7236 47.5085 31.5791 47.5085C33.402 47.5085 34.3623 47.5085 34.46 47.5085ZM39.4893 9.42261H45.4463C45.1533 11.5385 44.429 13.5242 43.2734 15.3796C42.1178 17.2351 40.6449 18.7813 38.8545 20.0183C39.2777 18.5209 39.4893 17.1293 39.4893 15.8435C39.4893 14.5577 39.4893 12.4174 39.4893 9.42261ZM11.6084 9.42261V15.1355C11.6084 15.9493 11.6654 16.7631 11.7793 17.5769C11.8932 18.3907 12.0479 19.2045 12.2432 20.0183C10.4854 18.7813 9.01238 17.2351 7.82423 15.3796C6.63608 13.5242 5.89552 11.5385 5.60255 9.42261H11.6084ZM2.23341 9.42261C2.1032 8.5437 2.33106 7.77873 2.917 7.12769C3.50294 6.47664 4.23536 6.15112 5.11427 6.15112H11.6084C11.6084 6.6394 11.6084 6.98934 11.6084 7.20093C11.6084 7.41252 11.6084 7.64852 11.6084 7.90894H5.11427C4.78874 7.90894 4.52019 8.03914 4.3086 8.29956C4.09701 8.55998 3.99122 8.85295 3.99122 9.17847C4.12143 10.5457 4.43067 11.864 4.91895 13.1335C5.40723 14.4031 6.03386 15.5912 6.79884 16.698C7.56381 17.8048 8.45085 18.8139 9.45997 19.7253C10.4365 20.6694 11.527 21.4832 12.7315 22.1667C12.8617 22.5899 13.0163 23.0131 13.1953 23.4363C13.3744 23.8595 13.5941 24.2664 13.8545 24.657C12.292 24.0059 10.8434 23.1596 9.5088 22.1179C8.17416 21.1088 7.01042 19.9451 6.01759 18.6267C5.02475 17.3083 4.18653 15.8679 3.50294 14.3054C2.8519 12.7429 2.42872 11.1153 2.23341 9.42261ZM30.7002 30.1746C29.1377 31.4115 27.3718 32.0138 25.4024 31.9812C23.433 31.9486 21.6996 31.3464 20.2022 30.1746C19.0954 29.2957 18.0863 28.3028 17.1748 27.196C16.2959 26.0893 15.5391 24.893 14.9043 23.6072C14.2695 22.3214 13.7894 20.9623 13.4639 19.53C13.1384 18.0977 12.9756 16.6329 12.9756 15.1355V8.00659H37.9756C37.9756 8.1368 37.9756 9.30054 37.9756 11.4978C37.9756 13.6951 37.9756 14.9076 37.9756 15.1355C38.0081 16.5678 37.8617 17.9675 37.5361 19.3347C37.2432 20.7345 36.7874 22.0772 36.169 23.363C35.5505 24.6488 34.7855 25.8614 33.874 27.0007C32.9626 28.1726 31.9046 29.2306 30.7002 30.1746ZM48.8643 9.42261C48.6364 11.1153 48.1969 12.7429 47.5459 14.3054C46.8949 15.8679 46.0648 17.3083 45.0557 18.6267C44.0466 19.9451 42.8747 21.1088 41.54 22.1179C40.238 23.1596 38.8057 24.0059 37.2432 24.657C37.4059 24.2338 37.585 23.8025 37.7803 23.363C37.9756 22.9236 38.1709 22.5248 38.3662 22.1667C39.5381 21.5157 40.6286 20.7182 41.6377 19.7742C42.6468 18.8627 43.5257 17.8536 44.2744 16.7468C45.0231 15.6401 45.6416 14.4519 46.1299 13.1824C46.6182 11.9128 46.9437 10.6108 47.1065 9.27612C47.1065 9.08081 47.0902 8.91805 47.0576 8.78784C47.0251 8.65763 46.96 8.52743 46.8623 8.39722C46.7321 8.26701 46.5938 8.16935 46.4473 8.10425C46.3008 8.03914 46.1462 8.00659 45.9834 8.00659H39.4893C39.4893 7.45321 39.4893 7.1521 39.4893 7.10327C39.4893 7.05444 39.4893 6.78589 39.4893 6.29761H45.8369C46.2927 6.29761 46.6996 6.38713 47.0576 6.56616C47.4157 6.7452 47.7249 6.9812 47.9854 7.27417C48.3434 7.53459 48.5957 7.84383 48.7422 8.2019C48.8887 8.55998 48.9294 8.96688 48.8643 9.42261ZM30.7002 15.9167L27.5752 15.4285L26.208 12.6453C26.1429 12.5151 26.0371 12.4011 25.8906 12.3035C25.7441 12.2058 25.6058 12.157 25.4756 12.157C25.2803 12.157 25.1175 12.2058 24.9873 12.3035C24.8571 12.4011 24.7757 12.5151 24.7432 12.6453L23.3272 15.4285L20.2022 15.9167C20.0394 15.9167 19.8929 15.9737 19.7627 16.0876C19.6325 16.2016 19.5348 16.3562 19.4697 16.5515C19.4046 16.7143 19.3965 16.8689 19.4453 17.0154C19.4941 17.1619 19.5837 17.2839 19.7139 17.3816L21.96 19.53L21.4717 22.655C21.4717 22.8503 21.5042 23.0131 21.5693 23.1433C21.6344 23.2735 21.7321 23.4037 21.8623 23.5339C21.96 23.6641 22.0983 23.7292 22.2774 23.7292C22.4564 23.7292 22.611 23.6967 22.7412 23.6316L25.4756 22.1667C26.973 22.9806 27.8356 23.4281 28.0635 23.5095C28.2913 23.5909 28.4704 23.6316 28.6006 23.6316C28.861 23.6316 29.0889 23.5339 29.2842 23.3386C29.4795 23.1433 29.5446 22.9154 29.4795 22.655L28.9912 19.53L31.2373 17.3816C31.335 17.2839 31.4163 17.1456 31.4815 16.9666C31.5466 16.7875 31.5466 16.6492 31.4815 16.5515C31.4163 16.4213 31.3187 16.2992 31.1885 16.1853C31.0583 16.0714 30.8955 15.9819 30.7002 15.9167ZM27.8682 18.7976C27.738 18.8953 27.6566 19.0092 27.624 19.1394C27.5915 19.2696 27.5752 19.3998 27.5752 19.53L27.9658 21.7761L25.9639 20.7996C25.8988 20.7345 25.8337 20.6938 25.7686 20.6775C25.7035 20.6612 25.6384 20.6531 25.5732 20.6531C25.5407 20.6531 25.4919 20.6612 25.4268 20.6775C25.3617 20.6938 25.2966 20.7345 25.2315 20.7996L23.2295 21.7761L23.5713 19.53C23.5713 19.3998 23.5632 19.2615 23.5469 19.115C23.5306 18.9685 23.4574 18.8627 23.3272 18.7976L21.7158 17.1375L23.9619 16.7957C24.0921 16.7957 24.2142 16.7387 24.3281 16.6248C24.4421 16.5108 24.5316 16.3888 24.5967 16.2585L25.5732 14.2566L26.5986 16.2585C26.6637 16.3888 26.7533 16.5108 26.8672 16.6248C26.9811 16.7387 27.1032 16.7957 27.2334 16.7957L29.4795 17.1375L27.8682 18.7976Z" fill="#977018"/>
</g>
<defs>
<clipPath id="clip0_12_111">
<rect width="49.61" height="50" fill="white" transform="matrix(1 0 0 -1 0.695007 50.78)"/>
</clipPath>
</defs>
</svg>
