<svg width="45" height="51" viewBox="0 0 45 51" fill="none" xmlns="http://www.w3.org/2000/svg">
<g clip-path="url(#clip0_1_92)">
<path d="M44.089 25.2917C43.7635 23.892 43.3403 22.5574 42.8195 21.2878C42.2661 20.0183 41.5988 18.822 40.8175 17.699C40.0363 16.5759 39.1574 15.5261 38.1808 14.5496C37.2042 13.573 36.13 12.6778 34.9582 11.864C33.298 10.7572 31.532 9.91903 29.6603 9.34937C27.7886 8.77971 25.8598 8.46232 23.8742 8.39722V2.14722C23.8742 2.14722 23.8742 2.1228 23.8742 2.07397C23.8742 2.02515 23.8742 2.00073 23.8742 2.00073H30.0265C30.2218 2.00073 30.3764 1.94377 30.4904 1.82983C30.6043 1.7159 30.6613 1.57756 30.6613 1.41479C30.6613 1.21948 30.6043 1.06486 30.4904 0.950928C30.3764 0.836994 30.2218 0.780029 30.0265 0.780029H16.257C16.0617 0.780029 15.907 0.836994 15.7931 0.950928C15.6792 1.06486 15.6222 1.21948 15.6222 1.41479C15.6222 1.57756 15.6792 1.7159 15.7931 1.82983C15.907 1.94377 16.0617 2.00073 16.257 2.00073H22.6535C22.6535 2.00073 22.6535 2.02515 22.6535 2.07397C22.6535 2.1228 22.6535 2.14722 22.6535 2.14722V8.5437C22.035 8.5437 21.4409 8.57625 20.8712 8.64136C20.3016 8.70646 19.7075 8.78784 19.089 8.8855C18.8937 8.9506 18.7635 9.04826 18.6984 9.17847C18.6333 9.30867 18.6007 9.47144 18.6007 9.66675C18.6658 9.82951 18.7554 9.95158 18.8693 10.033C18.9832 10.1143 19.1378 10.155 19.3331 10.155C19.8865 10.0248 20.4399 9.92717 20.9933 9.86206C21.5467 9.79696 22.1001 9.7644 22.6535 9.7644V12.1082C22.6535 12.3035 22.7104 12.4581 22.8244 12.572C22.9383 12.686 23.0929 12.7429 23.2882 12.7429C23.451 12.7429 23.5893 12.686 23.7033 12.572C23.8172 12.4581 23.8742 12.3035 23.8742 12.1082V9.7644C25.7296 9.82951 27.5363 10.1225 29.2941 10.6433C31.0519 11.1641 32.6958 11.9454 34.2257 12.9871C35.3325 13.7032 36.3579 14.5333 37.3019 15.4773C38.2134 16.3888 39.0353 17.3735 39.7677 18.4314C40.5001 19.4893 41.1268 20.6205 41.6476 21.825C42.1684 22.9968 42.5753 24.2338 42.8683 25.5359C42.966 26.0893 43.0473 26.6671 43.1124 27.2693C43.1776 27.8715 43.2101 28.4493 43.2101 29.0027H40.6222C40.4595 29.0027 40.3211 29.0597 40.2072 29.1736C40.0932 29.2875 40.0363 29.4259 40.0363 29.5886C40.0363 29.7839 40.0932 29.9386 40.2072 30.0525C40.3211 30.1664 40.4595 30.2234 40.6222 30.2234H43.2101C43.145 32.0138 42.8439 33.7797 42.3068 35.5212C41.7697 37.2628 41.0128 38.8985 40.0363 40.4285C39.2876 41.5352 38.4575 42.5606 37.546 43.5046C36.6346 44.4161 35.6417 45.238 34.5675 45.9705C33.4933 46.7029 32.3703 47.3295 31.1984 47.8503C29.994 48.3712 28.7407 48.7781 27.4386 49.071C26.8201 49.1687 26.2261 49.2501 25.6564 49.3152C25.0867 49.3803 24.4927 49.4128 23.8742 49.4128V47.0691C23.8742 46.9063 23.8172 46.768 23.7033 46.6541C23.5893 46.5401 23.451 46.4832 23.2882 46.4832C23.0929 46.4832 22.9383 46.5401 22.8244 46.6541C22.7104 46.768 22.6535 46.9063 22.6535 47.0691V49.4128C20.4399 49.3477 18.3078 48.9246 16.257 48.1433C14.2062 47.3295 12.3507 46.2309 10.6906 44.8474C9.03041 43.4639 7.6144 41.8282 6.44252 39.9402C5.27065 38.0196 4.44057 35.92 3.95229 33.6414C3.82208 33.088 3.72443 32.5183 3.65932 31.9324C3.59422 31.3464 3.56167 30.7768 3.56167 30.2234H6.0519C6.21466 30.2234 6.35301 30.1664 6.46694 30.0525C6.58087 29.9386 6.63784 29.7839 6.63784 29.5886C6.63784 29.4259 6.58087 29.2875 6.46694 29.1736C6.35301 29.0597 6.21466 29.0027 6.0519 29.0027H3.56167C3.62677 27.5704 3.82208 26.1788 4.1476 24.8279C4.47312 23.477 4.92885 22.1505 5.51479 20.8484L6.78432 24.071C6.84942 24.1687 6.93894 24.2501 7.05288 24.3152C7.16681 24.3803 7.2726 24.4128 7.37026 24.4128C7.43536 24.4128 7.47605 24.4128 7.49233 24.4128C7.5086 24.4128 7.54929 24.4128 7.6144 24.4128C7.80971 24.3477 7.93992 24.2338 8.00502 24.071C8.07013 23.9083 8.07013 23.7455 8.00502 23.5828L5.90542 18.5046L0.729634 20.116C0.534321 20.1811 0.412251 20.2869 0.363423 20.4333C0.314595 20.5798 0.322733 20.7182 0.387837 20.8484C0.420389 21.0437 0.518045 21.1739 0.680805 21.239C0.843566 21.3041 0.99005 21.3041 1.12026 21.239L4.53823 20.116C3.43146 22.2644 2.72345 24.5268 2.4142 26.9031C2.10496 29.2794 2.19448 31.6069 2.68276 33.8855C3.23614 36.392 4.1476 38.6869 5.41713 40.7703C6.71922 42.821 8.28985 44.587 10.129 46.0681C11.9682 47.5492 14.0272 48.713 16.3058 49.5593C18.5845 50.3731 20.9445 50.78 23.3859 50.78C24.1346 50.78 24.8589 50.7475 25.5587 50.6824C26.2586 50.6173 26.9666 50.4871 27.6828 50.2917C29.0825 49.9988 30.4171 49.5919 31.6867 49.071C32.9562 48.5177 34.1606 47.8503 35.2999 47.0691C36.4393 46.2878 37.4972 45.4089 38.4738 44.4324C39.4503 43.4233 40.3292 42.3328 41.1105 41.1609C41.8917 39.989 42.5428 38.7683 43.0636 37.4988C43.5519 36.2292 43.9181 34.919 44.1623 33.5681C44.4064 32.2172 44.5285 30.8419 44.5285 29.4421C44.4959 28.0424 44.3494 26.6589 44.089 25.2917ZM15.5246 37.3523C15.5897 37.3523 15.6466 37.3442 15.6955 37.3279C15.7443 37.3116 15.8012 37.2872 15.8664 37.2546L21.6769 31.9324C21.9048 32.1277 22.1489 32.2579 22.4093 32.323C22.6697 32.3881 22.9627 32.4207 23.2882 32.4207C24.0695 32.4207 24.7531 32.1277 25.339 31.5417C25.9249 30.9558 26.2179 30.2722 26.2179 29.491C26.2179 28.6772 25.9249 27.9773 25.339 27.3914C24.7531 26.8054 24.0695 26.5125 23.2882 26.5125C22.4744 26.5125 21.7746 26.8054 21.1886 27.3914C20.6027 27.9773 20.3097 28.6772 20.3097 29.491C20.3097 29.7839 20.3504 30.0606 20.4318 30.321C20.5132 30.5815 20.6352 30.8256 20.798 31.0535L15.0363 36.2292C14.9061 36.3595 14.841 36.5059 14.841 36.6687C14.841 36.8315 14.9061 36.9779 15.0363 37.1082C15.1014 37.1733 15.1828 37.2302 15.2804 37.2791C15.3781 37.3279 15.4595 37.3523 15.5246 37.3523ZM23.3859 27.7332C23.8742 27.7332 24.2811 27.9041 24.6066 28.2458C24.9321 28.5876 25.0949 29.0027 25.0949 29.491C25.0949 29.9792 24.9321 30.3861 24.6066 30.7117C24.2811 31.0372 23.8742 31.2 23.3859 31.2C22.8976 31.2 22.4907 31.0372 22.1652 30.7117C21.8397 30.3861 21.6769 29.9792 21.6769 29.491C21.6769 29.0027 21.8397 28.5876 22.1652 28.2458C22.4907 27.9041 22.8976 27.7332 23.3859 27.7332Z" fill="#977018"/>
</g>
<defs>
<clipPath id="clip0_1_92">
<rect width="44.34" height="50" fill="white" transform="matrix(1 0 0 -1 0.330002 50.78)"/>
</clipPath>
</defs>
</svg>
