<svg width="59" height="51" viewBox="0 0 59 51" fill="none" xmlns="http://www.w3.org/2000/svg">
<path d="M7.16438 31.7859C7.06673 31.6882 6.94466 31.615 6.79817 31.5662C6.65169 31.5173 6.51334 31.4929 6.38313 31.4929C6.22037 31.4929 6.07389 31.5173 5.94368 31.5662C5.81347 31.615 5.69954 31.6882 5.60188 31.7859C5.50423 31.8835 5.43098 32.0056 5.38216 32.1521C5.33333 32.2986 5.30891 32.4369 5.30891 32.5671C5.30891 32.7299 5.33333 32.8764 5.38216 33.0066C5.43098 33.1368 5.50423 33.2507 5.60188 33.3484C5.69954 33.446 5.81347 33.5193 5.94368 33.5681C6.07389 33.6169 6.22037 33.6414 6.38313 33.6414C6.51334 33.6414 6.65169 33.6169 6.79817 33.5681C6.94466 33.5193 7.06673 33.446 7.16438 33.3484C7.26204 33.2507 7.33528 33.1368 7.38411 33.0066C7.43294 32.8764 7.45735 32.7299 7.45735 32.5671C7.52246 32.4369 7.53059 32.2986 7.48177 32.1521C7.43294 32.0056 7.32714 31.8835 7.16438 31.7859ZM58.5316 35.6433C58.4339 35.3503 58.2549 35.1143 57.9945 34.9353C57.734 34.7563 57.4574 34.7156 57.1644 34.8132L49.4984 36.9128L44.6644 18.8953L52.3304 16.8445C52.6234 16.7468 52.8512 16.5597 53.014 16.283C53.1768 16.0063 53.2093 15.7214 53.1116 15.4285C53.014 15.1355 52.835 14.9076 52.5745 14.7449C52.3141 14.5821 52.0374 14.5496 51.7445 14.6472L43.0042 17.0398C42.8089 17.0723 42.638 17.1537 42.4915 17.2839C42.345 17.4141 42.2555 17.5606 42.223 17.7234L40.0257 16.4539C39.4072 16.0307 38.7074 15.7947 37.9261 15.7458C37.1449 15.697 36.4124 15.7865 35.7288 16.0144L33.5316 16.7468C32.848 16.9747 32.1969 17.3083 31.5784 17.7478C30.96 18.1873 30.4391 18.7 30.0159 19.2859L26.8421 17.5281C26.2236 17.1375 25.5482 16.9096 24.8158 16.8445C24.0833 16.7794 23.359 16.877 22.6429 17.1375L16.5394 19.2859L16.7347 18.5046C16.8324 18.2117 16.7998 17.935 16.637 17.6746C16.4743 17.4141 16.2301 17.2351 15.9046 17.1375L7.26204 14.6472C6.96907 14.5496 6.69238 14.5821 6.43196 14.7449C6.17154 14.9076 5.99251 15.1355 5.89485 15.4285C5.7972 15.7214 5.82975 16.0063 5.99251 16.283C6.15527 16.5597 6.38313 16.7468 6.6761 16.8445L14.3421 18.8953L13.8538 20.7507L9.50813 36.9128L1.84212 34.8132C1.54915 34.7156 1.27246 34.7563 1.01204 34.9353C0.751622 35.1143 0.572586 35.3503 0.47493 35.6433C0.377274 35.9363 0.409826 36.213 0.572586 36.4734C0.735346 36.7338 0.963211 36.9128 1.25618 37.0105L10.0452 39.3542C10.0778 39.3542 10.1185 39.3542 10.1673 39.3542C10.2161 39.3542 10.2731 39.3542 10.3382 39.3542C10.5335 39.3542 10.7044 39.3136 10.8509 39.2322C10.9974 39.1508 11.1195 39.0287 11.2171 38.866L15.221 39.9402C15.1234 40.5912 15.2373 41.226 15.5628 41.8445C15.8883 42.463 16.3441 42.9513 16.93 43.3093C17.1579 43.4395 17.4183 43.5535 17.7113 43.6511C18.0042 43.7488 18.2972 43.7976 18.5902 43.7976C18.6878 43.7976 18.8018 43.7895 18.932 43.7732C19.0622 43.7569 19.1761 43.7325 19.2738 43.7C19.4365 44.0906 19.64 44.4486 19.8841 44.7742C20.1283 45.0997 20.4456 45.3601 20.8363 45.5554C21.0967 45.7182 21.3652 45.8403 21.6419 45.9216C21.9186 46.003 22.2197 46.0437 22.5452 46.0437C22.6429 46.0437 22.7568 46.0437 22.887 46.0437C23.0172 46.0437 23.1312 46.0111 23.2288 45.946C23.359 46.3367 23.5544 46.6947 23.8148 47.0203C24.0752 47.3458 24.4007 47.6225 24.7913 47.8503C25.0192 47.9806 25.2796 48.0945 25.5726 48.1921C25.8656 48.2898 26.1585 48.3386 26.4515 48.3386C26.5491 48.3386 26.6631 48.3305 26.7933 48.3142C26.9235 48.2979 27.0374 48.2735 27.1351 48.241C27.2978 48.6316 27.5013 48.9897 27.7454 49.3152C27.9896 49.6407 28.3232 49.9011 28.7464 50.0964C28.9743 50.2266 29.2347 50.3406 29.5277 50.4382C29.8206 50.5359 30.1136 50.5847 30.4066 50.5847C30.8949 50.5847 31.3587 50.4871 31.7982 50.2917C32.2376 50.0964 32.6201 49.8035 32.9456 49.4128L33.0433 49.5105C33.3037 49.6407 33.5723 49.7546 33.849 49.8523C34.1256 49.95 34.4105 49.9988 34.7034 49.9988C35.3219 49.9988 35.8997 49.8523 36.4368 49.5593C36.974 49.2664 37.389 48.8595 37.682 48.3386C37.8773 47.948 38.0156 47.5492 38.097 47.1423C38.1784 46.7354 38.1702 46.3367 38.0726 45.946C38.4632 45.8158 38.8213 45.6205 39.1468 45.3601C39.4723 45.0997 39.7327 44.7742 39.9281 44.3835C40.1234 44.0255 40.2617 43.643 40.3431 43.2361C40.4245 42.8292 40.4163 42.4304 40.3187 42.0398C40.4163 41.9747 40.514 41.934 40.6116 41.9177C40.7093 41.9014 40.807 41.877 40.9046 41.8445L47.8382 39.0613C47.9359 39.1589 48.0498 39.2322 48.18 39.281C48.3102 39.3298 48.4567 39.3542 48.6195 39.3542C48.652 39.3542 48.6927 39.3542 48.7415 39.3542C48.7904 39.3542 48.8473 39.3542 48.9124 39.3542L57.6527 37.0105C58.0107 36.9454 58.263 36.7745 58.4095 36.4978C58.556 36.2211 58.5967 35.9363 58.5316 35.6433ZM21.0316 38.6707L19.6644 41.0144C19.5342 41.3399 19.3144 41.5271 19.0052 41.5759C18.696 41.6248 18.3949 41.5841 18.1019 41.4539C17.8089 41.2911 17.6299 41.0551 17.5648 40.7458C17.4997 40.4366 17.5485 40.1355 17.7113 39.8425L19.0784 37.4988C19.1761 37.3035 19.3144 37.157 19.4935 37.0593C19.6725 36.9617 19.8597 36.9128 20.055 36.9128C20.1527 36.9128 20.2503 36.921 20.348 36.9373C20.4456 36.9535 20.5433 37.0105 20.6409 37.1082C20.8037 37.2058 20.9258 37.3035 21.0072 37.4011C21.0885 37.4988 21.1292 37.629 21.1292 37.7917C21.1943 37.9871 21.2106 38.158 21.1781 38.3044C21.1455 38.4509 21.0967 38.573 21.0316 38.6707ZM24.9866 40.9167L23.6195 43.3093C23.5218 43.4395 23.416 43.5535 23.3021 43.6511C23.1881 43.7488 23.0661 43.7976 22.9359 43.7976C22.7731 43.8302 22.6185 43.8302 22.472 43.7976C22.3255 43.7651 22.1709 43.7325 22.0081 43.7C21.8779 43.6023 21.764 43.4965 21.6663 43.3826C21.5687 43.2686 21.5199 43.1466 21.5199 43.0164C21.4873 42.8536 21.4873 42.699 21.5199 42.5525C21.5524 42.406 21.585 42.2677 21.6175 42.1375L23.0335 39.7449C23.1312 39.5496 23.2695 39.4031 23.4486 39.3054C23.6276 39.2078 23.8148 39.1589 24.0101 39.1589C24.1077 39.1589 24.2054 39.1671 24.3031 39.1833C24.4007 39.1996 24.4984 39.2566 24.596 39.3542C24.7262 39.4519 24.8402 39.5577 24.9378 39.6716C25.0355 39.7856 25.0843 39.9076 25.0843 40.0378C25.1169 40.2332 25.1169 40.4041 25.0843 40.5505C25.0518 40.697 25.0192 40.8191 24.9866 40.9167ZM28.9417 43.3093L27.5257 45.6531C27.3955 45.946 27.1758 46.1251 26.8665 46.1902C26.5573 46.2553 26.2562 46.2065 25.9632 46.0437C25.6702 45.9135 25.4912 45.6938 25.4261 45.3845C25.361 45.0753 25.4098 44.7742 25.5726 44.4812L26.9398 42.1375C27.0374 41.9747 27.1432 41.8526 27.2572 41.7712C27.3711 41.6899 27.4932 41.6492 27.6234 41.6492C27.6885 41.6492 27.7454 41.6492 27.7943 41.6492C27.8431 41.6492 27.8838 41.6492 27.9163 41.6492C28.014 41.6492 28.1116 41.6654 28.2093 41.698C28.307 41.7305 28.4209 41.7794 28.5511 41.8445C28.6813 41.9421 28.7952 42.0398 28.8929 42.1375C28.9906 42.2351 29.0394 42.3653 29.0394 42.5281C29.0719 42.6257 29.0719 42.7397 29.0394 42.8699C29.0068 43.0001 28.9743 43.1466 28.9417 43.3093ZM32.848 45.5554L31.4808 47.948C31.318 48.241 31.0902 48.4119 30.7972 48.4607C30.5042 48.5095 30.2113 48.4688 29.9183 48.3386C29.6253 48.1759 29.4463 47.9399 29.3812 47.6306C29.3161 47.3214 29.3649 47.0203 29.5277 46.7273L30.8949 44.3835C30.9925 44.1882 31.1309 44.0417 31.3099 43.9441C31.4889 43.8464 31.6761 43.7976 31.8714 43.7976C31.9691 43.7976 32.0667 43.8057 32.1644 43.822C32.262 43.8383 32.3597 43.8953 32.4574 43.9929C32.7178 44.1231 32.8887 44.3429 32.97 44.6521C33.0514 44.9613 33.0107 45.2625 32.848 45.5554ZM35.8265 47.2156C35.6637 47.5411 35.4277 47.7445 35.1185 47.8259C34.8092 47.9073 34.5081 47.8341 34.2152 47.6062H34.1175L34.7034 46.6296C34.8337 46.4994 34.9232 46.3367 34.972 46.1414C35.0208 45.946 35.0778 45.7507 35.1429 45.5554L35.3382 45.6531C35.6312 45.8484 35.8184 46.1007 35.8997 46.4099C35.9811 46.7192 35.9567 46.9877 35.8265 47.2156ZM42.8089 38.6707C42.8089 38.573 42.8008 38.4753 42.7845 38.3777C42.7682 38.28 42.7438 38.1824 42.7113 38.0847C43.1019 37.922 43.46 37.7185 43.7855 37.4744C44.111 37.2302 44.3714 36.9128 44.5667 36.5222C45.055 35.6759 45.1771 34.8051 44.9329 33.9099C44.6888 33.0147 44.1436 32.3393 43.2972 31.8835L38.6585 29.2468C38.3656 29.0841 38.0644 29.0434 37.7552 29.1248C37.446 29.2061 37.2262 29.377 37.096 29.6375C36.9333 29.9304 36.8926 30.2234 36.974 30.5164C37.0553 30.8093 37.2262 31.0372 37.4866 31.2L42.1253 33.8367C42.4183 33.9994 42.5892 34.2273 42.638 34.5203C42.6868 34.8132 42.6462 35.1225 42.5159 35.448C42.3532 35.741 42.1253 35.9119 41.8324 35.9607C41.5394 36.0095 41.2301 35.9688 40.9046 35.8386L36.3148 33.1531C36.0218 33.0229 35.7207 32.9985 35.4115 33.0798C35.1022 33.1612 34.8662 33.3158 34.7034 33.5437C34.5732 33.8367 34.5488 34.1378 34.6302 34.447C34.7116 34.7563 34.8825 34.976 35.1429 35.1062L39.7327 37.7917C39.8955 37.8894 40.0176 37.9871 40.099 38.0847C40.1803 38.1824 40.221 38.3126 40.221 38.4753C40.221 38.6381 40.221 38.7927 40.221 38.9392C40.221 39.0857 40.1885 39.224 40.1234 39.3542C40.0908 39.4519 40.042 39.5333 39.9769 39.5984C39.9118 39.6635 39.8304 39.7123 39.7327 39.7449C39.7002 39.7449 39.6758 39.7611 39.6595 39.7937C39.6432 39.8263 39.6025 39.8425 39.5374 39.8425C39.4072 39.9076 39.2526 39.932 39.0736 39.9158C38.8945 39.8995 38.7236 39.8425 38.5609 39.7449L33.9222 37.1082C33.6292 36.9454 33.3363 36.9047 33.0433 36.9861C32.7503 37.0675 32.5225 37.2384 32.3597 37.4988C32.2295 37.7917 32.2051 38.0929 32.2865 38.4021C32.3678 38.7113 32.5225 38.9311 32.7503 39.0613L37.389 41.7468C37.682 41.877 37.861 42.0968 37.9261 42.406C37.9912 42.7153 37.9424 43.0164 37.7796 43.3093C37.682 43.4395 37.5762 43.5535 37.4622 43.6511C37.3483 43.7488 37.2262 43.7976 37.096 43.7976C36.9333 43.8302 36.7786 43.8302 36.6322 43.7976C36.4857 43.7651 36.3473 43.7325 36.2171 43.7L33.2386 41.9421C32.848 41.7468 32.4574 41.6003 32.0667 41.5027C31.6761 41.405 31.2855 41.4213 30.8949 41.5515C30.7321 41.1283 30.5286 40.754 30.2845 40.4285C30.0404 40.1029 29.723 39.8425 29.3324 39.6472C28.9743 39.4519 28.5837 39.3136 28.1605 39.2322C27.7373 39.1508 27.3304 39.1589 26.9398 39.2566C26.8096 38.866 26.6143 38.5079 26.3538 38.1824C26.0934 37.8569 25.7679 37.5964 25.3773 37.4011C24.9866 37.2058 24.596 37.0675 24.2054 36.9861C23.8148 36.9047 23.4241 36.9128 23.0335 37.0105C22.8708 36.6199 22.6592 36.2618 22.3988 35.9363C22.1383 35.6108 21.8128 35.3341 21.4222 35.1062C20.6084 34.6179 19.7458 34.504 18.8343 34.7644C17.9228 35.0248 17.2555 35.5782 16.8324 36.4246L16.1488 37.9871L11.8031 36.8152L15.807 21.825L23.4241 19.1882C23.8148 19.0255 24.1973 18.9685 24.5716 19.0173C24.946 19.0662 25.3122 19.1882 25.6702 19.3835L28.6488 21.1414L26.3538 24.9011C25.9307 25.6498 25.7679 26.4392 25.8656 27.2693C25.9632 28.0994 26.3213 28.8236 26.9398 29.4421C27.2978 29.7677 27.7047 30.0281 28.1605 30.2234C28.6162 30.4187 29.0719 30.5164 29.5277 30.5164C30.0159 30.5164 30.4717 30.4187 30.8949 30.2234C31.318 30.0281 31.7087 29.7677 32.0667 29.4421L37.7796 23.7292C38.04 23.5339 38.1702 23.2654 38.1702 22.9236C38.1702 22.5818 38.04 22.3132 37.7796 22.1179C37.5843 21.8901 37.3239 21.7761 36.9984 21.7761C36.6728 21.7761 36.4124 21.8901 36.2171 22.1179L30.5042 27.8308C30.2113 28.1238 29.8695 28.2703 29.4788 28.2703C29.0882 28.2703 28.779 28.1238 28.5511 27.8308C28.2907 27.6029 28.1361 27.3263 28.0872 27.0007C28.0384 26.6752 28.1116 26.366 28.307 26.073L31.4808 21.0437C31.8389 20.5229 32.2539 20.0834 32.7259 19.7253C33.1979 19.3673 33.6943 19.0906 34.2152 18.8953L36.4124 18.2117C36.8031 18.0489 37.2262 17.9919 37.682 18.0408C38.1377 18.0896 38.5609 18.2117 38.9515 18.407L42.8089 20.5554L47.1058 36.9128L42.8089 38.6707ZM53.307 31.7859C53.2093 31.6882 53.0954 31.615 52.9652 31.5662C52.835 31.5173 52.6885 31.4929 52.5257 31.4929C52.3955 31.4929 52.2572 31.5173 52.1107 31.5662C51.9642 31.615 51.8421 31.6882 51.7445 31.7859C51.6468 31.8835 51.5736 32.0056 51.5247 32.1521C51.4759 32.2986 51.4515 32.4369 51.4515 32.5671C51.4515 32.7299 51.4759 32.8764 51.5247 33.0066C51.5736 33.1368 51.6468 33.2507 51.7445 33.3484C51.8421 33.446 51.9642 33.5193 52.1107 33.5681C52.2572 33.6169 52.3955 33.6414 52.5257 33.6414C52.6885 33.6414 52.835 33.6169 52.9652 33.5681C53.0954 33.5193 53.2093 33.446 53.307 33.3484C53.4046 33.2507 53.486 33.1368 53.5511 33.0066C53.6162 32.8764 53.6488 32.7299 53.6488 32.5671C53.6813 32.4369 53.6569 32.2986 53.5755 32.1521C53.4941 32.0056 53.4046 31.8835 53.307 31.7859ZM29.5277 4.83276C29.2347 4.83276 28.958 4.93856 28.6976 5.15015C28.4372 5.36174 28.307 5.64656 28.307 6.00464V11.4246C28.307 11.7175 28.4209 11.9861 28.6488 12.2302C28.8766 12.4744 29.1696 12.5964 29.5277 12.5964C29.8206 12.5964 30.0892 12.4825 30.3333 12.2546C30.5775 12.0268 30.6995 11.7501 30.6995 11.4246V6.00464C30.6344 5.64656 30.4961 5.36174 30.2845 5.15015C30.0729 4.93856 29.8206 4.83276 29.5277 4.83276ZM30.3089 1.073C30.2113 0.975342 30.0892 0.9021 29.9427 0.853271C29.7962 0.804443 29.6579 0.780029 29.5277 0.780029C29.3649 0.780029 29.2184 0.804443 29.0882 0.853271C28.958 0.9021 28.8441 0.975342 28.7464 1.073C28.6488 1.17065 28.5674 1.29272 28.5023 1.43921C28.4372 1.58569 28.4046 1.72404 28.4046 1.85425C28.4046 2.01701 28.4372 2.16349 28.5023 2.2937C28.5674 2.42391 28.6488 2.53784 28.7464 2.6355C28.8441 2.73315 28.958 2.8064 29.0882 2.85522C29.2184 2.90405 29.3649 2.92847 29.5277 2.92847C29.6579 2.92847 29.7962 2.90405 29.9427 2.85522C30.0892 2.8064 30.2113 2.73315 30.3089 2.6355C30.4066 2.53784 30.4798 2.42391 30.5286 2.2937C30.5775 2.16349 30.6019 2.01701 30.6019 1.85425C30.6019 1.75659 30.5775 1.64266 30.5286 1.51245C30.4798 1.38224 30.4066 1.23576 30.3089 1.073ZM21.5199 10.8386L19.5667 7.37183C19.4365 7.07886 19.2168 6.89982 18.9075 6.83472C18.5983 6.76961 18.2972 6.81844 18.0042 6.9812C17.7113 7.14396 17.5322 7.37183 17.4671 7.66479C17.402 7.95776 17.4508 8.25073 17.6136 8.5437L19.5667 12.0105C19.6644 12.2058 19.8027 12.3523 19.9818 12.45C20.1608 12.5476 20.348 12.5964 20.5433 12.5964C20.6409 12.5964 20.7386 12.5883 20.8363 12.572C20.9339 12.5557 21.0316 12.4988 21.1292 12.4011C21.3896 12.2058 21.5605 11.9535 21.6419 11.6443C21.7233 11.335 21.6826 11.0665 21.5199 10.8386ZM40.9046 6.9812C40.6768 6.81844 40.4163 6.76961 40.1234 6.83472C39.8304 6.89982 39.6025 7.07886 39.4398 7.37183L37.4866 10.8386C37.3239 11.1316 37.2832 11.4246 37.3646 11.7175C37.446 12.0105 37.6169 12.2384 37.8773 12.4011C37.9749 12.4337 38.0726 12.4744 38.1702 12.5232C38.2679 12.572 38.3656 12.5964 38.4632 12.5964C38.6585 12.5964 38.8457 12.5476 39.0247 12.45C39.2038 12.3523 39.3421 12.2058 39.4398 12.0105L41.4417 8.5437C41.5719 8.25073 41.5963 7.95776 41.515 7.66479C41.4336 7.37183 41.2301 7.14396 40.9046 6.9812Z" fill="#977018"/>
</svg>
