<svg width="21" height="21" viewBox="0 0 21 21" fill="none" xmlns="http://www.w3.org/2000/svg">
<path d="M3.42969 20.9805H17.5703C18.3776 20.9805 19.0677 20.694 19.6406 20.1211C20.2135 19.5482 20.5 18.8581 20.5 18.0508V3.91016C20.5 3.10287 20.2135 2.41276 19.6406 1.83984C19.0677 1.26693 18.3776 0.980469 17.5703 0.980469H3.42969C2.6224 0.980469 1.93229 1.26693 1.35938 1.83984C0.786458 2.41276 0.5 3.10287 0.5 3.91016V18.0508C0.5 18.8581 0.786458 19.5482 1.35938 20.1211C1.93229 20.694 2.6224 20.9805 3.42969 20.9805ZM1.67188 3.91016C1.67188 3.42838 1.8444 3.01497 2.18945 2.66992C2.53451 2.32487 2.94792 2.15234 3.42969 2.15234H17.5703C18.0521 2.15234 18.4655 2.32487 18.8105 2.66992C19.1556 3.01497 19.3281 3.42838 19.3281 3.91016V18.0508C19.3281 18.5326 19.1556 18.946 18.8105 19.291C18.4655 19.6361 18.0521 19.8086 17.5703 19.8086H3.42969C2.94792 19.8086 2.53451 19.6361 2.18945 19.291C1.8444 18.946 1.67188 18.5326 1.67188 18.0508V3.91016ZM10.5 16.2539C11.2292 16.2539 11.9128 16.1172 12.5508 15.8438C13.1888 15.5573 13.7454 15.1764 14.2207 14.7012C14.696 14.2259 15.0768 13.6693 15.3633 13.0312C15.6367 12.3932 15.7734 11.7096 15.7734 10.9805C15.7734 10.2513 15.6367 9.56771 15.3633 8.92969C15.0768 8.29167 14.696 7.73503 14.2207 7.25977C13.7454 6.7845 13.1888 6.40365 12.5508 6.11719C11.9128 5.84375 11.2292 5.70703 10.5 5.70703C9.77083 5.70703 9.08724 5.84375 8.44922 6.11719C7.8112 6.40365 7.25456 6.7845 6.7793 7.25977C6.30404 7.73503 5.92318 8.29167 5.63672 8.92969C5.36328 9.56771 5.22656 10.2513 5.22656 10.9805C5.22656 11.7096 5.36328 12.3932 5.63672 13.0312C5.92318 13.6693 6.30404 14.2259 6.7793 14.7012C7.25456 15.1764 7.8112 15.5573 8.44922 15.8438C9.08724 16.1172 9.77083 16.2539 10.5 16.2539ZM10.5 6.87891C11.0599 6.87891 11.5938 6.98958 12.1016 7.21094C12.5964 7.41927 13.0293 7.70898 13.4004 8.08008C13.7715 8.45117 14.0612 8.88411 14.2695 9.37891C14.4909 9.88672 14.6016 10.4206 14.6016 10.9805C14.6016 11.5404 14.4909 12.0742 14.2695 12.582C14.0612 13.0768 13.7715 13.5098 13.4004 13.8809C13.0293 14.252 12.5964 14.5417 12.1016 14.75C11.5938 14.9714 11.0599 15.082 10.5 15.082C9.9401 15.082 9.40625 14.9714 8.89844 14.75C8.40365 14.5417 7.9707 14.252 7.59961 13.8809C7.22852 13.5098 6.9388 13.0768 6.73047 12.582C6.50911 12.0742 6.39844 11.5404 6.39844 10.9805C6.39844 10.4206 6.50911 9.88672 6.73047 9.37891C6.9388 8.88411 7.22852 8.45117 7.59961 8.08008C7.9707 7.70898 8.40365 7.41927 8.89844 7.21094C9.40625 6.98958 9.9401 6.87891 10.5 6.87891ZM16.3594 6.87891C16.8411 6.87891 17.2546 6.70638 17.5996 6.36133C17.9447 6.01628 18.1172 5.60286 18.1172 5.12109C18.1172 4.63932 17.9447 4.22591 17.5996 3.88086C17.2546 3.53581 16.8411 3.36328 16.3594 3.36328C15.8776 3.36328 15.4642 3.53581 15.1191 3.88086C14.7741 4.22591 14.6016 4.63932 14.6016 5.12109C14.6016 5.60286 14.7741 6.01628 15.1191 6.36133C15.4642 6.70638 15.8776 6.87891 16.3594 6.87891ZM16.3594 4.53516C16.5156 4.53516 16.6523 4.59375 16.7695 4.71094C16.8867 4.82812 16.9453 4.96484 16.9453 5.12109C16.9453 5.27734 16.8867 5.41406 16.7695 5.53125C16.6523 5.64844 16.5156 5.70703 16.3594 5.70703C16.2031 5.70703 16.0664 5.64844 15.9492 5.53125C15.832 5.41406 15.7734 5.27734 15.7734 5.12109C15.7734 4.96484 15.832 4.82812 15.9492 4.71094C16.0664 4.59375 16.2031 4.53516 16.3594 4.53516Z" fill="#F8F8FF"/>
</svg>
