<svg width="32" height="49" viewBox="0 0 32 49" fill="none" xmlns="http://www.w3.org/2000/svg">
<path d="M19.8848 12.0613C20.8288 10.9545 21.61 9.3676 22.2285 7.30054C22.847 5.23348 23.3027 3.56519 23.5957 2.29565L23.9863 0.489014L17.1504 3.4187C16.8574 3.51636 16.5563 3.54891 16.2471 3.51636C15.9378 3.48381 15.653 3.38615 15.3926 3.22339C14.8392 2.86531 14.2451 2.66187 13.6104 2.61304C12.9756 2.56421 12.349 2.67 11.7305 2.93042L8.06836 4.54175C7.64518 4.73706 7.29525 5.01375 7.01855 5.37183C6.74186 5.7299 6.55469 6.1368 6.45703 6.59253C6.39193 7.04826 6.41634 7.49585 6.53027 7.9353C6.64421 8.37476 6.84766 8.77352 7.14062 9.13159C7.72656 9.78263 8.42643 10.4011 9.24023 10.9871C10.054 11.573 10.7865 12.0776 11.4375 12.5007C9.84245 13.3796 8.36133 14.6003 6.99414 16.1628C5.65951 17.7253 4.51204 19.4506 3.55176 21.3386C2.59147 23.2266 1.83464 25.1635 1.28125 27.1492C0.760417 29.1674 0.5 31.0391 0.5 32.7644C0.5 34.8803 0.906901 36.8985 1.7207 38.8191C2.56706 40.7071 3.69824 42.351 5.11426 43.7507C6.53027 45.1505 8.18229 46.2735 10.0703 47.1199C11.9583 47.9337 13.9766 48.3406 16.125 48.3406C18.306 48.3406 20.3405 47.9337 22.2285 47.1199C24.1165 46.2735 25.7686 45.1505 27.1846 43.7507C28.6006 42.351 29.7155 40.7071 30.5293 38.8191C31.3431 36.8985 31.75 34.8803 31.75 32.7644C31.75 30.9415 31.457 28.9884 30.8711 26.905C30.2852 24.7891 29.4714 22.7546 28.4297 20.8015C27.388 18.8484 26.1348 17.0906 24.6699 15.5281C23.2376 13.9656 21.6426 12.81 19.8848 12.0613ZM8.6543 7.91089C8.55664 7.81323 8.49154 7.69116 8.45898 7.54468C8.42643 7.39819 8.42643 7.24357 8.45898 7.08081C8.45898 6.98315 8.50781 6.86922 8.60547 6.73901C8.70312 6.60881 8.83333 6.52742 8.99609 6.49487L12.6582 4.83472C12.9186 4.70451 13.2035 4.65568 13.5127 4.68823C13.8219 4.72078 14.1068 4.80217 14.3672 4.93237C14.888 5.29045 15.4658 5.4939 16.1006 5.54272C16.7354 5.59155 17.362 5.50203 17.9805 5.27417L21.252 3.80933C20.7311 5.795 20.1533 7.52026 19.5186 8.98511C18.8838 10.45 18.3711 11.2149 17.9805 11.28V11.4265C17.6549 11.3614 17.3457 11.3207 17.0527 11.3044C16.7598 11.2882 16.4505 11.28 16.125 11.28C15.7018 11.28 15.2868 11.3044 14.8799 11.3533C14.473 11.4021 14.0579 11.4916 13.6348 11.6218C13.1139 11.2963 12.3245 10.7836 11.2666 10.0837C10.2087 9.38387 9.33789 8.65959 8.6543 7.91089ZM16.125 46.3875C14.237 46.3875 12.4629 46.0294 10.8027 45.3132C9.14258 44.5971 7.69401 43.6205 6.45703 42.3835C5.22005 41.1466 4.24349 39.7143 3.52734 38.0867C2.8112 36.4265 2.45312 34.6524 2.45312 32.7644C2.45312 30.8764 2.8112 28.7931 3.52734 26.5144C4.24349 24.2358 5.22819 22.1117 6.48145 20.1423C7.7347 18.1729 9.19141 16.5209 10.8516 15.1863C12.5117 13.8516 14.2695 13.1843 16.125 13.1843C17.9805 13.1843 19.7383 13.8516 21.3984 15.1863C23.0586 16.5209 24.5153 18.1729 25.7686 20.1423C27.0218 22.1117 28.0065 24.2358 28.7227 26.5144C29.4388 28.7931 29.7969 30.8764 29.7969 32.7644C29.7969 34.6524 29.4388 36.4265 28.7227 38.0867C28.0065 39.7143 27.0299 41.1466 25.793 42.3835C24.556 43.6205 23.1074 44.5971 21.4473 45.3132C19.7871 46.0294 18.013 46.3875 16.125 46.3875ZM20.4219 29.8835C20.0964 29.5906 19.6569 29.322 19.1035 29.0779C18.5501 28.8337 17.8991 28.6303 17.1504 28.4675H17.0527V24.7078C17.5085 24.7403 17.9805 24.8624 18.4688 25.074C18.957 25.2856 19.3965 25.5378 19.7871 25.8308L21.0078 23.9753C20.3568 23.5847 19.6976 23.2673 19.0303 23.0232C18.363 22.7791 17.6712 22.6244 16.9551 22.5593V21.5339H15.7344V22.5593C15.1159 22.6244 14.5462 22.7546 14.0254 22.95C13.5046 23.1453 13.0488 23.422 12.6582 23.78C12.235 24.1381 11.9258 24.545 11.7305 25.0007C11.5352 25.4565 11.4375 25.961 11.4375 26.5144C11.4375 27.0678 11.5189 27.5561 11.6816 27.9792C11.8444 28.4024 12.1048 28.7768 12.4629 29.1023C12.821 29.3953 13.2767 29.6638 13.8301 29.908C14.3835 30.1521 15.0182 30.3556 15.7344 30.5183V34.3757C15.181 34.2781 14.6195 34.0828 14.0498 33.7898C13.4801 33.4968 12.9186 33.1225 12.3652 32.6667L10.9492 34.3757C11.6328 34.9942 12.3734 35.4825 13.1709 35.8406C13.9684 36.1986 14.8229 36.4265 15.7344 36.5242V37.9402H17.0527V36.5242C17.7363 36.4591 18.3385 36.3289 18.8594 36.1335C19.3802 35.9382 19.8359 35.6615 20.2266 35.3035C20.6172 34.9454 20.9183 34.5385 21.1299 34.0828C21.3415 33.627 21.4473 33.1225 21.4473 32.5691C21.4473 31.9506 21.3659 31.4298 21.2031 31.0066C21.0404 30.5834 20.7799 30.2091 20.4219 29.8835ZM15.832 28.1746C15.4089 28.0769 15.0833 27.9711 14.8555 27.8572C14.6276 27.7432 14.4323 27.6049 14.2695 27.4421C14.1393 27.3445 14.0417 27.2061 13.9766 27.0271C13.9115 26.8481 13.8789 26.6609 13.8789 26.4656C13.8789 26.2052 13.9277 25.9854 14.0254 25.8064C14.123 25.6274 14.237 25.4727 14.3672 25.3425C14.5299 25.1798 14.7253 25.0496 14.9531 24.9519C15.181 24.8542 15.474 24.8054 15.832 24.8054V28.1746ZM18.4688 33.8875C18.2734 34.0177 18.0618 34.1397 17.834 34.2537C17.6061 34.3676 17.3132 34.4408 16.9551 34.4734V30.9089C17.3783 31.0391 17.7201 31.1531 17.9805 31.2507C18.2409 31.3484 18.4362 31.4786 18.5664 31.6414C18.7292 31.8041 18.8431 31.9832 18.9082 32.1785C18.9733 32.3738 19.0059 32.5691 19.0059 32.7644C19.0059 32.9597 18.9733 33.155 18.9082 33.3503C18.8431 33.5457 18.6966 33.7247 18.4688 33.8875Z" fill="#977018"/>
</svg>
