<svg width="49" height="49" viewBox="0 0 49 49" fill="none" xmlns="http://www.w3.org/2000/svg">
<path d="M22.9121 17.53C22.3913 17.1069 21.7565 16.7406 21.0078 16.4314C20.2591 16.1222 19.3639 15.8373 18.3223 15.5769H18.2246V10.4011C18.9408 10.4988 19.6162 10.6778 20.251 10.9382C20.8857 11.1987 21.4961 11.5404 22.082 11.9636L23.8398 9.47339C22.9609 8.8549 22.0495 8.36662 21.1055 8.00854C20.1615 7.65047 19.2012 7.45516 18.2246 7.42261V5.95776H16.5156V7.22729C15.6367 7.25985 14.8392 7.40633 14.123 7.66675C13.4069 7.92717 12.7721 8.31779 12.2188 8.83862C11.6654 9.35946 11.2585 9.95353 10.998 10.6208C10.7376 11.2882 10.6074 12.0125 10.6074 12.7937C10.6074 13.6075 10.7295 14.3074 10.9736 14.8933C11.2178 15.4792 11.5677 15.9838 12.0234 16.407C12.4792 16.8302 13.0814 17.1964 13.8301 17.5056C14.5788 17.8149 15.474 18.0997 16.5156 18.3601V23.7312C15.7018 23.6335 14.9043 23.3813 14.123 22.9744C13.3418 22.5675 12.5768 22.0222 11.8281 21.3386L9.875 23.7312C10.8516 24.6101 11.8932 25.3018 13 25.8064C14.1068 26.311 15.2786 26.6121 16.5156 26.7097V28.7117H18.2246V26.7097C19.1361 26.6772 19.9661 26.5307 20.7148 26.2703C21.4635 26.0098 22.1309 25.6192 22.7168 25.0984C23.2702 24.5776 23.6771 23.9835 23.9375 23.3162C24.1979 22.6488 24.3281 21.9246 24.3281 21.1433C24.3281 20.3621 24.2223 19.6703 24.0107 19.0681C23.7992 18.4659 23.4329 17.9532 22.9121 17.53ZM16.418 15.0398C15.8971 14.9096 15.474 14.7468 15.1484 14.5515C14.8229 14.3562 14.5625 14.1772 14.3672 14.0144C14.2044 13.8516 14.0824 13.6482 14.001 13.4041C13.9196 13.1599 13.8789 12.8914 13.8789 12.5984C13.8789 12.2729 13.9277 11.9799 14.0254 11.7195C14.123 11.4591 14.3021 11.2312 14.5625 11.0359C14.7578 10.8406 15.0264 10.6697 15.3682 10.5232C15.71 10.3767 16.0599 10.3035 16.418 10.3035V15.0398ZM20.2754 22.9988C20.015 23.1941 19.7057 23.3731 19.3477 23.5359C18.9896 23.6986 18.5827 23.7963 18.127 23.8289V18.8972C18.6803 19.0274 19.1361 19.1739 19.4941 19.3367C19.8522 19.4994 20.1452 19.6947 20.373 19.9226C20.5684 20.1179 20.7148 20.3458 20.8125 20.6062C20.9102 20.8666 20.959 21.1596 20.959 21.4851C20.959 21.7781 20.902 22.0548 20.7881 22.3152C20.6742 22.5756 20.5033 22.8035 20.2754 22.9988ZM47.1309 40.9675L36.2422 29.9324L33.8984 32.325L29.748 28.0769C30.9525 26.6121 31.8965 24.96 32.5801 23.1209C33.2637 21.2817 33.6055 19.3367 33.6055 17.2859C33.6055 14.9747 33.166 12.7937 32.2871 10.7429C31.4082 8.72469 30.2201 6.9506 28.7227 5.42065C27.2253 3.89071 25.4837 2.68628 23.498 1.80737C21.4798 0.928467 19.3314 0.489014 17.0527 0.489014C14.7741 0.489014 12.6257 0.928467 10.6074 1.80737C8.58919 2.68628 6.83138 3.89071 5.33398 5.42065C3.83659 6.9506 2.66471 8.72469 1.81836 10.7429C0.939453 12.7937 0.5 14.9747 0.5 17.2859C0.5 19.5971 0.939453 21.7781 1.81836 23.8289C2.66471 25.8796 3.83659 27.6619 5.33398 29.1755C6.83138 30.6892 8.58919 31.8855 10.6074 32.7644C12.6257 33.6433 14.7741 34.0828 17.0527 34.0828C19.2337 34.0828 21.2926 33.684 23.2295 32.8865C25.1663 32.0889 26.8672 30.9903 28.332 29.5906L32.4824 33.7898L30.2363 36.0359L41.0273 47.071C42.0365 48.1453 43.1758 48.5684 44.4453 48.3406C45.7148 48.1127 46.61 47.7221 47.1309 47.1687C47.6517 46.6153 48.0505 45.712 48.3271 44.4587C48.6038 43.2055 48.2051 42.0417 47.1309 40.9675ZM17.0527 32.032C15.0345 32.032 13.1465 31.6414 11.3887 30.8601C9.63086 30.0789 8.09277 29.0209 6.77441 27.6863C5.45605 26.3516 4.42253 24.8054 3.67383 23.0476C2.92513 21.2572 2.55078 19.3367 2.55078 17.2859C2.55078 15.2351 2.92513 13.3308 3.67383 11.573C4.42253 9.78263 5.45605 8.22013 6.77441 6.8855C8.09277 5.55087 9.63086 4.49292 11.3887 3.71167C13.1465 2.93042 15.0345 2.53979 17.0527 2.53979C19.071 2.53979 20.959 2.93042 22.7168 3.71167C24.4746 4.49292 26.0127 5.55087 27.3311 6.8855C28.6494 8.22013 29.6829 9.78263 30.4316 11.573C31.1803 13.3634 31.5547 15.2677 31.5547 17.2859C31.5547 19.3367 31.1803 21.2572 30.4316 23.0476C29.6504 24.838 28.6087 26.3923 27.3066 27.7107C26.0046 29.0291 24.4746 30.0789 22.7168 30.8601C20.959 31.6414 19.071 32.032 17.0527 32.032ZM45.6172 45.655C45.194 46.0457 44.6569 46.241 44.0059 46.241C43.3548 46.241 42.834 46.0457 42.4434 45.655L32.9707 36.0359L36.1445 32.7156L45.6172 42.3347C46.3333 42.9532 46.5612 43.6042 46.3008 44.2878C46.0404 44.9714 45.8125 45.4272 45.6172 45.655Z" fill="#977018"/>
</svg>
