<svg width="43" height="43" viewBox="0 0 43 43" fill="none" xmlns="http://www.w3.org/2000/svg">
<rect x="1" y="1.4502" width="41" height="41" rx="20.5" stroke="#F8F8FF"/>
<g clip-path="url(#clip0_1_334)">
<path d="M30.1133 31.2666C30.1133 31.2666 30.1133 30.7913 30.1133 29.8408C30.1133 28.8903 30.1133 27.7705 30.1133 26.4814C30.1133 25.1924 30.1133 23.8903 30.1133 22.5752C30.1133 21.2601 30.1133 20.238 30.1133 19.5088C30.1133 19.4437 30.084 19.3753 30.0254 19.3037C29.9668 19.2321 29.8984 19.1702 29.8203 19.1182L26.7539 16.8916V14.4307C26.7539 14.3005 26.7116 14.1995 26.627 14.1279C26.5423 14.0563 26.4479 14.0205 26.3438 14.0205H22.8281L21.0508 12.7119C20.9857 12.6729 20.9108 12.6533 20.8262 12.6533C20.7415 12.6533 20.6667 12.6729 20.6016 12.7119L18.8242 14.0205H15.3086C15.1914 14.0205 15.0938 14.0628 15.0156 14.1475C14.9375 14.2321 14.8984 14.3265 14.8984 14.4307V16.8525L11.793 19.1182C11.7018 19.1833 11.6302 19.2484 11.5781 19.3135C11.526 19.3786 11.5 19.4437 11.5 19.5088C11.5 20.251 11.5 21.2861 11.5 22.6143C11.5 23.9294 11.5 25.2347 11.5 26.5303C11.5 27.8258 11.5 28.9554 11.5 29.9189C11.5 30.8695 11.5 31.3447 11.5 31.3447C11.5 31.4619 11.5358 31.5563 11.6074 31.6279C11.679 31.6995 11.7669 31.7419 11.8711 31.7549C11.8711 31.7549 11.8743 31.7549 11.8809 31.7549C11.8874 31.7549 11.8906 31.7549 11.8906 31.7549H29.7031C29.8333 31.7549 29.9342 31.7093 30.0059 31.6182C30.0775 31.527 30.1133 31.4098 30.1133 31.2666ZM29.3516 20.2314V30.5244L22.6328 25.1533L29.3516 20.2314ZM29.0391 19.5283L26.7539 21.1885V17.8291L29.0391 19.5283ZM20.8164 13.4932L21.5195 14.0205H20.0938L20.8164 13.4932ZM25.9336 14.8213V21.7939L20.8164 25.5244L15.6797 21.7939V14.8213H25.9336ZM12.2617 20.2314L19 25.1533L12.2617 30.5635V20.2314ZM14.918 21.2275L12.5547 19.5088L14.918 17.79V21.2275ZM13.0039 30.9736L19.6445 25.6221L20.5625 26.3057C20.6536 26.3708 20.735 26.4033 20.8066 26.4033C20.8783 26.4033 20.9596 26.3708 21.0508 26.3057L21.9688 25.6221L28.6484 30.9736H13.0039ZM18.082 16.8135H23.5703V17.5947H18.082V16.8135ZM18.082 19.2939H23.5703V20.0752H18.082V19.2939ZM18.082 21.7744H23.5703V22.5557H18.082V21.7744Z" fill="#F8F8FF"/>
</g>
<defs>
<clipPath id="clip0_1_334">
<rect width="20" height="20" fill="white" transform="matrix(1 0 0 -1 11.5 31.9502)"/>
</clipPath>
</defs>
</svg>
