<svg width="59" height="51" viewBox="0 0 59 51" fill="none" xmlns="http://www.w3.org/2000/svg">
<path d="M7.49793 13.6221H20.3397V15.3311H7.49793V13.6221ZM7.49793 17.2354H16.6776V18.8955H7.49793V17.2354ZM7.49793 22.7041H20.3397V24.3643H7.49793V22.7041ZM7.49793 26.3662H16.6776V28.0752H7.49793V26.3662ZM7.49793 31.835H20.3397V33.5439H7.49793V31.835ZM7.49793 35.5459H14.7733V37.2549H7.49793V35.5459ZM57.6932 44.9209L48.0253 35.1553L46.2186 36.9131L42.3612 33.0557C43.2401 32.014 43.94 30.834 44.4608 29.5156C44.9817 28.1973 45.2421 26.7894 45.2421 25.292C45.2421 23.7946 44.9817 22.3786 44.4608 21.0439C43.94 19.7093 43.2157 18.5212 42.288 17.4795C41.3602 16.4378 40.2616 15.5589 38.9921 14.8428C37.7225 14.1592 36.3554 13.7197 34.8905 13.5244V0.780273H7.98621L0.22254 8.54395V50.0967H34.8905V40.0381H33.1815V48.3877H1.93152V9.8623H9.20691V2.48926H33.0839V13.5244C31.4563 13.557 29.9426 13.8825 28.5429 14.501C27.1106 15.152 25.8736 16.0065 24.8319 17.0645C23.7902 18.1224 22.9602 19.3675 22.3417 20.7998C21.7232 22.2321 21.4139 23.762 21.4139 25.3896C21.4139 27.0173 21.7232 28.5472 22.3417 29.9795C22.9602 31.4118 23.8065 32.665 24.8807 33.7393C25.955 34.8135 27.2245 35.6598 28.6893 36.2783C30.1216 36.9294 31.6516 37.2549 33.2792 37.2549C34.7766 37.2549 36.1845 36.9945 37.5028 36.4736C38.8212 35.9528 40.0012 35.2367 41.0429 34.3252L44.9491 38.2314L43.1425 40.0381L52.9081 49.8037C53.2662 50.1292 53.6405 50.3734 54.0311 50.5361C54.4218 50.6989 54.8449 50.7803 55.3007 50.7803C55.7564 50.7803 56.1958 50.6908 56.619 50.5117C57.0422 50.3327 57.4003 50.0967 57.6932 49.8037C58.3768 49.0876 58.7186 48.2575 58.7186 47.3135C58.7186 46.3695 58.3768 45.5719 57.6932 44.9209ZM7.49793 8.05566H3.1034L7.49793 3.56348V8.05566ZM33.3768 35.4482C31.9771 35.4482 30.675 35.1715 29.4706 34.6182C28.2336 34.0973 27.1513 33.373 26.2235 32.4453C25.2958 31.5176 24.5715 30.4515 24.0507 29.2471C23.4973 28.0101 23.2206 26.6917 23.2206 25.292C23.2206 23.8923 23.4973 22.5739 24.0507 21.3369C24.5715 20.0999 25.2958 19.0257 26.2235 18.1143C27.1513 17.2028 28.2336 16.4704 29.4706 15.917C30.675 15.3962 31.9771 15.1357 33.3768 15.1357C34.7766 15.1357 36.0949 15.3962 37.3319 15.917C38.5689 16.4704 39.6431 17.2028 40.5546 18.1143C41.466 19.0257 42.1985 20.0999 42.7518 21.3369C43.2727 22.5739 43.5331 23.8923 43.5331 25.292C43.5331 26.6917 43.2727 28.0101 42.7518 29.2471C42.1985 30.4515 41.466 31.5176 40.5546 32.4453C39.6431 33.373 38.5689 34.0973 37.3319 34.6182C36.0949 35.1715 34.7766 35.4482 33.3768 35.4482ZM56.5214 48.4854C56.3586 48.6481 56.1633 48.7702 55.9354 48.8516C55.7076 48.9329 55.496 48.9736 55.3007 48.9736C55.0402 48.9736 54.8124 48.9329 54.6171 48.8516C54.4218 48.7702 54.259 48.6481 54.1288 48.4854L45.535 39.9404L48.0253 37.4502L56.619 45.9951C56.912 46.3857 57.0503 46.8252 57.0341 47.3135C57.0178 47.8018 56.8469 48.1924 56.5214 48.4854ZM33.5721 20.7998C33.5396 20.7998 33.4989 20.7998 33.4501 20.7998C33.4013 20.7998 33.3768 20.7998 33.3768 20.7998C33.3443 20.7998 33.3036 20.7998 33.2548 20.7998C33.2059 20.7998 33.1815 20.7998 33.1815 20.7998C31.0331 20.8649 29.2346 21.5241 27.786 22.7773C26.3374 24.0306 25.5806 24.7061 25.5155 24.8037L26.8339 25.8779C26.8339 25.8779 27.0536 25.6745 27.493 25.2676C27.9325 24.8607 28.5103 24.3968 29.2264 23.876C29.1613 24.0713 29.1125 24.291 29.08 24.5352C29.0474 24.7793 29.0311 25.0316 29.0311 25.292C29.0311 26.529 29.4624 27.5869 30.3251 28.4658C31.1877 29.3447 32.2375 29.7842 33.4745 29.7842C34.744 29.7842 35.8101 29.3447 36.6727 28.4658C37.5354 27.5869 37.9667 26.529 37.9667 25.292C37.9667 25.0316 37.9504 24.7956 37.9179 24.584C37.8853 24.3724 37.8365 24.1364 37.7714 23.876C38.455 24.3317 39.0246 24.7712 39.4804 25.1943C39.9361 25.6175 40.1639 25.8454 40.1639 25.8779L41.4335 24.8037C41.3033 24.7061 40.4976 24.0387 39.0165 22.8018C37.5354 21.5648 35.7206 20.8975 33.5721 20.7998ZM33.3768 28.1729C32.5956 28.1729 31.9364 27.8962 31.3993 27.3428C30.8622 26.7894 30.5936 26.1383 30.5936 25.3896C30.5936 24.641 30.854 23.998 31.3749 23.4609C31.8957 22.9238 32.5305 22.639 33.2792 22.6064C33.3443 22.6064 33.385 22.6064 33.4013 22.6064C33.4175 22.6064 33.4419 22.6064 33.4745 22.6064C33.5396 22.6064 33.5803 22.6064 33.5966 22.6064C33.6128 22.6064 33.6373 22.6064 33.6698 22.6064C34.4185 22.639 35.0533 22.9238 35.5741 23.4609C36.0949 23.998 36.3554 24.641 36.3554 25.3896C36.2577 26.1383 35.924 26.7894 35.3544 27.3428C34.7847 27.8962 34.1255 28.1729 33.3768 28.1729Z" fill="#977018"/>
</svg>
