<svg width="51" height="51" viewBox="0 0 51 51" fill="none" xmlns="http://www.w3.org/2000/svg">
<path d="M42.2969 8.15332C42.1016 7.95801 41.8656 7.86035 41.5889 7.86035C41.3122 7.86035 41.0762 7.95801 40.8809 8.15332L40.5879 8.44629C40.3926 8.6416 40.2949 8.87761 40.2949 9.1543C40.2949 9.43099 40.3926 9.66699 40.5879 9.8623C40.6855 9.95996 40.7913 10.0332 40.9053 10.082C41.0192 10.1309 41.1413 10.1553 41.2715 10.1553C41.4017 10.1553 41.5238 10.1309 41.6377 10.082C41.7516 10.0332 41.8574 9.95996 41.9551 9.8623L42.2969 9.56934C42.4922 9.37402 42.5898 9.13802 42.5898 8.86133C42.5898 8.58464 42.4922 8.34863 42.2969 8.15332ZM49.084 0.145508H42.7852C42.4922 0.145508 42.248 0.243164 42.0527 0.438477C41.8574 0.633789 41.7598 0.861652 41.7598 1.12207C41.7598 1.41504 41.8574 1.65918 42.0527 1.85449C42.248 2.0498 42.4922 2.14746 42.7852 2.14746H46.8867L43.4688 5.56543C43.2734 5.76074 43.1758 5.99675 43.1758 6.27344C43.1758 6.55013 43.2734 6.78613 43.4688 6.98145C43.5664 7.0791 43.6722 7.15234 43.7861 7.20117C43.9001 7.25 44.0221 7.27441 44.1523 7.27441C44.2826 7.27441 44.4128 7.25 44.543 7.20117C44.6732 7.15234 44.7871 7.0791 44.8848 6.98145L48.1074 3.75879V7.46973C48.1074 7.73014 48.2051 7.95801 48.4004 8.15332C48.5957 8.34863 48.8236 8.44629 49.084 8.44629C49.377 8.44629 49.6211 8.34863 49.8164 8.15332C50.0117 7.95801 50.1094 7.73014 50.1094 7.46973V1.12207C50.1094 0.861652 50.0117 0.633789 49.8164 0.438477C49.6211 0.243164 49.377 0.145508 49.084 0.145508ZM49.084 41.8447C48.8236 41.8447 48.5957 41.9424 48.4004 42.1377C48.2051 42.333 48.1074 42.5609 48.1074 42.8213V46.5322L40.002 38.4268C41.597 36.6689 42.8421 34.6507 43.7373 32.3721C44.6325 30.0934 45.0801 27.6846 45.0801 25.1455C45.0801 22.4111 44.5592 19.8395 43.5176 17.4307C42.5085 15.0218 41.1006 12.9222 39.2939 11.1318C37.4873 9.34147 35.3958 7.92546 33.0195 6.88379C30.6107 5.84212 28.0391 5.32129 25.3047 5.32129C22.7656 5.32129 20.3568 5.77702 18.0781 6.68848C15.7995 7.59993 13.7812 8.85319 12.0234 10.4482L3.67383 2.09863H7.82422C8.08464 2.09863 8.3125 2.00098 8.50781 1.80566C8.70312 1.61035 8.80078 1.38249 8.80078 1.12207C8.80078 0.861652 8.70312 0.633789 8.50781 0.438477C8.3125 0.243164 8.08464 0.145508 7.82422 0.145508H1.52539C1.23242 0.145508 0.988281 0.243164 0.792969 0.438477C0.597656 0.633789 0.5 0.861652 0.5 1.12207V7.4209C0.5 7.71387 0.597656 7.95801 0.792969 8.15332C0.988281 8.34863 1.23242 8.44629 1.52539 8.44629C1.78581 8.44629 2.01367 8.34863 2.20898 8.15332C2.4043 7.95801 2.50195 7.71387 2.50195 7.4209V3.75879L10.6074 11.8643C9.01237 13.6221 7.75911 15.6322 6.84766 17.8945C5.9362 20.1569 5.48047 22.5739 5.48047 25.1455C5.48047 27.6846 5.9362 30.0934 6.84766 32.3721C7.75911 34.6507 9.01237 36.6689 10.6074 38.4268L2.50195 46.5322V42.8213C2.50195 42.5609 2.4043 42.333 2.20898 42.1377C2.01367 41.9424 1.78581 41.8447 1.52539 41.8447C1.23242 41.8447 0.988281 41.9424 0.792969 42.1377C0.597656 42.333 0.5 42.5609 0.5 42.8213V49.1201C0.5 49.4131 0.597656 49.6572 0.792969 49.8525C0.988281 50.0479 1.23242 50.1455 1.52539 50.1455H7.82422C8.11719 50.1455 8.36133 50.0479 8.55664 49.8525C8.75195 49.6572 8.84961 49.4131 8.84961 49.1201C8.84961 48.8597 8.75195 48.6318 8.55664 48.4365C8.36133 48.2412 8.11719 48.1436 7.82422 48.1436H3.72266L12.0234 39.7939C13.7812 41.389 15.7995 42.6423 18.0781 43.5537C20.3568 44.4652 22.7656 44.9209 25.3047 44.9209C27.8438 44.9209 30.2526 44.4652 32.5312 43.5537C34.8099 42.6423 36.8281 41.389 38.5859 39.7939L46.8867 48.1436H42.7852C42.4922 48.1436 42.248 48.2412 42.0527 48.4365C41.8574 48.6318 41.7598 48.8597 41.7598 49.1201C41.7598 49.4131 41.8574 49.6572 42.0527 49.8525C42.248 50.0479 42.4922 50.1455 42.7852 50.1455H49.084C49.377 50.1455 49.6211 50.0479 49.8164 49.8525C50.0117 49.6572 50.1094 49.4131 50.1094 49.1201V42.8213C50.1094 42.5283 50.0117 42.2923 49.8164 42.1133C49.6211 41.9342 49.377 41.8447 49.084 41.8447ZM25.3047 42.9678C22.8633 42.9678 20.5521 42.4958 18.3711 41.5518C16.2227 40.6077 14.3428 39.3301 12.7314 37.7188C11.1201 36.1074 9.84245 34.2275 8.89844 32.0791C7.95443 29.8981 7.48242 27.5869 7.48242 25.1455C7.48242 22.6715 7.95443 20.3604 8.89844 18.2119C9.84245 16.0309 11.1201 14.1348 12.7314 12.5234C14.3428 10.9121 16.2227 9.65071 18.3711 8.73926C20.5521 7.79525 22.8633 7.32324 25.3047 7.32324C27.7461 7.32324 30.0573 7.79525 32.2383 8.73926C34.3867 9.65071 36.2666 10.9121 37.8779 12.5234C39.4893 14.1348 40.7669 16.0309 41.7109 18.2119C42.6549 20.3604 43.127 22.6715 43.127 25.1455C43.127 27.5869 42.6549 29.8981 41.7109 32.0791C40.7669 34.2275 39.4893 36.1074 37.8779 37.7188C36.2666 39.3301 34.3867 40.6077 32.2383 41.5518C30.0573 42.4958 27.7461 42.9678 25.3047 42.9678ZM29.2598 13.2314C28.9342 12.8408 28.5355 12.5397 28.0635 12.3281C27.5915 12.1165 27.0951 12.0107 26.5742 12.0107H24.0352C23.5469 12.0107 23.0667 12.1165 22.5947 12.3281C22.1227 12.5397 21.7077 12.8408 21.3496 13.2314C20.9915 13.5895 20.723 14.0127 20.5439 14.501C20.3649 14.9893 20.2917 15.4938 20.3242 16.0146L20.4707 17.7236L20.7148 21.7275C20.7799 22.5088 21.016 23.2249 21.4229 23.876C21.8298 24.527 22.3913 25.0479 23.1074 25.4385C23.4329 25.6338 23.7829 25.7803 24.1572 25.8779C24.5316 25.9756 24.9141 26.0244 25.3047 26.0244C25.6953 26.0244 26.0778 25.9756 26.4521 25.8779C26.8265 25.7803 27.1927 25.6338 27.5508 25.4385C28.2344 25.0804 28.7878 24.5677 29.2109 23.9004C29.6341 23.2331 29.862 22.5088 29.8945 21.7275L30.1875 17.1377L30.2852 16.0146C30.3177 15.4938 30.2445 14.9893 30.0654 14.501C29.8864 14.0127 29.6178 13.5895 29.2598 13.2314ZM22.3262 15.8682C22.2936 15.6403 22.318 15.4124 22.3994 15.1846C22.4808 14.9567 22.6029 14.7451 22.7656 14.5498C22.9609 14.387 23.1644 14.2568 23.376 14.1592C23.5876 14.0615 23.8073 14.0127 24.0352 14.0127H25.8906L25.5488 14.9893C25.4837 15.0869 25.2152 15.3229 24.7432 15.6973C24.2712 16.0716 23.4818 16.3564 22.375 16.5518L22.3262 15.8682ZM27.8926 21.5811C27.8926 22.0368 27.7705 22.4518 27.5264 22.8262C27.2822 23.2005 26.9648 23.4854 26.5742 23.6807C26.1836 23.9085 25.7604 24.0225 25.3047 24.0225C24.849 24.0225 24.4258 23.9085 24.0352 23.6807C23.6445 23.4854 23.3271 23.1924 23.083 22.8018C22.8389 22.4111 22.7168 22.0042 22.7168 21.5811L22.5215 18.5537C23.4329 18.4235 24.1979 18.2119 24.8164 17.9189C25.4349 17.626 25.9232 17.333 26.2812 17.04C26.3789 17.1051 26.4603 17.1621 26.5254 17.2109C26.5905 17.2598 26.6719 17.3005 26.7695 17.333C26.9323 17.4307 27.1276 17.5202 27.3555 17.6016C27.5833 17.6829 27.86 17.7562 28.1855 17.8213L27.8926 21.5811ZM27.6973 15.5752C27.6647 15.5426 27.6322 15.5182 27.5996 15.502C27.5671 15.4857 27.5345 15.4775 27.502 15.4775L27.8438 14.5986C27.974 14.7614 28.0798 14.9486 28.1611 15.1602C28.2425 15.3717 28.2832 15.5915 28.2832 15.8193C28.1204 15.7542 27.9902 15.7054 27.8926 15.6729C27.7949 15.6403 27.7298 15.6077 27.6973 15.5752ZM36.2422 32.5186C35.9818 31.1188 35.3389 29.9062 34.3135 28.8809C33.2881 27.8555 32.0755 27.2126 30.6758 26.9521C30.4805 26.9196 30.2689 26.8952 30.041 26.8789C29.8132 26.8626 29.6016 26.8545 29.4062 26.8545H28.1367C28.0065 26.8545 27.8844 26.8789 27.7705 26.9277C27.6566 26.9766 27.5508 27.0498 27.4531 27.1475L25.3047 29.2471L23.1562 27.0986C23.0586 27.0335 22.9528 26.9684 22.8389 26.9033C22.7249 26.8382 22.6029 26.8057 22.4727 26.8057H21.2031C21.0078 26.8057 20.7962 26.8219 20.5684 26.8545C20.3405 26.887 20.1289 26.9196 19.9336 26.9521C18.5339 27.2126 17.3213 27.8555 16.2959 28.8809C15.2705 29.9062 14.6276 31.1188 14.3672 32.5186C14.3021 32.9417 14.3265 33.3649 14.4404 33.7881C14.5544 34.2113 14.7415 34.6019 15.002 34.96C15.2949 35.2855 15.6367 35.5378 16.0273 35.7168C16.418 35.8958 16.8249 35.9854 17.248 35.9854H33.3125C33.7682 35.9854 34.1914 35.8958 34.582 35.7168C34.9727 35.5378 35.3145 35.2855 35.6074 34.96C35.8678 34.6019 36.055 34.2194 36.1689 33.8125C36.2829 33.4056 36.3073 32.9743 36.2422 32.5186ZM34.0449 33.6904C34.0124 33.7555 33.931 33.8288 33.8008 33.9102C33.6706 33.9915 33.5078 34.0322 33.3125 34.0322H17.2969C17.1016 34.0322 16.9388 33.9915 16.8086 33.9102C16.6784 33.8288 16.597 33.7555 16.5645 33.6904C16.4993 33.6253 16.4342 33.5195 16.3691 33.373C16.304 33.2266 16.2878 33.0719 16.3203 32.9092C16.5156 31.9001 16.9795 31.0293 17.7119 30.2969C18.4443 29.5645 19.2988 29.1006 20.2754 28.9053C20.4382 28.8727 20.6009 28.8483 20.7637 28.832C20.9264 28.8158 21.0729 28.8076 21.2031 28.8076H22.0332L24.6211 31.3467C24.6862 31.4443 24.7839 31.5176 24.9141 31.5664C25.0443 31.6152 25.1745 31.6396 25.3047 31.6396C25.4349 31.6396 25.5651 31.6152 25.6953 31.5664C25.8255 31.5176 25.9232 31.4443 25.9883 31.3467L28.5762 28.8076H29.4062C29.569 28.8076 29.7236 28.8158 29.8701 28.832C30.0166 28.8483 30.1712 28.8727 30.334 28.9053C31.3105 29.1006 32.165 29.5645 32.8975 30.2969C33.6299 31.0293 34.0938 31.9001 34.2891 32.9092C34.3216 33.0719 34.3053 33.2266 34.2402 33.373C34.1751 33.5195 34.11 33.6253 34.0449 33.6904Z" fill="#977018"/>
</svg>
