<svg width="21" height="21" viewBox="0 0 21 21" fill="none" xmlns="http://www.w3.org/2000/svg">
<path d="M16.2833 13.1191C16.0749 12.9108 15.8503 12.7513 15.6094 12.6406C15.3686 12.5299 15.1179 12.4746 14.8575 12.4746C14.5971 12.4746 14.3464 12.5299 14.1055 12.6406C13.8647 12.7513 13.6335 12.9108 13.4122 13.1191L12.0841 14.4473C12.032 14.4212 11.9766 14.3952 11.918 14.3691C11.8594 14.3431 11.8041 14.3105 11.752 14.2715C11.6869 14.2454 11.6186 14.2129 11.5469 14.1738C11.4753 14.1348 11.407 14.0957 11.3419 14.0566C10.7169 13.666 10.1179 13.207 9.54499 12.6797C8.97207 12.1523 8.41218 11.5566 7.8653 10.8926C7.60489 10.554 7.38353 10.2415 7.20124 9.95508C7.01895 9.66862 6.8627 9.38216 6.73249 9.0957C6.90176 8.93945 7.06778 8.77995 7.23054 8.61719C7.3933 8.45443 7.5528 8.29492 7.70905 8.13867C7.76114 8.07357 7.81973 8.01172 7.88483 7.95312C7.94994 7.89453 8.00853 7.83268 8.06061 7.76758C8.50332 7.32487 8.72468 6.83984 8.72468 6.3125C8.72468 5.78516 8.50332 5.30013 8.06061 4.85742L6.90827 3.70508C6.84317 3.63997 6.77806 3.57162 6.71296 3.5C6.64785 3.42838 6.58275 3.36003 6.51765 3.29492C6.38744 3.16471 6.25723 3.03451 6.12702 2.9043C5.99681 2.77409 5.8666 2.64388 5.7364 2.51367C5.52806 2.30534 5.30345 2.14909 5.06257 2.04492C4.82168 1.94076 4.57103 1.88867 4.31061 1.88867C4.0502 1.88867 3.79955 1.94076 3.55866 2.04492C3.31778 2.14909 3.09317 2.30534 2.88483 2.51367C2.88483 2.51367 2.87832 2.51367 2.8653 2.51367L1.43952 3.97852C1.16608 4.23893 0.954494 4.53516 0.804755 4.86719C0.655015 5.19922 0.560614 5.55404 0.521552 5.93164C0.469468 6.54362 0.511786 7.12305 0.648505 7.66992C0.785224 8.2168 0.925198 8.67904 1.06843 9.05664C1.40697 9.98112 1.83991 10.8828 2.36725 11.7617C2.8946 12.6406 3.53587 13.5358 4.29108 14.4473C4.75983 15.0072 5.24811 15.528 5.75593 16.0098C6.26374 16.5046 6.79434 16.9701 7.34772 17.4062C7.90111 17.8424 8.47077 18.2428 9.05671 18.6074C9.65567 18.985 10.2742 19.3236 10.9122 19.623C11.3939 19.8574 11.9506 20.0885 12.5821 20.3164C13.2136 20.5443 13.8939 20.6842 14.6231 20.7363C14.6622 20.7363 14.7045 20.7363 14.7501 20.7363C14.7956 20.7363 14.8445 20.7363 14.8966 20.7363C15.3783 20.7363 15.8243 20.6484 16.2344 20.4727C16.6446 20.2969 17.0059 20.0332 17.3184 19.6816C17.3314 19.6816 17.338 19.6816 17.338 19.6816C17.338 19.6816 17.338 19.6751 17.338 19.6621C17.4551 19.5319 17.5756 19.4049 17.6993 19.2812C17.823 19.1576 17.9499 19.0306 18.0801 18.9004C18.1713 18.8223 18.2624 18.7376 18.3536 18.6465C18.4447 18.5553 18.5359 18.4577 18.627 18.3535C18.8354 18.1452 18.9949 17.9173 19.1055 17.6699C19.2162 17.4225 19.2716 17.1686 19.2716 16.9082C19.2716 16.6478 19.2162 16.3939 19.1055 16.1465C18.9949 15.8991 18.8288 15.6647 18.6075 15.4434L16.2833 13.1191ZM17.8067 17.5723C17.7156 17.6634 17.6277 17.748 17.543 17.8262C17.4584 17.9043 17.3705 17.9889 17.2794 18.0801C17.1492 18.2103 17.0124 18.347 16.8692 18.4902C16.726 18.6335 16.5893 18.7767 16.4591 18.9199C16.2507 19.1543 16.0163 19.3268 15.7559 19.4375C15.4955 19.5482 15.2025 19.6035 14.877 19.6035C14.851 19.6035 14.8217 19.6035 14.7891 19.6035C14.7566 19.6035 14.7208 19.6035 14.6817 19.6035C14.0567 19.5514 13.461 19.4245 12.8946 19.2227C12.3282 19.0208 11.8301 18.8158 11.4005 18.6074C10.8015 18.321 10.2221 18.002 9.66218 17.6504C9.10228 17.2988 8.56192 16.9212 8.04108 16.5176C7.52025 16.1139 7.01895 15.6777 6.53718 15.209C6.05541 14.7402 5.59968 14.2454 5.16999 13.7246C4.45384 12.8522 3.84837 12.0059 3.35358 11.1855C2.85879 10.3652 2.44863 9.52539 2.12311 8.66602C1.9278 8.14518 1.79434 7.66992 1.72272 7.24023C1.65111 6.81055 1.62832 6.4069 1.65436 6.0293C1.68041 5.7819 1.739 5.55404 1.83015 5.3457C1.92129 5.13737 2.05801 4.94857 2.2403 4.7793L3.66608 3.33398C3.77025 3.22982 3.87767 3.15495 3.98835 3.10938C4.09903 3.0638 4.20645 3.04102 4.31061 3.04102C4.44082 3.04102 4.56127 3.07357 4.67194 3.13867C4.78262 3.20378 4.87051 3.26888 4.93561 3.33398C5.06582 3.46419 5.19278 3.59115 5.31647 3.71484C5.44017 3.83854 5.56712 3.96549 5.69733 4.0957C5.76244 4.16081 5.8308 4.22917 5.90241 4.30078C5.97403 4.3724 6.04239 4.44076 6.10749 4.50586L7.25983 5.6582C7.48119 5.87956 7.59186 6.09766 7.59186 6.3125C7.59186 6.52734 7.48119 6.74544 7.25983 6.9668C7.19473 7.0319 7.13288 7.09375 7.07429 7.15234C7.01569 7.21094 6.95384 7.27279 6.88874 7.33789C6.71947 7.52018 6.54694 7.69596 6.37116 7.86523C6.19538 8.0345 6.01634 8.19727 5.83405 8.35352C5.83405 8.36654 5.8308 8.37305 5.82429 8.37305C5.81778 8.37305 5.81452 8.37305 5.81452 8.37305C5.63223 8.55534 5.54108 8.73112 5.54108 8.90039C5.54108 9.06966 5.56061 9.21289 5.59968 9.33008C5.59968 9.3431 5.59968 9.35286 5.59968 9.35938C5.59968 9.36589 5.60619 9.36914 5.61921 9.36914C5.76244 9.73372 5.94473 10.0951 6.16608 10.4531C6.38744 10.8112 6.65436 11.1921 6.96686 11.5957H6.9864C7.55931 12.3118 8.15827 12.9531 8.78327 13.5195C9.40827 14.0859 10.0593 14.584 10.7364 15.0137C10.8145 15.0658 10.8992 15.1146 10.9903 15.1602C11.0814 15.2057 11.1661 15.248 11.2442 15.2871C11.3223 15.3262 11.3972 15.3652 11.4688 15.4043C11.5404 15.4434 11.6088 15.4824 11.6739 15.5215C11.6739 15.5215 11.6804 15.5247 11.6934 15.5312C11.7064 15.5378 11.713 15.541 11.713 15.541C11.7911 15.5801 11.8627 15.6094 11.9278 15.6289C11.9929 15.6484 12.0645 15.6582 12.1426 15.6582C12.3119 15.6582 12.4519 15.6191 12.5626 15.541C12.6732 15.4629 12.7416 15.4043 12.7676 15.3652L14.213 13.9199C14.2911 13.8418 14.3855 13.7702 14.4962 13.7051C14.6068 13.64 14.7273 13.6074 14.8575 13.6074C14.9877 13.6074 15.1049 13.64 15.2091 13.7051C15.3132 13.7702 15.3979 13.8353 15.463 13.9004C15.463 13.9134 15.463 13.9199 15.463 13.9199C15.463 13.9199 15.4695 13.9199 15.4825 13.9199L17.8067 16.2441C18.015 16.4655 18.1192 16.6868 18.1192 16.9082C18.1192 17.1296 18.015 17.3509 17.8067 17.5723ZM11.2833 5.48242C11.8432 5.58659 12.3705 5.76562 12.8653 6.01953C13.3601 6.27344 13.8093 6.60221 14.213 7.00586C14.6036 7.4095 14.9291 7.85872 15.1895 8.35352C15.4499 8.84831 15.6257 9.36914 15.7169 9.91602C15.7429 10.0592 15.808 10.1732 15.9122 10.2578C16.0163 10.3424 16.14 10.3848 16.2833 10.3848C16.2963 10.3848 16.3093 10.3848 16.3223 10.3848C16.3354 10.3848 16.3549 10.3848 16.3809 10.3848C16.5372 10.3587 16.6609 10.2806 16.752 10.1504C16.8432 10.0202 16.8757 9.87695 16.8497 9.7207C16.7325 9.05664 16.5176 8.42513 16.2051 7.82617C15.8926 7.22721 15.4955 6.68685 15.0137 6.20508C14.532 5.72331 13.9916 5.32617 13.3926 5.01367C12.7937 4.70117 12.1622 4.48633 11.4981 4.36914C11.3419 4.3431 11.1986 4.37565 11.0684 4.4668C10.9382 4.55794 10.8601 4.68164 10.8341 4.83789C10.808 4.98112 10.8373 5.11784 10.9219 5.24805C11.0066 5.37825 11.127 5.45638 11.2833 5.48242ZM20.463 9.56445C20.3718 9.00456 20.2351 8.46419 20.0528 7.94336C19.8835 7.42253 19.6719 6.91797 19.418 6.42969C19.1641 5.94141 18.8744 5.4694 18.5489 5.01367C18.2104 4.57096 17.8458 4.14779 17.4551 3.74414C17.0515 3.35352 16.6283 2.99544 16.1856 2.66992C15.7299 2.33138 15.2579 2.03841 14.7696 1.79102C14.2813 1.54362 13.7768 1.32878 13.2559 1.14648C12.7351 0.977213 12.2012 0.840494 11.6544 0.736328C11.4981 0.710287 11.3549 0.742838 11.2247 0.833984C11.0945 0.925131 11.0163 1.04883 10.9903 1.20508C10.9643 1.36133 10.9968 1.50456 11.088 1.63477C11.1791 1.76497 11.3028 1.8431 11.4591 1.86914C12.4486 2.03841 13.3829 2.35091 14.2618 2.80664C15.1407 3.26237 15.9382 3.84831 16.6544 4.56445C17.3705 5.26758 17.9564 6.06185 18.4122 6.94727C18.8679 7.83268 19.1739 8.76367 19.3301 9.74023C19.3562 9.88346 19.4245 9.9974 19.5352 10.082C19.6459 10.1667 19.7663 10.209 19.8966 10.209C19.9226 10.209 19.9421 10.209 19.9551 10.209C19.9682 10.209 19.9812 10.209 19.9942 10.209C20.1505 10.1829 20.2742 10.1048 20.3653 9.97461C20.4564 9.8444 20.489 9.70768 20.463 9.56445Z" fill="#F8F8FF"/>
</svg>
