<svg width="43" height="43" viewBox="0 0 43 43" fill="none" xmlns="http://www.w3.org/2000/svg">
<rect x="1" y="1.4502" width="41" height="41" rx="20.5" stroke="#F8F8FF"/>
<g clip-path="url(#clip0_1_326)">
<path d="M27.4766 31.9502C26.5911 31.9502 25.6797 31.8265 24.7422 31.5791C23.8047 31.3317 22.8477 30.9606 21.8711 30.4658C21.4284 30.2314 20.9857 29.9775 20.543 29.7041C20.1003 29.4307 19.6641 29.1344 19.2344 28.8154C18.8047 28.4964 18.3815 28.1546 17.9648 27.79C17.5482 27.4385 17.1445 27.0674 16.7539 26.6768C16.3633 26.2861 15.9922 25.8825 15.6406 25.4658C15.2891 25.0492 14.9538 24.626 14.6348 24.1963C14.3158 23.7666 14.0195 23.3304 13.7461 22.8877C13.4596 22.445 13.2057 22.0023 12.9844 21.5596C12.4896 20.583 12.1185 19.626 11.8711 18.6885C11.6237 17.751 11.5 16.8395 11.5 15.9541C11.5 15.3812 11.6953 14.8441 12.0859 14.3428C12.4766 13.8415 12.7891 13.4867 13.0234 13.2783C13.349 12.9658 13.7461 12.6663 14.2148 12.3799C14.6836 12.0934 15.1068 11.9502 15.4844 11.9502C15.6667 11.9502 15.8717 12.012 16.0996 12.1357C16.3275 12.2594 16.5846 12.458 16.8711 12.7314C17.0794 12.9268 17.3008 13.1546 17.5352 13.415C17.7695 13.6755 18.0104 13.9619 18.2578 14.2744C18.401 14.4567 18.7233 14.9189 19.2246 15.6611C19.7259 16.4033 19.9766 17.0023 19.9766 17.458C19.9766 17.8226 19.8008 18.1449 19.4492 18.4248C19.0977 18.7048 18.694 18.988 18.2383 19.2744C18.069 19.3786 17.8997 19.4827 17.7305 19.5869C17.5612 19.6911 17.4115 19.7952 17.2812 19.8994C17.138 20.0166 17.0469 20.1045 17.0078 20.1631C16.9688 20.2217 16.9492 20.2575 16.9492 20.2705C17.1836 20.8564 17.5286 21.4684 17.9844 22.1064C18.4401 22.7445 18.9544 23.3467 19.5273 23.9131C20.1003 24.4795 20.6992 24.9906 21.3242 25.4463C21.9622 25.902 22.5742 26.2471 23.1602 26.4814C23.1732 26.4814 23.209 26.4619 23.2676 26.4229C23.3262 26.3838 23.4141 26.2926 23.5312 26.1494C23.6354 26.0192 23.7396 25.8695 23.8438 25.7002C23.9479 25.5309 24.0521 25.3617 24.1562 25.1924C24.4427 24.7367 24.7259 24.333 25.0059 23.9814C25.2858 23.6299 25.6081 23.4541 25.9727 23.4541C26.4284 23.4541 27.0273 23.7048 27.7695 24.2061C28.5117 24.7074 28.974 25.0296 29.1562 25.1729C29.4688 25.4202 29.7552 25.6611 30.0156 25.8955C30.276 26.1299 30.5039 26.3512 30.6992 26.5596C30.9727 26.846 31.1712 27.1032 31.2949 27.3311C31.4186 27.5589 31.4805 27.764 31.4805 27.9463C31.4805 28.3239 31.3372 28.7471 31.0508 29.2158C30.7643 29.6846 30.4648 30.0817 30.1523 30.4072C29.944 30.6416 29.5892 30.9574 29.0879 31.3545C28.5866 31.7516 28.0495 31.9502 27.4766 31.9502ZM15.4648 12.9463C15.3346 12.9463 15.1068 13.0342 14.7812 13.21C14.4557 13.3857 14.0977 13.6494 13.707 14.001C13.3294 14.3525 13.0332 14.7008 12.8184 15.0459C12.6035 15.391 12.4961 15.6937 12.4961 15.9541C12.4961 17.6338 12.9583 19.359 13.8828 21.1299C14.8203 22.9007 16.015 24.5153 17.4668 25.9736C18.9186 27.432 20.5299 28.6234 22.3008 29.5479C24.0716 30.4854 25.7969 30.9541 27.4766 30.9541C27.737 30.9541 28.0397 30.8434 28.3848 30.6221C28.7298 30.4007 29.0781 30.1077 29.4297 29.7432C29.7812 29.3395 30.0449 28.9749 30.2207 28.6494C30.3965 28.3239 30.4844 28.096 30.4844 27.9658C30.4714 27.8617 30.3151 27.6338 30.0156 27.2822C29.7161 26.9307 29.2083 26.4749 28.4922 25.915C27.8672 25.4463 27.3268 25.085 26.8711 24.8311C26.4154 24.5771 26.1224 24.4502 25.9922 24.4502C25.9792 24.4502 25.9434 24.4697 25.8848 24.5088C25.8262 24.5479 25.7383 24.639 25.6211 24.7822C25.5299 24.9124 25.4323 25.0589 25.3281 25.2217C25.224 25.3844 25.1198 25.5505 25.0156 25.7197C24.7422 26.1755 24.459 26.5824 24.166 26.9404C23.873 27.2985 23.5378 27.4775 23.1602 27.4775C23.0951 27.4775 23.0332 27.4743 22.9746 27.4678C22.916 27.4613 22.8542 27.445 22.7891 27.4189C22.138 27.1585 21.4674 26.7809 20.7773 26.2861C20.0872 25.7913 19.4329 25.2347 18.8145 24.6162C18.196 23.9977 17.6393 23.3434 17.1445 22.6533C16.6497 21.9632 16.2721 21.2926 16.0117 20.6416C15.9466 20.4854 15.9336 20.2868 15.9727 20.0459C16.0117 19.805 16.1875 19.5479 16.5 19.2744C16.6562 19.1182 16.8418 18.9684 17.0566 18.8252C17.2715 18.682 17.4896 18.5452 17.7109 18.415C17.8802 18.3109 18.0462 18.2067 18.209 18.1025C18.3717 17.9984 18.5182 17.9007 18.6484 17.8096C18.7917 17.6924 18.8828 17.6045 18.9219 17.5459C18.9609 17.4873 18.9805 17.4515 18.9805 17.4385C18.9805 17.3083 18.8535 17.0153 18.5996 16.5596C18.3457 16.1038 17.9844 15.5635 17.5156 14.9385C16.9557 14.2223 16.5 13.7145 16.1484 13.415C15.7969 13.1156 15.569 12.9593 15.4648 12.9463Z" fill="#F8F8FF"/>
</g>
<defs>
<clipPath id="clip0_1_326">
<rect width="20" height="20" fill="white" transform="matrix(1 0 0 -1 11.5 31.9502)"/>
</clipPath>
</defs>
</svg>
