<svg width="21" height="20" viewBox="0 0 21 20" fill="none" xmlns="http://www.w3.org/2000/svg">
<path d="M12.7461 4.43359C12.5508 4.21224 12.3066 4.03971 12.0137 3.91602C11.7207 3.79232 11.4115 3.73047 11.0859 3.73047C10.487 3.73047 9.95638 3.9095 9.49414 4.26758C9.0319 4.62565 8.77474 5.05208 8.72266 5.54688C8.69661 5.78125 8.71615 6.00586 8.78125 6.2207C8.84635 6.43555 8.95703 6.6276 9.11328 6.79688C9.30859 7.01823 9.54948 7.1875 9.83594 7.30469C10.1224 7.42188 10.4284 7.48047 10.7539 7.48047C11.3659 7.48047 11.903 7.30469 12.3652 6.95312C12.8275 6.60156 13.0846 6.17188 13.1367 5.66406C13.1628 5.44271 13.1432 5.22461 13.0781 5.00977C13.013 4.79492 12.9023 4.60286 12.7461 4.43359ZM12.1797 5.54688C12.1536 5.80729 12.0007 6.0319 11.7207 6.2207C11.4408 6.4095 11.1185 6.50391 10.7539 6.50391C10.5586 6.50391 10.3796 6.47461 10.2168 6.41602C10.054 6.35742 9.92708 6.26953 9.83594 6.15234C9.77083 6.08724 9.72526 6.01237 9.69922 5.92773C9.67318 5.8431 9.66016 5.75521 9.66016 5.66406C9.69922 5.40365 9.85872 5.17904 10.1387 4.99023C10.4186 4.80143 10.7344 4.70703 11.0859 4.70703C11.2812 4.70703 11.4603 4.73958 11.623 4.80469C11.7858 4.86979 11.9193 4.95443 12.0234 5.05859C12.0625 5.11068 12.1016 5.17904 12.1406 5.26367C12.1797 5.34831 12.1927 5.44271 12.1797 5.54688ZM12.2969 14.668C12.2318 14.6289 12.1569 14.5182 12.0723 14.3359C11.9876 14.1536 12.0039 13.737 12.1211 13.0859C12.1211 13.0729 12.1276 13.0404 12.1406 12.9883C12.1536 12.9362 12.1667 12.8711 12.1797 12.793C12.2188 12.5977 12.2741 12.3372 12.3457 12.0117C12.4173 11.6862 12.4922 11.3281 12.5703 10.9375C12.6484 10.5208 12.6582 10.1335 12.5996 9.77539C12.541 9.41732 12.4076 9.10156 12.1992 8.82812C12.0039 8.58073 11.763 8.38216 11.4766 8.23242C11.1901 8.08268 10.8711 7.99479 10.5195 7.96875C9.9987 7.92969 9.50065 8.03385 9.02539 8.28125C8.55013 8.52865 8.22786 8.80859 8.05859 9.12109C7.98047 9.2513 7.95117 9.36849 7.9707 9.47266C7.99023 9.57682 8.01302 9.65495 8.03906 9.70703C8.07812 9.77214 8.12044 9.82747 8.16602 9.87305C8.21159 9.91862 8.25391 9.95443 8.29297 9.98047C8.35807 10.0195 8.42969 10.1302 8.50781 10.3125C8.58594 10.4948 8.5599 10.9115 8.42969 11.5625C8.41667 11.6146 8.34505 11.9694 8.21484 12.627C8.08464 13.2845 8.00651 13.6784 7.98047 13.8086C7.91536 14.2253 7.91862 14.6126 7.99023 14.9707C8.06185 15.3288 8.20833 15.6445 8.42969 15.918C8.78125 16.3477 9.16536 16.5918 9.58203 16.6504C9.9987 16.709 10.2201 16.7383 10.2461 16.7383C10.7409 16.7383 11.2096 16.6081 11.6523 16.3477C12.0951 16.0872 12.388 15.8073 12.5312 15.5078C12.6094 15.3776 12.6387 15.2604 12.6191 15.1562C12.5996 15.0521 12.5768 14.974 12.5508 14.9219C12.5117 14.8568 12.4661 14.8047 12.4141 14.7656C12.362 14.7266 12.3229 14.694 12.2969 14.668ZM11.6328 10.7422C11.5547 11.1328 11.4798 11.4909 11.4082 11.8164C11.3366 12.1419 11.2812 12.3958 11.2422 12.5781C11.2161 12.7083 11.1966 12.793 11.1836 12.832C11.1706 12.8711 11.1641 12.8971 11.1641 12.9102C11.0469 13.6133 11.0339 14.1406 11.125 14.4922C11.2161 14.8438 11.3464 15.1042 11.5156 15.2734C11.4766 15.3125 11.4245 15.3548 11.3594 15.4004C11.2943 15.446 11.2161 15.4883 11.125 15.5273C10.9688 15.6185 10.806 15.6836 10.6367 15.7227C10.4674 15.7617 10.3112 15.7747 10.168 15.7617C9.94661 15.7487 9.7513 15.7064 9.58203 15.6348C9.41276 15.5632 9.27604 15.4557 9.17188 15.3125C9.04167 15.1562 8.95703 14.9642 8.91797 14.7363C8.87891 14.5085 8.88542 14.2513 8.9375 13.9648C8.96354 13.8346 9.03841 13.444 9.16211 12.793C9.28581 12.1419 9.35417 11.7969 9.36719 11.7578C9.51042 11.0547 9.53971 10.5273 9.45508 10.1758C9.37044 9.82422 9.24349 9.55729 9.07422 9.375C9.1263 9.33594 9.1849 9.29688 9.25 9.25781C9.3151 9.21875 9.38672 9.17969 9.46484 9.14062C9.63411 9.0625 9.80339 9.00391 9.97266 8.96484C10.1419 8.92578 10.2982 8.91276 10.4414 8.92578C10.6628 8.9388 10.8548 8.98763 11.0176 9.07227C11.1803 9.1569 11.3138 9.26432 11.418 9.39453C11.5482 9.5638 11.6296 9.76237 11.6621 9.99023C11.6947 10.2181 11.6849 10.4688 11.6328 10.7422ZM18.4492 15.6641C19.1133 14.8698 19.6211 13.9974 19.9727 13.0469C20.3242 12.0964 20.5 11.1198 20.5 10.1172C20.5 9.50521 20.4349 8.89974 20.3047 8.30078C20.1745 7.71484 19.9857 7.14844 19.7383 6.60156C19.4909 6.05469 19.1849 5.52734 18.8203 5.01953C18.4557 4.52474 18.0326 4.0625 17.5508 3.63281C17.082 3.20312 16.5742 2.81901 16.0273 2.48047C15.4805 2.15495 14.9108 1.87826 14.3184 1.65039C13.7259 1.42253 13.1042 1.25 12.4531 1.13281C11.8151 1.01562 11.1641 0.957031 10.5 0.957031C9.83594 0.957031 9.1849 1.01562 8.54688 1.13281C7.89583 1.25 7.27409 1.42253 6.68164 1.65039C6.08919 1.87826 5.51953 2.15495 4.97266 2.48047C4.42578 2.81901 3.91797 3.20312 3.44922 3.63281C2.96745 4.0625 2.54427 4.52474 2.17969 5.01953C1.8151 5.52734 1.50911 6.05469 1.26172 6.60156C1.01432 7.14844 0.825521 7.71484 0.695312 8.30078C0.565104 8.89974 0.5 9.50521 0.5 10.1172C0.5 10.7292 0.565104 11.3281 0.695312 11.9141C0.825521 12.5 1.01432 13.0697 1.26172 13.623C1.50911 14.1764 1.8151 14.7005 2.17969 15.1953C2.54427 15.7031 2.96745 16.1719 3.44922 16.6016C3.91797 17.0312 4.42578 17.4089 4.97266 17.7344C5.51953 18.0729 6.08919 18.3529 6.68164 18.5742C7.27409 18.7956 7.89583 18.9648 8.54688 19.082C9.1849 19.1992 9.83594 19.2578 10.5 19.2578C11.3333 19.2578 12.1536 19.1634 12.9609 18.9746C13.7682 18.7858 14.5365 18.5156 15.2656 18.1641L18.7422 19.4727C18.7682 19.4727 18.7975 19.4759 18.8301 19.4824C18.8626 19.4889 18.8919 19.4922 18.918 19.4922C18.9701 19.4922 19.0254 19.4824 19.084 19.4629C19.1426 19.4434 19.1914 19.4141 19.2305 19.375C19.3086 19.3099 19.3574 19.235 19.377 19.1504C19.3965 19.0658 19.3932 18.9779 19.3672 18.8867L18.4492 15.6641ZM15.4023 17.1875C15.3372 17.1615 15.2689 17.1517 15.1973 17.1582C15.1257 17.1647 15.0638 17.181 15.0117 17.207C14.3216 17.5716 13.5957 17.8451 12.834 18.0273C12.0723 18.2096 11.2943 18.3008 10.5 18.3008C9.25 18.3008 8.07812 18.0859 6.98438 17.6562C5.89062 17.2266 4.93359 16.6406 4.11328 15.8984C3.29297 15.1562 2.64844 14.2904 2.17969 13.3008C1.69792 12.2982 1.45703 11.237 1.45703 10.1172C1.45703 8.98438 1.69792 7.92318 2.17969 6.93359C2.64844 5.93099 3.29297 5.06185 4.11328 4.32617C4.93359 3.5905 5.89062 3.00781 6.98438 2.57812C8.07812 2.14844 9.25 1.93359 10.5 1.93359C11.75 1.93359 12.9219 2.14844 14.0156 2.57812C15.1094 3.00781 16.0664 3.5905 16.8867 4.32617C17.707 5.06185 18.3516 5.93099 18.8203 6.93359C19.3021 7.92318 19.543 8.98438 19.543 10.1172C19.543 11.0547 19.3737 11.9564 19.0352 12.8223C18.6966 13.6882 18.2083 14.4857 17.5703 15.2148C17.5052 15.2799 17.4661 15.3516 17.4531 15.4297C17.4401 15.5078 17.4401 15.5924 17.4531 15.6836L18.1953 18.2422L15.4023 17.1875Z" fill="#F8F8FF"/>
</svg>
