<svg width="20" height="21" viewBox="0 0 20 21" fill="none" xmlns="http://www.w3.org/2000/svg">
<path d="M19.9141 12.5566C19.9141 12.5566 19.9141 12.5534 19.9141 12.5469C19.9141 12.5404 19.9141 12.5371 19.9141 12.5371C19.9141 12.5371 19.9141 12.5339 19.9141 12.5273C19.9141 12.5208 19.9141 12.5176 19.9141 12.5176C19.9141 12.5176 19.9141 12.5111 19.9141 12.498C19.9141 12.498 19.9141 12.4948 19.9141 12.4883C19.9141 12.4818 19.9141 12.4785 19.9141 12.4785C19.901 12.4785 19.8945 12.4785 19.8945 12.4785C19.8945 12.4785 19.8945 12.472 19.8945 12.459C19.8945 12.459 19.8945 12.4557 19.8945 12.4492C19.8945 12.4427 19.8945 12.4395 19.8945 12.4395L17.6484 7.43945H19.2891C19.4323 7.43945 19.556 7.39062 19.6602 7.29297C19.7643 7.19531 19.8164 7.07487 19.8164 6.93164V6.22852C19.8164 6.08529 19.7643 5.96484 19.6602 5.86719C19.556 5.76953 19.4323 5.7207 19.2891 5.7207H16.6328C16.3854 5.7207 16.1478 5.67188 15.9199 5.57422C15.6921 5.47656 15.4935 5.33659 15.3242 5.1543C15.0247 4.82878 14.6699 4.58138 14.2598 4.41211C13.8496 4.24284 13.4232 4.1582 12.9805 4.1582H11.1445V3.51367C11.3138 3.38346 11.444 3.2207 11.5352 3.02539C11.6263 2.83008 11.6719 2.61523 11.6719 2.38086C11.6719 1.97721 11.5286 1.63216 11.2422 1.3457C10.9557 1.05924 10.6107 0.916016 10.207 0.916016C9.80339 0.916016 9.45833 1.05924 9.17188 1.3457C8.88542 1.63216 8.74219 1.97721 8.74219 2.38086C8.74219 2.61523 8.78776 2.83008 8.87891 3.02539C8.97005 3.2207 9.10026 3.38346 9.26953 3.51367V4.1582H7.43359C6.99089 4.1582 6.56445 4.24284 6.1543 4.41211C5.74414 4.58138 5.38932 4.82878 5.08984 5.1543C4.92057 5.33659 4.72201 5.47656 4.49414 5.57422C4.26628 5.67188 4.02865 5.7207 3.78125 5.7207H1.125C0.981771 5.7207 0.858073 5.76953 0.753906 5.86719C0.64974 5.96484 0.597656 6.08529 0.597656 6.22852V6.93164C0.597656 7.07487 0.64974 7.19531 0.753906 7.29297C0.858073 7.39062 0.981771 7.43945 1.125 7.43945H2.76562L0.519531 12.4395C0.519531 12.4395 0.519531 12.4427 0.519531 12.4492C0.519531 12.4557 0.519531 12.459 0.519531 12.459C0.519531 12.472 0.519531 12.4785 0.519531 12.4785C0.519531 12.4785 0.513021 12.4785 0.5 12.4785C0.5 12.4785 0.5 12.4818 0.5 12.4883C0.5 12.4948 0.5 12.498 0.5 12.498C0.5 12.5111 0.5 12.5176 0.5 12.5176C0.5 12.5176 0.5 12.5208 0.5 12.5273C0.5 12.5339 0.5 12.5371 0.5 12.5371C0.5 12.5371 0.5 12.5404 0.5 12.5469C0.5 12.5534 0.5 12.5566 0.5 12.5566V12.8301C0.5 13.5592 0.757161 14.1777 1.27148 14.6855C1.78581 15.1934 2.40104 15.4473 3.11719 15.4473H3.33203C4.0612 15.4473 4.67969 15.1934 5.1875 14.6855C5.69531 14.1777 5.94922 13.5592 5.94922 12.8301V12.5566C5.94922 12.5566 5.94922 12.5534 5.94922 12.5469C5.94922 12.5404 5.94922 12.5371 5.94922 12.5371C5.94922 12.5371 5.94922 12.5339 5.94922 12.5273C5.94922 12.5208 5.94922 12.5176 5.94922 12.5176C5.94922 12.5176 5.94922 12.5111 5.94922 12.498C5.94922 12.498 5.94922 12.4948 5.94922 12.4883C5.94922 12.4818 5.94922 12.4785 5.94922 12.4785C5.94922 12.4785 5.94922 12.472 5.94922 12.459C5.94922 12.459 5.94596 12.459 5.93945 12.459C5.93294 12.459 5.92969 12.459 5.92969 12.459C5.92969 12.459 5.92969 12.4557 5.92969 12.4492C5.92969 12.4427 5.92969 12.4395 5.92969 12.4395L3.68359 7.43945H3.87891C4.33464 7.43945 4.76758 7.35482 5.17773 7.18555C5.58789 7.01628 5.94271 6.77539 6.24219 6.46289C6.41146 6.2806 6.61003 6.13737 6.83789 6.0332C7.06576 5.92904 7.30339 5.87695 7.55078 5.87695H9.26953V17.4004H6.30078C6.05339 17.4004 5.8418 17.4883 5.66602 17.6641C5.49023 17.8398 5.40234 18.0449 5.40234 18.2793V18.8066H4.91406C4.65365 18.8066 4.4388 18.8945 4.26953 19.0703C4.10026 19.2461 4.01562 19.4577 4.01562 19.7051V20.623C4.01562 20.7012 4.04167 20.7695 4.09375 20.8281C4.14583 20.8867 4.21094 20.916 4.28906 20.916H16.125C16.2031 20.916 16.2682 20.8867 16.3203 20.8281C16.3724 20.7695 16.3984 20.7012 16.3984 20.623V19.7051C16.3984 19.4577 16.3105 19.2461 16.1348 19.0703C15.959 18.8945 15.7474 18.8066 15.5 18.8066H15.0117V18.2793C15.0117 18.0449 14.9238 17.8398 14.748 17.6641C14.5723 17.4883 14.3607 17.4004 14.1133 17.4004H11.1445V9.04102C11.1445 8.96289 11.1152 8.89779 11.0566 8.8457C10.998 8.79362 10.9297 8.76758 10.8516 8.76758C10.7734 8.76758 10.7051 8.79362 10.6465 8.8457C10.5879 8.89779 10.5586 8.96289 10.5586 9.04102V17.4004H9.85547V5.87695H10.5586V7.22461C10.5586 7.30273 10.5879 7.37109 10.6465 7.42969C10.7051 7.48828 10.7734 7.51758 10.8516 7.51758C10.9297 7.51758 10.998 7.48828 11.0566 7.42969C11.1152 7.37109 11.1445 7.30273 11.1445 7.22461V5.87695H12.9805C13.1888 5.87695 13.3906 5.91927 13.5859 6.00391C13.7812 6.08854 13.9505 6.20898 14.0938 6.36523C14.4323 6.7168 14.8197 6.98372 15.2559 7.16602C15.6921 7.34831 16.151 7.43945 16.6328 7.43945H16.7305L14.4844 12.4395C14.4844 12.4395 14.4844 12.4427 14.4844 12.4492C14.4844 12.4557 14.4844 12.459 14.4844 12.459C14.4844 12.459 14.4811 12.459 14.4746 12.459C14.4681 12.459 14.4648 12.459 14.4648 12.459C14.4648 12.472 14.4648 12.4785 14.4648 12.4785C14.4648 12.4785 14.4648 12.4818 14.4648 12.4883C14.4648 12.4948 14.4648 12.498 14.4648 12.498C14.4648 12.5111 14.4648 12.5176 14.4648 12.5176C14.4648 12.5176 14.4648 12.5208 14.4648 12.5273C14.4648 12.5339 14.4648 12.5371 14.4648 12.5371C14.4648 12.5371 14.4648 12.5404 14.4648 12.5469C14.4648 12.5534 14.4648 12.5566 14.4648 12.5566V12.8301C14.4648 13.5592 14.7188 14.1777 15.2266 14.6855C15.7344 15.1934 16.3529 15.4473 17.082 15.4473H17.2969C18.013 15.4473 18.6283 15.1934 19.1426 14.6855C19.6569 14.1777 19.9141 13.5592 19.9141 12.8301V12.5566ZM10.207 1.48242C10.4544 1.48242 10.666 1.57031 10.8418 1.74609C11.0176 1.92188 11.1055 2.13346 11.1055 2.38086C11.1055 2.53711 11.0664 2.68359 10.9883 2.82031C10.9102 2.95703 10.8125 3.06445 10.6953 3.14258C10.6823 3.14258 10.6725 3.14258 10.666 3.14258C10.6595 3.14258 10.6562 3.14909 10.6562 3.16211C10.6562 3.16211 10.653 3.16211 10.6465 3.16211C10.64 3.16211 10.6367 3.16211 10.6367 3.16211C10.6237 3.16211 10.6139 3.16536 10.6074 3.17188C10.6009 3.17839 10.5977 3.18164 10.5977 3.18164C10.5846 3.18164 10.5781 3.1849 10.5781 3.19141C10.5781 3.19792 10.5781 3.20117 10.5781 3.20117C10.5651 3.20117 10.5553 3.20117 10.5488 3.20117C10.5423 3.20117 10.5391 3.20768 10.5391 3.2207C10.5391 3.2207 10.5358 3.2207 10.5293 3.2207C10.5228 3.2207 10.5195 3.2207 10.5195 3.2207C10.5065 3.2207 10.4967 3.22396 10.4902 3.23047C10.4837 3.23698 10.474 3.24023 10.4609 3.24023C10.4479 3.24023 10.4382 3.24023 10.4316 3.24023C10.4251 3.24023 10.4154 3.24674 10.4023 3.25977C10.3893 3.25977 10.3763 3.25977 10.3633 3.25977C10.3503 3.25977 10.3438 3.25977 10.3438 3.25977C10.3438 3.25977 10.3405 3.25977 10.334 3.25977C10.3275 3.25977 10.3242 3.25977 10.3242 3.25977C10.3242 3.25977 10.3177 3.26302 10.3047 3.26953C10.2917 3.27604 10.2852 3.2793 10.2852 3.2793C10.2852 3.2793 10.2819 3.2793 10.2754 3.2793C10.2689 3.2793 10.2656 3.2793 10.2656 3.2793C10.2526 3.2793 10.2428 3.2793 10.2363 3.2793C10.2298 3.2793 10.2201 3.2793 10.207 3.2793C10.194 3.2793 10.1842 3.2793 10.1777 3.2793C10.1712 3.2793 10.1615 3.2793 10.1484 3.2793C10.1484 3.2793 10.1452 3.2793 10.1387 3.2793C10.1322 3.2793 10.1289 3.2793 10.1289 3.2793C10.1289 3.2793 10.1224 3.27604 10.1094 3.26953C10.0964 3.26302 10.0898 3.25977 10.0898 3.25977C10.0898 3.25977 10.0866 3.25977 10.0801 3.25977C10.0736 3.25977 10.0703 3.25977 10.0703 3.25977C10.0703 3.25977 10.0638 3.25977 10.0508 3.25977C10.0378 3.25977 10.0247 3.25977 10.0117 3.25977C9.9987 3.24674 9.98893 3.24023 9.98242 3.24023C9.97591 3.24023 9.96615 3.24023 9.95312 3.24023C9.9401 3.24023 9.93034 3.23698 9.92383 3.23047C9.91732 3.22396 9.90755 3.2207 9.89453 3.2207C9.89453 3.2207 9.89128 3.2207 9.88477 3.2207C9.87826 3.2207 9.875 3.2207 9.875 3.2207C9.875 3.20768 9.87174 3.20117 9.86523 3.20117C9.85872 3.20117 9.84896 3.20117 9.83594 3.20117C9.83594 3.20117 9.83594 3.19792 9.83594 3.19141C9.83594 3.1849 9.82943 3.18164 9.81641 3.18164C9.81641 3.18164 9.81315 3.17839 9.80664 3.17188C9.80013 3.16536 9.79036 3.16211 9.77734 3.16211C9.77734 3.16211 9.77409 3.16211 9.76758 3.16211C9.76107 3.16211 9.75781 3.16211 9.75781 3.16211C9.75781 3.14909 9.75456 3.14258 9.74805 3.14258C9.74154 3.14258 9.73177 3.14258 9.71875 3.14258C9.60156 3.06445 9.50391 2.95703 9.42578 2.82031C9.34766 2.68359 9.30859 2.53711 9.30859 2.38086C9.30859 2.13346 9.39648 1.92188 9.57227 1.74609C9.74805 1.57031 9.95964 1.48242 10.207 1.48242ZM10.5586 3.80664V4.1582H9.85547V3.80664C9.86849 3.80664 9.88151 3.8099 9.89453 3.81641C9.90755 3.82292 9.92057 3.82617 9.93359 3.82617C9.93359 3.82617 9.9401 3.82617 9.95312 3.82617C9.96615 3.82617 9.97591 3.82943 9.98242 3.83594C9.98893 3.84245 9.9987 3.8457 10.0117 3.8457C10.0117 3.8457 10.015 3.8457 10.0215 3.8457C10.028 3.8457 10.0312 3.8457 10.0312 3.8457C10.0573 3.8457 10.0866 3.8457 10.1191 3.8457C10.1517 3.8457 10.181 3.8457 10.207 3.8457C10.2201 3.8457 10.2363 3.8457 10.2559 3.8457C10.2754 3.8457 10.2917 3.8457 10.3047 3.8457C10.3177 3.8457 10.3307 3.8457 10.3438 3.8457C10.3568 3.8457 10.3698 3.8457 10.3828 3.8457C10.3828 3.8457 10.3861 3.8457 10.3926 3.8457C10.3991 3.8457 10.4023 3.8457 10.4023 3.8457C10.4154 3.8457 10.4251 3.84245 10.4316 3.83594C10.4382 3.82943 10.4479 3.82617 10.4609 3.82617C10.474 3.82617 10.4805 3.82617 10.4805 3.82617C10.4935 3.82617 10.5065 3.82292 10.5195 3.81641C10.5326 3.8099 10.5456 3.80664 10.5586 3.80664ZM3.33203 14.8809H3.11719C2.55729 14.8809 2.07878 14.6823 1.68164 14.2852C1.28451 13.888 1.08594 13.4095 1.08594 12.8496H5.38281C5.38281 13.4095 5.18099 13.888 4.77734 14.2852C4.3737 14.6823 3.89193 14.8809 3.33203 14.8809ZM5.22656 12.2637H1.24219L3.21484 7.84961L5.22656 12.2637ZM14.1133 17.9863C14.2044 17.9863 14.2793 18.0156 14.3379 18.0742C14.3965 18.1328 14.4258 18.2012 14.4258 18.2793V18.8066H8.39062C8.3125 18.8066 8.24414 18.8359 8.18555 18.8945C8.12695 18.9531 8.09766 19.0215 8.09766 19.0996C8.09766 19.1777 8.12695 19.2428 8.18555 19.2949C8.24414 19.347 8.3125 19.373 8.39062 19.373H15.5C15.5911 19.373 15.6693 19.4056 15.7344 19.4707C15.7995 19.5358 15.832 19.6139 15.832 19.7051V20.3301H4.58203V19.7051C4.58203 19.6139 4.61458 19.5358 4.67969 19.4707C4.74479 19.4056 4.82292 19.373 4.91406 19.373H6.55469C6.63281 19.373 6.69792 19.347 6.75 19.2949C6.80208 19.2428 6.82812 19.1777 6.82812 19.0996C6.82812 19.0215 6.80208 18.9531 6.75 18.8945C6.69792 18.8359 6.63281 18.8066 6.55469 18.8066H5.98828V18.2793C5.98828 18.2012 6.01758 18.1328 6.07617 18.0742C6.13477 18.0156 6.20964 17.9863 6.30078 17.9863H14.1133ZM16.6328 6.87305C16.2292 6.87305 15.8451 6.79492 15.4805 6.63867C15.1159 6.48242 14.7904 6.25456 14.5039 5.95508C14.3086 5.74674 14.0775 5.58724 13.8105 5.47656C13.5436 5.36589 13.2669 5.31055 12.9805 5.31055H7.55078C7.21224 5.31055 6.89323 5.37565 6.59375 5.50586C6.29427 5.63607 6.03385 5.81836 5.8125 6.05273C5.5651 6.31315 5.27539 6.51497 4.94336 6.6582C4.61133 6.80143 4.25651 6.87305 3.87891 6.87305H1.18359V6.28711H3.78125C4.10677 6.28711 4.41927 6.22526 4.71875 6.10156C5.01823 5.97786 5.28516 5.79232 5.51953 5.54492C5.75391 5.28451 6.04036 5.08594 6.37891 4.94922C6.71745 4.8125 7.06901 4.74414 7.43359 4.74414H12.9805C13.3451 4.74414 13.6966 4.8125 14.0352 4.94922C14.3737 5.08594 14.6602 5.28451 14.8945 5.54492C15.1289 5.79232 15.3958 5.97786 15.6953 6.10156C15.9948 6.22526 16.3073 6.28711 16.6328 6.28711H19.2305V6.87305H16.6328ZM17.1797 7.84961L19.1719 12.2637H15.1875L17.1797 7.84961ZM17.2969 14.8809H17.082C16.5221 14.8809 16.0404 14.6823 15.6367 14.2852C15.2331 13.888 15.0312 13.4095 15.0312 12.8496H19.3281C19.3281 13.4095 19.1296 13.888 18.7324 14.2852C18.3353 14.6823 17.8568 14.8809 17.2969 14.8809Z" fill="#F8F8FF"/>
</svg>
