<svg width="21" height="21" viewBox="0 0 21 21" fill="none" xmlns="http://www.w3.org/2000/svg">
<g clip-path="url(#clip0_1_104)">
<path d="M19.9141 12.1667C19.9141 12.1667 19.9141 12.1635 19.9141 12.157C19.9141 12.1505 19.9141 12.1472 19.9141 12.1472C19.9141 12.1472 19.9141 12.144 19.9141 12.1375C19.9141 12.1309 19.9141 12.1277 19.9141 12.1277C19.9141 12.1277 19.9141 12.1212 19.9141 12.1082C19.9141 12.1082 19.9141 12.1049 19.9141 12.0984C19.9141 12.0919 19.9141 12.0886 19.9141 12.0886C19.901 12.0886 19.8945 12.0886 19.8945 12.0886C19.8945 12.0886 19.8945 12.0821 19.8945 12.0691C19.8945 12.0691 19.8945 12.0658 19.8945 12.0593C19.8945 12.0528 19.8945 12.0496 19.8945 12.0496L17.6484 7.04956H19.2891C19.4323 7.04956 19.556 7.00073 19.6602 6.90308C19.7643 6.80542 19.8164 6.68498 19.8164 6.54175V5.83862C19.8164 5.69539 19.7643 5.57495 19.6602 5.47729C19.556 5.37964 19.4323 5.33081 19.2891 5.33081H16.6328C16.3854 5.33081 16.1478 5.28198 15.9199 5.18433C15.6921 5.08667 15.4935 4.9467 15.3242 4.7644C15.0247 4.43888 14.6699 4.19149 14.2598 4.02222C13.8496 3.85295 13.4232 3.76831 12.9805 3.76831H11.1445V3.12378C11.3138 2.99357 11.444 2.83081 11.5352 2.6355C11.6263 2.44019 11.6719 2.22534 11.6719 1.99097C11.6719 1.58732 11.5286 1.24227 11.2422 0.955811C10.9557 0.669352 10.6107 0.526123 10.207 0.526123C9.80339 0.526123 9.45833 0.669352 9.17188 0.955811C8.88542 1.24227 8.74219 1.58732 8.74219 1.99097C8.74219 2.22534 8.78776 2.44019 8.87891 2.6355C8.97005 2.83081 9.10026 2.99357 9.26953 3.12378V3.76831H7.43359C6.99089 3.76831 6.56445 3.85295 6.1543 4.02222C5.74414 4.19149 5.38932 4.43888 5.08984 4.7644C4.92057 4.9467 4.72201 5.08667 4.49414 5.18433C4.26628 5.28198 4.02865 5.33081 3.78125 5.33081H1.125C0.981771 5.33081 0.858073 5.37964 0.753906 5.47729C0.64974 5.57495 0.597656 5.69539 0.597656 5.83862V6.54175C0.597656 6.68498 0.64974 6.80542 0.753906 6.90308C0.858073 7.00073 0.981771 7.04956 1.125 7.04956H2.76562L0.519531 12.0496C0.519531 12.0496 0.519531 12.0528 0.519531 12.0593C0.519531 12.0658 0.519531 12.0691 0.519531 12.0691C0.519531 12.0821 0.519531 12.0886 0.519531 12.0886C0.519531 12.0886 0.513021 12.0886 0.5 12.0886C0.5 12.0886 0.5 12.0919 0.5 12.0984C0.5 12.1049 0.5 12.1082 0.5 12.1082C0.5 12.1212 0.5 12.1277 0.5 12.1277C0.5 12.1277 0.5 12.1309 0.5 12.1375C0.5 12.144 0.5 12.1472 0.5 12.1472C0.5 12.1472 0.5 12.1505 0.5 12.157C0.5 12.1635 0.5 12.1667 0.5 12.1667V12.4402C0.5 13.1694 0.757161 13.7878 1.27148 14.2957C1.78581 14.8035 2.40104 15.0574 3.11719 15.0574H3.33203C4.0612 15.0574 4.67969 14.8035 5.1875 14.2957C5.69531 13.7878 5.94922 13.1694 5.94922 12.4402V12.1667C5.94922 12.1667 5.94922 12.1635 5.94922 12.157C5.94922 12.1505 5.94922 12.1472 5.94922 12.1472C5.94922 12.1472 5.94922 12.144 5.94922 12.1375C5.94922 12.1309 5.94922 12.1277 5.94922 12.1277C5.94922 12.1277 5.94922 12.1212 5.94922 12.1082C5.94922 12.1082 5.94922 12.1049 5.94922 12.0984C5.94922 12.0919 5.94922 12.0886 5.94922 12.0886C5.94922 12.0886 5.94922 12.0821 5.94922 12.0691C5.94922 12.0691 5.94596 12.0691 5.93945 12.0691C5.93294 12.0691 5.92969 12.0691 5.92969 12.0691C5.92969 12.0691 5.92969 12.0658 5.92969 12.0593C5.92969 12.0528 5.92969 12.0496 5.92969 12.0496L3.68359 7.04956H3.87891C4.33464 7.04956 4.76758 6.96492 5.17773 6.79565C5.58789 6.62638 5.94271 6.3855 6.24219 6.073C6.41146 5.89071 6.61003 5.74748 6.83789 5.64331C7.06576 5.53914 7.30339 5.48706 7.55078 5.48706H9.26953V17.0105H6.30078C6.05339 17.0105 5.8418 17.0984 5.66602 17.2742C5.49023 17.45 5.40234 17.655 5.40234 17.8894V18.4167H4.91406C4.65365 18.4167 4.4388 18.5046 4.26953 18.6804C4.10026 18.8562 4.01562 19.0678 4.01562 19.3152V20.2332C4.01562 20.3113 4.04167 20.3796 4.09375 20.4382C4.14583 20.4968 4.21094 20.5261 4.28906 20.5261H16.125C16.2031 20.5261 16.2682 20.4968 16.3203 20.4382C16.3724 20.3796 16.3984 20.3113 16.3984 20.2332V19.3152C16.3984 19.0678 16.3105 18.8562 16.1348 18.6804C15.959 18.5046 15.7474 18.4167 15.5 18.4167H15.0117V17.8894C15.0117 17.655 14.9238 17.45 14.748 17.2742C14.5723 17.0984 14.3607 17.0105 14.1133 17.0105H11.1445V8.65112C11.1445 8.573 11.1152 8.50789 11.0566 8.45581C10.998 8.40373 10.9297 8.37769 10.8516 8.37769C10.7734 8.37769 10.7051 8.40373 10.6465 8.45581C10.5879 8.50789 10.5586 8.573 10.5586 8.65112V17.0105H9.85547V5.48706H10.5586V6.83472C10.5586 6.91284 10.5879 6.9812 10.6465 7.03979C10.7051 7.09839 10.7734 7.12769 10.8516 7.12769C10.9297 7.12769 10.998 7.09839 11.0566 7.03979C11.1152 6.9812 11.1445 6.91284 11.1445 6.83472V5.48706H12.9805C13.1888 5.48706 13.3906 5.52938 13.5859 5.61401C13.7812 5.69865 13.9505 5.81909 14.0938 5.97534C14.4323 6.3269 14.8197 6.59383 15.2559 6.77612C15.6921 6.95842 16.151 7.04956 16.6328 7.04956H16.7305L14.4844 12.0496C14.4844 12.0496 14.4844 12.0528 14.4844 12.0593C14.4844 12.0658 14.4844 12.0691 14.4844 12.0691C14.4844 12.0691 14.4811 12.0691 14.4746 12.0691C14.4681 12.0691 14.4648 12.0691 14.4648 12.0691C14.4648 12.0821 14.4648 12.0886 14.4648 12.0886C14.4648 12.0886 14.4648 12.0919 14.4648 12.0984C14.4648 12.1049 14.4648 12.1082 14.4648 12.1082C14.4648 12.1212 14.4648 12.1277 14.4648 12.1277C14.4648 12.1277 14.4648 12.1309 14.4648 12.1375C14.4648 12.144 14.4648 12.1472 14.4648 12.1472C14.4648 12.1472 14.4648 12.1505 14.4648 12.157C14.4648 12.1635 14.4648 12.1667 14.4648 12.1667V12.4402C14.4648 13.1694 14.7188 13.7878 15.2266 14.2957C15.7344 14.8035 16.3529 15.0574 17.082 15.0574H17.2969C18.013 15.0574 18.6283 14.8035 19.1426 14.2957C19.6569 13.7878 19.9141 13.1694 19.9141 12.4402V12.1667ZM10.207 1.09253C10.4544 1.09253 10.666 1.18042 10.8418 1.3562C11.0176 1.53198 11.1055 1.74357 11.1055 1.99097C11.1055 2.14722 11.0664 2.2937 10.9883 2.43042C10.9102 2.56714 10.8125 2.67456 10.6953 2.75269C10.6823 2.75269 10.6725 2.75269 10.666 2.75269C10.6595 2.75269 10.6562 2.7592 10.6562 2.77222C10.6562 2.77222 10.653 2.77222 10.6465 2.77222C10.64 2.77222 10.6367 2.77222 10.6367 2.77222C10.6237 2.77222 10.6139 2.77547 10.6074 2.78198C10.6009 2.78849 10.5977 2.79175 10.5977 2.79175C10.5846 2.79175 10.5781 2.795 10.5781 2.80151C10.5781 2.80802 10.5781 2.81128 10.5781 2.81128C10.5651 2.81128 10.5553 2.81128 10.5488 2.81128C10.5423 2.81128 10.5391 2.81779 10.5391 2.83081C10.5391 2.83081 10.5358 2.83081 10.5293 2.83081C10.5228 2.83081 10.5195 2.83081 10.5195 2.83081C10.5065 2.83081 10.4967 2.83407 10.4902 2.84058C10.4837 2.84709 10.474 2.85034 10.4609 2.85034C10.4479 2.85034 10.4382 2.85034 10.4316 2.85034C10.4251 2.85034 10.4154 2.85685 10.4023 2.86987C10.3893 2.86987 10.3763 2.86987 10.3633 2.86987C10.3503 2.86987 10.3438 2.86987 10.3438 2.86987C10.3438 2.86987 10.3405 2.86987 10.334 2.86987C10.3275 2.86987 10.3242 2.86987 10.3242 2.86987C10.3242 2.86987 10.3177 2.87313 10.3047 2.87964C10.2917 2.88615 10.2852 2.8894 10.2852 2.8894C10.2852 2.8894 10.2819 2.8894 10.2754 2.8894C10.2689 2.8894 10.2656 2.8894 10.2656 2.8894C10.2526 2.8894 10.2428 2.8894 10.2363 2.8894C10.2298 2.8894 10.2201 2.8894 10.207 2.8894C10.194 2.8894 10.1842 2.8894 10.1777 2.8894C10.1712 2.8894 10.1615 2.8894 10.1484 2.8894C10.1484 2.8894 10.1452 2.8894 10.1387 2.8894C10.1322 2.8894 10.1289 2.8894 10.1289 2.8894C10.1289 2.8894 10.1224 2.88615 10.1094 2.87964C10.0964 2.87313 10.0898 2.86987 10.0898 2.86987C10.0898 2.86987 10.0866 2.86987 10.0801 2.86987C10.0736 2.86987 10.0703 2.86987 10.0703 2.86987C10.0703 2.86987 10.0638 2.86987 10.0508 2.86987C10.0378 2.86987 10.0247 2.86987 10.0117 2.86987C9.9987 2.85685 9.98893 2.85034 9.98242 2.85034C9.97591 2.85034 9.96615 2.85034 9.95312 2.85034C9.9401 2.85034 9.93034 2.84709 9.92383 2.84058C9.91732 2.83407 9.90755 2.83081 9.89453 2.83081C9.89453 2.83081 9.89128 2.83081 9.88477 2.83081C9.87825 2.83081 9.875 2.83081 9.875 2.83081C9.875 2.81779 9.87175 2.81128 9.86523 2.81128C9.85872 2.81128 9.84896 2.81128 9.83594 2.81128C9.83594 2.81128 9.83594 2.80802 9.83594 2.80151C9.83594 2.795 9.82943 2.79175 9.81641 2.79175C9.81641 2.79175 9.81315 2.78849 9.80664 2.78198C9.80013 2.77547 9.79036 2.77222 9.77734 2.77222C9.77734 2.77222 9.77409 2.77222 9.76758 2.77222C9.76107 2.77222 9.75781 2.77222 9.75781 2.77222C9.75781 2.7592 9.75456 2.75269 9.74805 2.75269C9.74154 2.75269 9.73177 2.75269 9.71875 2.75269C9.60156 2.67456 9.50391 2.56714 9.42578 2.43042C9.34766 2.2937 9.30859 2.14722 9.30859 1.99097C9.30859 1.74357 9.39648 1.53198 9.57227 1.3562C9.74805 1.18042 9.95964 1.09253 10.207 1.09253ZM10.5586 3.41675V3.76831H9.85547V3.41675C9.86849 3.41675 9.88151 3.42 9.89453 3.42651C9.90755 3.43302 9.92057 3.43628 9.93359 3.43628C9.93359 3.43628 9.9401 3.43628 9.95312 3.43628C9.96615 3.43628 9.97591 3.43954 9.98242 3.44604C9.98893 3.45255 9.9987 3.45581 10.0117 3.45581C10.0117 3.45581 10.015 3.45581 10.0215 3.45581C10.028 3.45581 10.0312 3.45581 10.0312 3.45581C10.0573 3.45581 10.0866 3.45581 10.1191 3.45581C10.1517 3.45581 10.181 3.45581 10.207 3.45581C10.2201 3.45581 10.2363 3.45581 10.2559 3.45581C10.2754 3.45581 10.2917 3.45581 10.3047 3.45581C10.3177 3.45581 10.3307 3.45581 10.3438 3.45581C10.3568 3.45581 10.3698 3.45581 10.3828 3.45581C10.3828 3.45581 10.3861 3.45581 10.3926 3.45581C10.3991 3.45581 10.4023 3.45581 10.4023 3.45581C10.4154 3.45581 10.4251 3.45255 10.4316 3.44604C10.4382 3.43954 10.4479 3.43628 10.4609 3.43628C10.474 3.43628 10.4805 3.43628 10.4805 3.43628C10.4935 3.43628 10.5065 3.43302 10.5195 3.42651C10.5326 3.42 10.5456 3.41675 10.5586 3.41675ZM3.33203 14.491H3.11719C2.55729 14.491 2.07878 14.2924 1.68164 13.8953C1.28451 13.4981 1.08594 13.0196 1.08594 12.4597H5.38281C5.38281 13.0196 5.18099 13.4981 4.77734 13.8953C4.3737 14.2924 3.89193 14.491 3.33203 14.491ZM5.22656 11.8738H1.24219L3.21484 7.45972L5.22656 11.8738ZM14.1133 17.5964C14.2044 17.5964 14.2793 17.6257 14.3379 17.6843C14.3965 17.7429 14.4258 17.8113 14.4258 17.8894V18.4167H8.39062C8.3125 18.4167 8.24414 18.446 8.18555 18.5046C8.12695 18.5632 8.09766 18.6316 8.09766 18.7097C8.09766 18.7878 8.12695 18.8529 8.18555 18.905C8.24414 18.9571 8.3125 18.9832 8.39062 18.9832H15.5C15.5911 18.9832 15.6693 19.0157 15.7344 19.0808C15.7995 19.1459 15.832 19.224 15.832 19.3152V19.9402H4.58203V19.3152C4.58203 19.224 4.61458 19.1459 4.67969 19.0808C4.74479 19.0157 4.82292 18.9832 4.91406 18.9832H6.55469C6.63281 18.9832 6.69792 18.9571 6.75 18.905C6.80208 18.8529 6.82812 18.7878 6.82812 18.7097C6.82812 18.6316 6.80208 18.5632 6.75 18.5046C6.69792 18.446 6.63281 18.4167 6.55469 18.4167H5.98828V17.8894C5.98828 17.8113 6.01758 17.7429 6.07617 17.6843C6.13477 17.6257 6.20964 17.5964 6.30078 17.5964H14.1133ZM16.6328 6.48315C16.2292 6.48315 15.8451 6.40503 15.4805 6.24878C15.1159 6.09253 14.7904 5.86467 14.5039 5.56519C14.3086 5.35685 14.0775 5.19735 13.8105 5.08667C13.5436 4.97599 13.2669 4.92065 12.9805 4.92065H7.55078C7.21224 4.92065 6.89323 4.98576 6.59375 5.11597C6.29427 5.24617 6.03385 5.42847 5.8125 5.66284C5.5651 5.92326 5.27539 6.12508 4.94336 6.26831C4.61133 6.41154 4.25651 6.48315 3.87891 6.48315H1.18359V5.89722H3.78125C4.10677 5.89722 4.41927 5.83537 4.71875 5.71167C5.01823 5.58797 5.28516 5.40242 5.51953 5.15503C5.75391 4.89461 6.04036 4.69604 6.37891 4.55933C6.71745 4.42261 7.06901 4.35425 7.43359 4.35425H12.9805C13.3451 4.35425 13.6966 4.42261 14.0352 4.55933C14.3737 4.69604 14.6602 4.89461 14.8945 5.15503C15.1289 5.40242 15.3958 5.58797 15.6953 5.71167C15.9948 5.83537 16.3073 5.89722 16.6328 5.89722H19.2305V6.48315H16.6328ZM17.1797 7.45972L19.1719 11.8738H15.1875L17.1797 7.45972ZM17.2969 14.491H17.082C16.5221 14.491 16.0404 14.2924 15.6367 13.8953C15.2331 13.4981 15.0312 13.0196 15.0312 12.4597H19.3281C19.3281 13.0196 19.1296 13.4981 18.7324 13.8953C18.3353 14.2924 17.8568 14.491 17.2969 14.491Z" fill="#977018"/>
</g>
<defs>
<clipPath id="clip0_1_104">
<rect width="20" height="20.2539" fill="white" transform="matrix(1 0 0 -1 0.5 20.5261)"/>
</clipPath>
</defs>
</svg>
