<svg width="42" height="51" viewBox="0 0 42 51" fill="none" xmlns="http://www.w3.org/2000/svg">
<path d="M38.9766 5.22363L22.7168 0.438477C22.0658 0.243164 21.4147 0.145508 20.7637 0.145508C20.1126 0.145508 19.4616 0.243164 18.8105 0.438477L2.55078 5.22363C1.96484 5.38639 1.47656 5.72005 1.08594 6.22461C0.695312 6.72917 0.5 7.30696 0.5 7.95801V21.4346C0.5 22.9971 0.613932 24.527 0.841797 26.0244C1.06966 27.5544 1.41146 29.0518 1.86719 30.5166C2.32292 31.9814 2.89258 33.4137 3.57617 34.8135C4.22721 36.1807 4.99219 37.499 5.87109 38.7686C6.75 40.0381 7.69401 41.2262 8.70312 42.333C9.71224 43.4398 10.8027 44.457 11.9746 45.3848C13.1465 46.3125 14.3672 47.167 15.6367 47.9482C16.9388 48.6969 18.2897 49.348 19.6895 49.9014C19.8522 49.999 20.0231 50.0641 20.2021 50.0967C20.3812 50.1292 20.5684 50.1455 20.7637 50.1455C20.959 50.1455 21.1462 50.1292 21.3252 50.0967C21.5042 50.0641 21.6751 49.999 21.8379 49.9014C23.2376 49.348 24.5885 48.6969 25.8906 47.9482C27.1602 47.167 28.3809 46.3125 29.5527 45.3848C30.7246 44.457 31.8151 43.4398 32.8242 42.333C33.8333 41.2262 34.7773 40.0381 35.6562 38.7686C36.5352 37.499 37.3001 36.1807 37.9512 34.8135C38.6348 33.4137 39.2044 31.9814 39.6602 30.5166C40.1159 29.0518 40.4577 27.5544 40.6855 26.0244C40.9134 24.527 41.0273 22.9971 41.0273 21.4346V7.95801C41.0273 7.30696 40.832 6.72917 40.4414 6.22461C40.0508 5.72005 39.5625 5.38639 38.9766 5.22363ZM38.7324 21.4346C38.7324 22.8669 38.6185 24.2829 38.3906 25.6826C38.1953 27.1149 37.8861 28.5065 37.4629 29.8574C37.0397 31.2083 36.5189 32.5186 35.9004 33.7881C35.2819 35.0902 34.5658 36.3271 33.752 37.499C32.9707 38.6709 32.1081 39.7614 31.1641 40.7705C30.2201 41.7796 29.2109 42.7236 28.1367 43.6025C27.0625 44.4814 25.9232 45.2627 24.7188 45.9463C23.5143 46.6624 22.2611 47.2809 20.959 47.8018C20.8939 47.8343 20.8288 47.8506 20.7637 47.8506C20.6986 47.8506 20.6335 47.8343 20.5684 47.8018C19.2663 47.2809 18.013 46.6624 16.8086 45.9463C15.6042 45.2627 14.4648 44.4814 13.3906 43.6025C12.3164 42.7236 11.3073 41.7796 10.3633 40.7705C9.41927 39.7614 8.55664 38.6709 7.77539 37.499C6.96159 36.3271 6.24544 35.0902 5.62695 33.7881C5.00846 32.5186 4.48763 31.2083 4.06445 29.8574C3.64128 28.5065 3.33203 27.1149 3.13672 25.6826C2.90885 24.2829 2.79492 22.8669 2.79492 21.4346V7.95801C2.79492 7.8278 2.83561 7.71387 2.91699 7.61621C2.99837 7.51855 3.08789 7.45345 3.18555 7.4209L19.4941 2.58691C19.6895 2.52181 19.8929 2.47298 20.1045 2.44043C20.3161 2.40788 20.5358 2.3916 20.7637 2.3916C20.9915 2.3916 21.2113 2.40788 21.4229 2.44043C21.6344 2.47298 21.8379 2.52181 22.0332 2.58691L38.3418 7.4209C38.4395 7.45345 38.529 7.51855 38.6104 7.61621C38.6917 7.71387 38.7324 7.8278 38.7324 7.95801V21.4346ZM33.3613 10.2529L21.252 6.68848C21.0892 6.62337 20.9264 6.59082 20.7637 6.59082C20.6009 6.59082 20.4382 6.62337 20.2754 6.68848L8.16602 10.2529C7.80794 10.3506 7.51497 10.554 7.28711 10.8633C7.05924 11.1725 6.94531 11.5062 6.94531 11.8643V21.4346C6.94531 23.9411 7.31966 26.3825 8.06836 28.7588C8.81706 31.1351 9.90755 33.3486 11.3398 35.3994C12.4466 36.9945 13.7324 38.4349 15.1973 39.7207C16.6621 41.0065 18.2572 42.1051 19.9824 43.0166C20.1126 43.0817 20.2428 43.1305 20.373 43.1631C20.5033 43.1956 20.6335 43.2119 20.7637 43.2119C20.8939 43.2119 21.0241 43.1956 21.1543 43.1631C21.2845 43.1305 21.4147 43.0817 21.5449 43.0166C23.2702 42.1051 24.8652 41.0065 26.3301 39.7207C27.7949 38.4349 29.0807 36.9945 30.1875 35.3994C31.6198 33.3486 32.7103 31.1351 33.459 28.7588C34.2077 26.3825 34.582 23.9411 34.582 21.4346V11.8643C34.582 11.5062 34.4681 11.1725 34.2402 10.8633C34.0124 10.554 33.7194 10.3506 33.3613 10.2529ZM32.3359 21.4346C32.3359 23.7132 31.9941 25.9268 31.3105 28.0752C30.627 30.2236 29.6341 32.2256 28.332 34.0811C27.3555 35.4808 26.2243 36.7585 24.9385 37.9141C23.6527 39.0697 22.2611 40.0381 20.7637 40.8193C19.2663 40.0381 17.8747 39.0697 16.5889 37.9141C15.3031 36.7585 14.1719 35.4808 13.1953 34.0811C11.8932 32.2256 10.9004 30.2236 10.2168 28.0752C9.5332 25.9268 9.19141 23.7132 9.19141 21.4346V12.3037L20.7637 8.88574L32.3359 12.3037V21.4346Z" fill="#977018"/>
</svg>
