<svg width="51" height="51" viewBox="0 0 51 51" fill="none" xmlns="http://www.w3.org/2000/svg">
<path d="M49.6158 6.34657L45.026 6.15125L44.9283 1.65907C44.9283 1.4312 44.8307 1.21148 44.6354 0.999886C44.4401 0.788296 44.2122 0.715054 43.9518 0.780159C43.8541 0.780159 43.7402 0.804573 43.61 0.853401C43.4798 0.902229 43.3658 0.975471 43.2682 1.07313L34.9186 9.42274C34.8209 9.52039 34.7477 9.63433 34.6988 9.76453C34.65 9.89474 34.6256 10.0087 34.6256 10.1063V11.0829C32.1516 9.39019 29.4986 8.25086 26.6666 7.66492C23.8346 7.11154 21.0514 7.07899 18.317 7.56727C15.5826 8.05555 13.011 9.06466 10.6022 10.5946C8.16076 12.1246 6.07742 14.1102 4.35216 16.5516C2.65946 18.993 1.52013 21.6298 0.934195 24.4618C0.380809 27.2938 0.356395 30.077 0.860952 32.8114C1.36551 35.5458 2.38276 38.1337 3.91271 40.5751C5.44266 43.0165 7.44461 45.0998 9.91857 46.8251C12.3925 48.5178 15.0455 49.6571 17.8776 50.2431C20.677 50.7964 23.444 50.8209 26.1783 50.3163C28.9127 49.8117 31.5006 48.7945 33.942 47.2645C36.3834 45.7346 38.4667 43.7326 40.192 41.2587C41.4615 39.4032 42.4218 37.4175 43.0729 35.3016C43.7239 33.1858 44.0494 31.0536 44.0494 28.9052C44.0494 26.7567 43.7239 24.6246 43.0729 22.5087C42.4218 20.3928 41.4615 18.4071 40.192 16.5516H41.1686C41.3313 16.5516 41.4615 16.5272 41.5592 16.4784C41.6569 16.4296 41.7545 16.3563 41.8522 16.2587L50.2018 7.90907C50.3971 7.71375 50.4947 7.48589 50.4947 7.22547C50.4947 6.96505 50.3971 6.73719 50.2018 6.54188C50.1041 6.47677 50.0065 6.42794 49.9088 6.39539C49.8111 6.36284 49.7135 6.34657 49.6158 6.34657ZM42.1451 28.954C42.1451 31.7209 41.6406 34.3088 40.6315 36.7177C39.5898 39.1265 38.1738 41.2261 36.3834 43.0165C34.5931 44.8069 32.4934 46.2229 30.0846 47.2645C27.6757 48.2737 25.0878 48.7782 22.3209 48.7782C19.554 48.7782 16.9661 48.2737 14.5572 47.2645C12.1484 46.2229 10.0488 44.8069 8.25841 43.0165C6.46805 41.2261 5.05203 39.1265 4.01037 36.7177C3.00125 34.3088 2.49669 31.7209 2.49669 28.954C2.49669 26.1871 3.00125 23.5992 4.01037 21.1903C5.05203 18.7815 6.46805 16.6819 8.25841 14.8915C10.0488 13.1011 12.1484 11.6851 14.5572 10.6434C16.9661 9.63433 19.554 9.12977 22.3209 9.12977C24.5996 9.12977 26.805 9.50412 28.9371 10.2528C31.0693 11.0015 33.0306 12.0757 34.8209 13.4755V15.0868L31.0611 18.9442C29.694 17.7072 28.1803 16.8283 26.5201 16.3075C24.8274 15.7541 23.1347 15.5344 21.442 15.6483C19.7493 15.7623 18.1217 16.1936 16.5592 16.9423C14.9641 17.691 13.5807 18.7489 12.4088 20.1161C11.2044 21.4833 10.3417 22.997 9.82091 24.6571C9.26753 26.3498 9.0478 28.0425 9.16173 29.7352C9.27567 31.4279 9.70698 33.0556 10.4557 34.6181C11.1718 36.2131 12.2135 37.5966 13.5807 38.7684C14.9479 39.9729 16.4615 40.8355 18.1217 41.3563C19.8144 41.9097 21.5071 42.1294 23.1998 42.0155C24.8925 41.9016 26.5201 41.4703 28.0826 40.7216C29.6777 40.0054 31.0611 38.9638 32.233 37.5966C33.3398 36.3596 34.1536 34.9924 34.6744 33.495C35.2278 31.9976 35.5126 30.4839 35.5289 28.954C35.5452 27.424 35.2766 25.9104 34.7233 24.413C34.2024 22.9156 33.4049 21.5484 32.3307 20.3114L36.1881 16.454L37.7994 16.5516C39.1992 18.2769 40.2734 20.2056 41.0221 22.3378C41.7708 24.4699 42.1451 26.6753 42.1451 28.954ZM21.735 29.5399C21.9303 29.7352 22.1582 29.8329 22.4186 29.8329C22.679 29.8329 22.9069 29.7352 23.1022 29.5399L25.1041 27.6845C25.2018 27.8798 25.275 28.0751 25.3238 28.2704C25.3727 28.4657 25.3971 28.6936 25.3971 28.954C25.3971 29.7352 25.1123 30.4107 24.5426 30.9804C23.9729 31.55 23.2975 31.8674 22.5162 31.9325C21.735 31.9325 21.0595 31.6477 20.4899 31.078C19.9202 30.5084 19.6028 29.8329 19.5377 29.0516C19.5377 28.2704 19.8225 27.5949 20.3922 27.0253C20.9619 26.4556 21.6373 26.1382 22.4186 26.0731C22.6139 26.0731 22.8255 26.0975 23.0533 26.1464C23.2812 26.1952 23.4928 26.2684 23.6881 26.3661L21.735 28.2704C21.5397 28.4006 21.442 28.5959 21.442 28.8563C21.442 29.1167 21.5397 29.3446 21.735 29.5399ZM25.0065 24.8036C23.8997 24.0549 22.7034 23.8108 21.4176 24.0712C20.1318 24.3316 19.1145 24.9989 18.3658 26.0731C17.6171 27.1799 17.373 28.3762 17.6334 29.662C17.8938 30.9478 18.5611 31.9651 19.6354 32.7138C20.7421 33.4625 21.9384 33.7066 23.2242 33.4462C24.51 33.1858 25.5273 32.5184 26.276 31.4442C26.8294 30.6304 27.1061 29.7515 27.1061 28.8075C27.1061 27.8635 26.8294 26.9846 26.276 26.1708L30.8658 21.6298C31.8424 22.8016 32.5423 24.1037 32.9654 25.536C33.3886 26.9683 33.5432 28.4006 33.4293 29.8329C33.3154 31.2652 32.9166 32.6487 32.233 33.9833C31.582 35.3179 30.6542 36.4898 29.4498 37.4989C28.2779 38.4755 26.9759 39.1753 25.5436 39.5985C24.1113 40.0217 22.6708 40.1763 21.2223 40.0624C19.7737 39.9485 18.3984 39.5497 17.0963 38.8661C15.7617 38.2151 14.5898 37.2873 13.5807 36.0829C12.6041 34.911 11.9042 33.6089 11.4811 32.1766C11.0579 30.7444 10.9033 29.3039 11.0172 27.8554C11.1311 26.4068 11.5299 25.0315 12.2135 23.7294C12.8645 22.3947 13.7923 21.2229 14.9967 20.2138C16.0384 19.3348 17.1777 18.6675 18.4147 18.2118C19.6516 17.7561 20.9212 17.5282 22.2233 17.5282C23.5253 17.5282 24.7949 17.7561 26.0319 18.2118C27.2688 18.6675 28.4082 19.3348 29.4498 20.2138L25.0065 24.8036ZM40.8756 14.5497L36.8229 14.452L36.7252 10.3993L43.1705 3.95399V7.12782C43.1705 7.38823 43.26 7.6161 43.4391 7.81141C43.6181 8.00672 43.8541 8.10438 44.1471 8.10438L47.3209 8.20203L40.8756 14.5497Z" fill="#977018"/>
</svg>
