<svg width="20" height="20" viewBox="0 0 20 20" fill="none" xmlns="http://www.w3.org/2000/svg">
<path d="M19.1133 19.3066C19.1133 19.3066 19.1133 18.8314 19.1133 17.8809C19.1133 16.9303 19.1133 15.8105 19.1133 14.5215C19.1133 13.2324 19.1133 11.9303 19.1133 10.6152C19.1133 9.30013 19.1133 8.278 19.1133 7.54883C19.1133 7.48372 19.084 7.41536 19.0254 7.34375C18.9668 7.27214 18.8984 7.21029 18.8203 7.1582L15.7539 4.93164V2.4707C15.7539 2.34049 15.7116 2.23958 15.627 2.16797C15.5423 2.09635 15.4479 2.06055 15.3438 2.06055H11.8281L10.0508 0.751953C9.98568 0.712891 9.91081 0.693359 9.82617 0.693359C9.74154 0.693359 9.66667 0.712891 9.60156 0.751953L7.82422 2.06055H4.30859C4.19141 2.06055 4.09375 2.10287 4.01562 2.1875C3.9375 2.27213 3.89844 2.36654 3.89844 2.4707V4.89258L0.792969 7.1582C0.701823 7.22331 0.630208 7.28841 0.578125 7.35352C0.526042 7.41862 0.5 7.48372 0.5 7.54883C0.5 8.29102 0.5 9.32617 0.5 10.6543C0.5 11.9694 0.5 13.2747 0.5 14.5703C0.5 15.8659 0.5 16.9954 0.5 17.959C0.5 18.9095 0.5 19.3848 0.5 19.3848C0.5 19.502 0.535807 19.5964 0.607422 19.668C0.679036 19.7396 0.766927 19.7819 0.871094 19.7949C0.871094 19.7949 0.874349 19.7949 0.880859 19.7949C0.88737 19.7949 0.890625 19.7949 0.890625 19.7949H18.7031C18.8333 19.7949 18.9342 19.7493 19.0059 19.6582C19.0775 19.5671 19.1133 19.4499 19.1133 19.3066ZM18.3516 8.27148V18.5645L11.6328 13.1934L18.3516 8.27148ZM18.0391 7.56836L15.7539 9.22852V5.86914L18.0391 7.56836ZM9.81641 1.5332L10.5195 2.06055H9.09375L9.81641 1.5332ZM14.9336 2.86133V9.83398L9.81641 13.5645L4.67969 9.83398V2.86133H14.9336ZM1.26172 8.27148L8 13.1934L1.26172 18.6035V8.27148ZM3.91797 9.26758L1.55469 7.54883L3.91797 5.83008V9.26758ZM2.00391 19.0137L8.64453 13.6621L9.5625 14.3457C9.65365 14.4108 9.73503 14.4434 9.80664 14.4434C9.87825 14.4434 9.95964 14.4108 10.0508 14.3457L10.9688 13.6621L17.6484 19.0137H2.00391ZM7.08203 4.85352H12.5703V5.63477H7.08203V4.85352ZM7.08203 7.33398H12.5703V8.11523H7.08203V7.33398ZM7.08203 9.81445H12.5703V10.5957H7.08203V9.81445Z" fill="#F8F8FF"/>
</svg>
