<svg width="15" height="21" viewBox="0 0 15 21" fill="none" xmlns="http://www.w3.org/2000/svg">
<path d="M7.55941 4.86523C6.85629 4.86523 6.25407 5.11589 5.75277 5.61719C5.25147 6.11849 5.00082 6.7207 5.00082 7.42383C5.00082 8.12695 5.25147 8.72917 5.75277 9.23047C6.25407 9.73177 6.85629 9.98242 7.55941 9.98242C8.26254 9.98242 8.86475 9.73177 9.36605 9.23047C9.86735 8.72917 10.118 8.12695 10.118 7.42383C10.118 6.7207 9.86735 6.11849 9.36605 5.61719C8.86475 5.11589 8.26254 4.86523 7.55941 4.86523ZM7.55941 9.25977C7.06462 9.25977 6.63819 9.08073 6.28011 8.72266C5.92204 8.36458 5.74301 7.93164 5.74301 7.42383C5.74301 6.91602 5.92204 6.48633 6.28011 6.13477C6.63819 5.7832 7.06462 5.60742 7.55941 5.60742C8.06722 5.60742 8.50017 5.7832 8.85824 6.13477C9.21631 6.48633 9.39535 6.91602 9.39535 7.42383C9.39535 7.93164 9.21631 8.36458 8.85824 8.72266C8.50017 9.08073 8.06722 9.25977 7.55941 9.25977ZM12.4618 2.54102C11.7977 1.87695 11.0392 1.36914 10.1864 1.01758C9.3335 0.666016 8.43832 0.490234 7.50082 0.490234C6.56332 0.490234 5.66814 0.666016 4.81527 1.01758C3.96241 1.36914 3.20394 1.87695 2.53988 2.54102C1.9279 3.15299 1.45264 3.87565 1.1141 4.70898C0.775557 5.55534 0.576989 6.43099 0.518396 7.33594C0.459802 8.24089 0.541182 9.12956 0.762536 10.002C0.996911 10.8874 1.37452 11.6816 1.89535 12.3848L7.50082 20.4902L13.1063 12.3848C13.6271 11.6947 14.0047 10.9069 14.2391 10.0215C14.4605 9.13607 14.5418 8.24089 14.4832 7.33594C14.4246 6.43099 14.2261 5.55534 13.8875 4.70898C13.549 3.87565 13.0737 3.15299 12.4618 2.54102ZM12.5203 11.9746L7.50082 19.2012L2.48129 11.9551C2.01254 11.3171 1.67399 10.6009 1.46566 9.80664C1.25733 9.01237 1.1792 8.20508 1.23129 7.38477C1.28337 6.56445 1.46566 5.77669 1.77816 5.02148C2.07764 4.26628 2.50733 3.60872 3.06722 3.04883C3.65316 2.46289 4.33024 2.01042 5.09847 1.69141C5.8667 1.3724 6.66748 1.21289 7.50082 1.21289C8.33415 1.21289 9.13493 1.3724 9.90316 1.69141C10.6714 2.01042 11.3485 2.46289 11.9344 3.04883C12.4943 3.60872 12.924 4.26628 13.2235 5.02148C13.536 5.77669 13.7183 6.56445 13.7703 7.38477C13.8224 8.20508 13.7443 9.01237 13.536 9.80664C13.3276 10.6139 12.9891 11.3366 12.5203 11.9746Z" fill="#F8F8FF"/>
</svg>
