<svg width="60" height="59" viewBox="0 0 60 59" fill="none" xmlns="http://www.w3.org/2000/svg">
<rect x="0.5" width="59" height="59" rx="29.5" fill="#25D366"/>
<g clip-path="url(#clip0_1_538)">
<path fill-rule="evenodd" clip-rule="evenodd" d="M30.3249 12.0001C20.9084 12.0001 13.275 19.6332 13.275 29.0497C13.275 32.2706 14.1689 35.283 15.7215 37.8529L12.6445 47.0001L22.084 43.9777C24.5265 45.3286 27.3355 46.0984 30.3249 46.0984C39.7408 46.0984 47.3742 38.4656 47.3742 29.0499C47.3744 19.6332 39.741 12.0001 30.3249 12.0001ZM30.3249 43.3831C27.4131 43.3831 24.7021 42.5097 22.4385 41.0125L16.93 42.7766L18.7203 37.4533C17.0044 35.0902 15.9905 32.1865 15.9905 29.0493C15.9905 21.1453 22.4208 14.7151 30.3249 14.7151C38.2285 14.7151 44.659 21.1453 44.659 29.0493C44.659 36.9529 38.2287 43.3831 30.3249 43.3831ZM26.3261 21.9974C26.0499 21.3317 25.8383 21.3092 25.4117 21.2889C25.2654 21.2819 25.1067 21.2752 24.9331 21.2752C24.3835 21.2752 23.8136 21.4371 23.4702 21.7884C23.0523 22.2159 22.0073 23.2173 22.0073 25.2734C22.0073 27.3298 23.505 29.3169 23.7136 29.5958C23.9229 29.8745 26.6346 34.156 30.8535 35.9041C34.1465 37.2681 35.1243 37.1466 35.8755 36.9823C36.9687 36.7436 38.3413 35.9386 38.6896 34.9631C39.0379 33.987 39.0379 33.1504 38.9335 32.9766C38.8289 32.8021 38.5503 32.698 38.1324 32.4884C37.7144 32.2795 35.6594 31.2685 35.2764 31.1293C34.8932 30.99 34.539 31.0325 34.2443 31.4399C33.8377 32.0028 33.4466 32.5812 33.1227 32.9242C32.8685 33.1934 32.4594 33.2309 32.1076 33.0813C31.645 32.8843 30.3429 32.4305 28.7463 31.0072C27.5041 29.8998 26.6652 28.5317 26.4213 28.1131C26.1775 27.6952 26.3999 27.4457 26.5878 27.2183C26.8021 26.9587 26.9998 26.7723 27.2087 26.5286C27.4177 26.2844 27.5345 26.1544 27.6738 25.8752C27.8131 25.5966 27.7193 25.3089 27.6148 25.0997C27.5101 24.8904 26.6733 22.8346 26.3261 21.9974Z" fill="white"/>
</g>
<defs>
<clipPath id="clip0_1_538">
<rect width="35" height="35" fill="white" transform="translate(12.5 12)"/>
</clipPath>
</defs>
</svg>
