<svg width="44" height="48" viewBox="0 0 44 48" fill="none" xmlns="http://www.w3.org/2000/svg">
<path d="M42.6387 30.6416C42.4108 30.4137 42.1178 30.2998 41.7598 30.2998C41.4017 30.2998 41.1087 30.4137 40.8809 30.6416L39.2695 32.2529L32.4336 25.6123C32.401 25.6123 32.3848 25.6042 32.3848 25.5879C32.3848 25.5716 32.3685 25.5635 32.3359 25.5635C32.3034 25.5309 32.2871 25.5146 32.2871 25.5146C32.2546 25.5146 32.2383 25.5065 32.2383 25.4902C32.2383 25.474 32.222 25.4658 32.1895 25.4658C32.1569 25.4333 32.1406 25.417 32.1406 25.417C32.1406 25.417 32.1243 25.417 32.0918 25.417C32.0918 25.417 32.0755 25.4007 32.043 25.3682C32.043 25.3682 32.0348 25.3682 32.0186 25.3682C32.0023 25.3682 31.9941 25.3682 31.9941 25.3682C31.9941 25.3682 31.986 25.3682 31.9697 25.3682C31.9535 25.3682 31.9453 25.3682 31.9453 25.3682C31.9453 25.3356 31.9372 25.3193 31.9209 25.3193C31.9046 25.3193 31.8965 25.3193 31.8965 25.3193C31.8639 25.3193 31.8477 25.3193 31.8477 25.3193C31.8477 25.3193 31.8314 25.3193 31.7988 25.3193C31.7988 25.3193 31.7826 25.3193 31.75 25.3193C31.75 25.3193 31.7419 25.3112 31.7256 25.2949C31.7093 25.2786 31.7012 25.2705 31.7012 25.2705C31.7012 25.2705 31.693 25.2705 31.6768 25.2705C31.6605 25.2705 31.6523 25.2705 31.6523 25.2705C31.6523 25.2705 31.6442 25.2705 31.6279 25.2705C31.6117 25.2705 31.5872 25.2705 31.5547 25.2705C31.5547 25.2705 31.5384 25.2705 31.5059 25.2705C31.5059 25.2705 31.4977 25.2705 31.4814 25.2705C31.4652 25.2705 31.457 25.2705 31.457 25.2705C31.457 25.2705 31.4489 25.2705 31.4326 25.2705C31.4163 25.2705 31.4082 25.2705 31.4082 25.2705C31.4082 25.2705 31.4001 25.2786 31.3838 25.2949C31.3675 25.3112 31.3594 25.3193 31.3594 25.3193C31.3268 25.3193 31.3105 25.3193 31.3105 25.3193C31.3105 25.3193 31.2943 25.3193 31.2617 25.3193L21.3984 27.7119C21.2682 27.7445 21.1462 27.7526 21.0322 27.7363C20.9183 27.7201 20.8288 27.6794 20.7637 27.6143C20.666 27.5492 20.6009 27.4678 20.5684 27.3701C20.5358 27.2725 20.5195 27.1423 20.5195 26.9795V22.7803H29.2598C29.6178 22.7803 29.9189 22.6582 30.1631 22.4141C30.4072 22.1699 30.5293 21.8688 30.5293 21.5107C30.5293 21.1852 30.4072 20.9004 30.1631 20.6562C29.9189 20.4121 29.6178 20.29 29.2598 20.29H20.5195V12.6729C20.7148 12.7054 20.9183 12.7298 21.1299 12.7461C21.3415 12.7624 21.5449 12.7705 21.7402 12.7705C23.4655 12.7705 24.9385 12.1602 26.1592 10.9395C27.3799 9.71875 27.9902 8.24577 27.9902 6.52051C27.9902 4.79525 27.3799 3.32227 26.1592 2.10156C24.9385 0.880859 23.4655 0.270508 21.7402 0.270508C20.015 0.270508 18.542 0.880859 17.3213 2.10156C16.1006 3.32227 15.4902 4.79525 15.4902 6.52051C15.4902 7.56218 15.7181 8.51432 16.1738 9.37695C16.6296 10.2396 17.248 10.9639 18.0293 11.5498V26.9795C18.0293 27.5003 18.127 27.9886 18.3223 28.4443C18.5176 28.9001 18.8105 29.2744 19.2012 29.5674C19.4616 29.7952 19.7627 29.9661 20.1045 30.0801C20.4463 30.194 20.7962 30.251 21.1543 30.251C21.2845 30.251 21.4229 30.2428 21.5693 30.2266C21.7158 30.2103 21.8542 30.1696 21.9844 30.1045L31.1641 27.9072L38.3906 34.9385C38.5208 35.0361 38.6592 35.1175 38.8057 35.1826C38.9521 35.2477 39.1068 35.2803 39.2695 35.2803C39.4323 35.2803 39.5869 35.2477 39.7334 35.1826C39.8799 35.1175 40.0182 35.0361 40.1484 34.9385L42.6387 32.3994C42.8991 32.1715 43.0293 31.8867 43.0293 31.5449C43.0293 31.2031 42.8991 30.902 42.6387 30.6416ZM21.7402 2.76074C22.7819 2.76074 23.6689 3.12695 24.4014 3.85938C25.1338 4.5918 25.5 5.47884 25.5 6.52051C25.5 7.56218 25.1338 8.44922 24.4014 9.18164C23.6689 9.91406 22.7819 10.2803 21.7402 10.2803C20.7311 10.2803 19.8604 9.91406 19.1279 9.18164C18.3955 8.44922 18.0293 7.56218 18.0293 6.52051C18.0293 5.47884 18.3955 4.5918 19.1279 3.85938C19.8604 3.12695 20.7311 2.76074 21.7402 2.76074ZM16.7598 47.7803C14.5137 47.7803 12.4141 47.3571 10.4609 46.5107C8.47526 45.6644 6.75 44.5007 5.28516 43.0195C3.82031 41.5384 2.64844 39.8213 1.76953 37.8682C0.923177 35.8825 0.5 33.7666 0.5 31.5205C0.5 29.5999 0.833659 27.7282 1.50098 25.9053C2.16829 24.0824 3.13672 22.4385 4.40625 20.9736C5.64323 19.5413 7.0918 18.3532 8.75195 17.4092C10.4121 16.4652 12.1862 15.8304 14.0742 15.5049C14.3997 15.4398 14.7008 15.513 14.9775 15.7246C15.2542 15.9362 15.4251 16.2048 15.4902 16.5303C15.5553 16.8558 15.4821 17.165 15.2705 17.458C15.0589 17.751 14.7904 17.9137 14.4648 17.9463C12.8047 18.2393 11.2747 18.7926 9.875 19.6064C8.47526 20.4202 7.2627 21.4294 6.2373 22.6338C5.21191 23.8382 4.42253 25.2054 3.86914 26.7354C3.2832 28.2327 2.99023 29.8278 2.99023 31.5205C2.99023 33.4085 3.36458 35.1989 4.11328 36.8916C4.82943 38.5518 5.80599 40.0003 7.04297 41.2373C8.27995 42.4743 9.72852 43.4671 11.3887 44.2158C13.0814 44.932 14.8717 45.29 16.7598 45.29C18.4525 45.29 20.0475 44.9971 21.5449 44.4111C23.0749 43.8577 24.4421 43.0684 25.6465 42.043C26.8509 41.0176 27.86 39.805 28.6738 38.4053C29.4876 37.0055 30.041 35.4756 30.334 33.8154C30.3665 33.4899 30.5293 33.2214 30.8223 33.0098C31.1152 32.7982 31.4245 32.7249 31.75 32.79C32.1081 32.8551 32.3848 33.026 32.5801 33.3027C32.7754 33.5794 32.8405 33.8968 32.7754 34.2549C32.4824 36.1104 31.8639 37.8682 30.9199 39.5283C29.9759 41.1885 28.7715 42.637 27.3066 43.874C25.8418 45.1436 24.1979 46.112 22.375 46.7793C20.5521 47.4466 18.6803 47.7803 16.7598 47.7803Z" fill="#977018"/>
</svg>
