<?xml version="1.0" standalone="no"?>
<!DOCTYPE svg PUBLIC "-//W3C//DTD SVG 20010904//EN"
 "http://www.w3.org/TR/2001/REC-SVG-20010904/DTD/svg10.dtd">
<svg version="1.0" xmlns="http://www.w3.org/2000/svg"
 width="1438.000000pt" height="1438.000000pt" viewBox="0 0 1438.000000 1438.000000"
 preserveAspectRatio="xMidYMid meet">

<g transform="translate(0.000000,1438.000000) scale(0.100000,-0.100000)"
fill="#000000" stroke="none">
<path d="M3081 9109 c-30 -12 -50 -38 -50 -64 0 -20 0 -20 12 0 7 11 25 32 41
47 15 15 27 28 25 27 -2 0 -15 -5 -28 -10z"/>
<path d="M4010 9110 c-8 -5 -10 -10 -5 -10 6 0 17 5 25 10 8 5 11 10 5 10 -5
0 -17 -5 -25 -10z"/>
<path d="M4335 9073 c4 -10 10 -26 12 -35 8 -28 23 -21 23 11 0 17 -6 31 -16
35 -24 9 -27 7 -19 -11z"/>
<path d="M4670 9041 c0 -25 6 -27 13 -6 4 8 2 17 -3 20 -6 4 -10 -3 -10 -14z"/>
<path d="M3025 9001 c-2 -4 -1 -17 2 -29 6 -25 44 -30 61 -9 7 9 1 16 -24 28
-19 9 -36 13 -39 10z"/>
<path d="M2710 8984 c0 -8 5 -12 10 -9 6 4 8 11 5 16 -9 14 -15 11 -15 -7z"/>
<path d="M4350 8991 c0 -5 -7 -17 -17 -26 -14 -14 -14 -18 -2 -26 26 -16 39
-10 39 20 0 17 -4 33 -10 36 -5 3 -10 2 -10 -4z"/>
<path d="M4671 8964 c0 -11 3 -14 6 -6 3 7 2 16 -1 19 -3 4 -6 -2 -5 -13z"/>
<path d="M4528 8943 c7 -3 16 -2 19 1 4 3 -2 6 -13 5 -11 0 -14 -3 -6 -6z"/>
<path d="M4992 8820 c0 -14 2 -19 5 -12 2 6 2 18 0 25 -3 6 -5 1 -5 -13z"/>
<path d="M2866 8816 c3 -9 11 -16 16 -16 13 0 5 23 -10 28 -7 2 -10 -2 -6 -12z"/>
<path d="M4505 8811 c-10 -17 9 -20 30 -5 18 14 18 14 -2 14 -12 0 -24 -4 -28
-9z"/>
<path d="M2866 8755 c-4 -10 1 -15 14 -15 13 0 18 5 14 15 -4 8 -10 15 -14 15
-4 0 -10 -7 -14 -15z"/>
<path d="M2391 8744 c0 -11 3 -14 6 -6 3 7 2 16 -1 19 -3 4 -6 -2 -5 -13z"/>
<path d="M4510 8750 c0 -5 7 -10 16 -10 8 0 12 5 9 10 -3 6 -10 10 -16 10 -5
0 -9 -4 -9 -10z"/>
<path d="M4992 8730 c0 -14 2 -19 5 -12 2 6 2 18 0 25 -3 6 -5 1 -5 -13z"/>
<path d="M2566 8611 c-4 -5 -2 -12 3 -15 5 -4 12 -2 15 3 4 5 2 12 -3 15 -5 4
-12 2 -15 -3z"/>
<path d="M4810 8595 c0 -17 2 -18 24 -9 18 7 12 24 -10 24 -8 0 -14 -7 -14
-15z"/>
<path d="M3711 8584 c0 -11 3 -14 6 -6 3 7 2 16 -1 19 -3 4 -6 -2 -5 -13z"/>
<path d="M2566 8544 c-4 -9 -4 -19 -1 -22 3 -3 11 0 17 6 9 9 9 15 1 23 -7 7
-12 5 -17 -7z"/>
<path d="M3712 8555 c-1 -6 -14 -18 -29 -28 -25 -16 -26 -18 -5 -14 21 5 22 2
22 -64 0 -52 -3 -69 -14 -69 -13 0 -26 -20 -26 -40 0 -4 9 -6 20 -3 14 4 20 0
20 -11 0 -9 -7 -16 -15 -16 -17 0 -18 -16 -17 -179 1 -57 -4 -113 -9 -124 -8
-13 -8 -17 -1 -13 14 8 13 -75 0 -91 -7 -9 -7 -18 2 -28 7 -8 10 -15 6 -15 -5
0 10 -29 30 -59 6 -8 37 32 59 75 l23 45 -23 -15 c-12 -8 -25 -12 -29 -9 -13
13 -6 101 9 113 21 17 19 29 -4 23 -18 -4 -19 5 -19 201 0 190 1 207 20 231
16 20 17 25 4 25 -10 0 -16 12 -19 38 -2 20 -4 32 -5 27z m-12 -380 c0 -47 -4
-85 -9 -85 -14 0 -17 20 -13 98 5 100 22 91 22 -13z"/>
<path d="M3821 8523 c-1 -24 1 -43 3 -43 8 0 12 48 5 66 -5 13 -8 7 -8 -23z"/>
<path d="M4810 8540 c0 -11 7 -20 15 -20 13 0 14 4 5 20 -6 11 -13 20 -15 20
-3 0 -5 -9 -5 -20z"/>
<path d="M3760 8510 c-13 -8 -12 -10 3 -10 9 0 17 5 17 10 0 12 -1 12 -20 0z"/>
<path d="M3650 8480 c0 -5 5 -10 11 -10 5 0 7 5 4 10 -3 6 -8 10 -11 10 -2 0
-4 -4 -4 -10z"/>
<path d="M5280 8465 c0 -8 5 -15 10 -15 6 0 10 7 10 15 0 8 -4 15 -10 15 -5 0
-10 -7 -10 -15z"/>
<path d="M3661 8444 c0 -11 3 -14 6 -6 3 7 2 16 -1 19 -3 4 -6 -2 -5 -13z"/>
<path d="M2310 8341 c0 -6 5 -13 10 -16 6 -3 10 1 10 9 0 9 -4 16 -10 16 -5 0
-10 -4 -10 -9z"/>
<path d="M5060 8324 c0 -8 5 -12 10 -9 6 3 10 10 10 16 0 5 -4 9 -10 9 -5 0
-10 -7 -10 -16z"/>
<path d="M3821 8294 c0 -11 3 -14 6 -6 3 7 2 16 -1 19 -3 4 -6 -2 -5 -13z"/>
<path d="M5461 8284 c0 -11 3 -14 6 -6 3 7 2 16 -1 19 -3 4 -6 -2 -5 -13z"/>
<path d="M2316 8275 c-3 -8 -1 -15 4 -15 13 0 22 18 11 24 -5 3 -11 -1 -15 -9z"/>
<path d="M5060 8276 c0 -8 5 -18 10 -21 6 -3 10 1 10 9 0 8 -4 18 -10 21 -5 3
-10 -1 -10 -9z"/>
<path d="M3828 8195 c-3 -14 -1 -28 3 -31 5 -3 9 9 9 25 0 38 -6 40 -12 6z"/>
<path d="M4539 8158 c-12 -22 -11 -22 7 -8 10 8 20 15 22 16 2 1 -1 5 -7 8 -5
4 -15 -4 -22 -16z"/>
<path d="M5500 8169 c0 -5 5 -7 10 -4 6 3 10 8 10 11 0 2 -4 4 -10 4 -5 0 -10
-5 -10 -11z"/>
<path d="M4613 8159 c-8 -8 -7 -16 5 -30 16 -18 17 -18 23 -2 12 34 -6 54 -28
32z"/>
<path d="M2810 8152 c0 -5 7 -13 16 -16 10 -4 14 -1 12 6 -5 15 -28 23 -28 10z"/>
<path d="M3770 8075 c0 -8 2 -15 4 -15 2 0 6 7 10 15 3 8 1 15 -4 15 -6 0 -10
-7 -10 -15z"/>
<path d="M5578 8075 c-7 -7 3 -55 11 -55 4 0 6 14 3 30 -4 32 -5 33 -14 25z"/>
<path d="M2145 8047 c-4 -10 -5 -21 -1 -24 10 -10 18 4 13 24 -4 17 -4 17 -12
0z"/>
<path d="M5230 8015 c-19 -23 -8 -26 20 -5 19 15 21 20 9 20 -9 0 -22 -7 -29
-15z"/>
<path d="M5463 7985 c0 -27 2 -38 4 -22 2 15 2 37 0 50 -2 12 -4 0 -4 -28z"/>
<path d="M2145 7967 c-4 -10 -5 -21 -1 -24 10 -10 18 4 13 24 -4 17 -4 17 -12
0z"/>
<path d="M5230 7956 c0 -9 5 -16 10 -16 6 0 10 4 10 9 0 6 -4 13 -10 16 -5 3
-10 -1 -10 -9z"/>
<path d="M5583 7915 c0 -22 2 -30 4 -17 2 12 2 30 0 40 -3 9 -5 -1 -4 -23z"/>
<path d="M5622 7930 c0 -14 2 -19 5 -12 2 6 2 18 0 25 -3 6 -5 1 -5 -13z"/>
<path d="M3860 7870 c-8 -5 -12 -11 -9 -14 2 -3 11 -1 19 4 8 5 12 11 9 14 -2
3 -11 1 -19 -4z"/>
<path d="M5620 7845 c-13 -16 -7 -45 10 -45 5 0 10 14 10 30 0 34 -3 36 -20
15z"/>
<path d="M3789 7814 c-7 -8 -20 -13 -29 -11 -20 5 -44 -11 -53 -36 -4 -9 -18
-22 -32 -27 -24 -9 -35 -30 -15 -30 6 0 10 -263 10 -760 0 -589 2 -763 12
-773 10 -11 17 -11 38 1 14 8 33 25 43 38 18 24 18 24 -8 14 -15 -6 -28 -10
-31 -10 -2 0 -4 337 -4 749 l0 748 35 46 c19 25 43 51 53 56 9 6 12 11 6 11
-6 0 -17 -7 -25 -16z"/>
<path d="M1833 7735 c0 -22 2 -30 4 -17 2 12 2 30 0 40 -3 9 -5 -1 -4 -23z"/>
<path d="M2037 7744 c-8 -8 1 -24 13 -24 4 0 10 7 14 15 5 15 -14 21 -27 9z"/>
<path d="M5330 7714 c0 -8 5 -12 10 -9 6 4 8 11 5 16 -9 14 -15 11 -15 -7z"/>
<path d="M5682 7700 c0 -19 2 -27 5 -17 2 9 2 25 0 35 -3 9 -5 1 -5 -18z"/>
<path d="M5582 7690 c0 -19 2 -27 5 -17 2 9 2 25 0 35 -3 9 -5 1 -5 -18z"/>
<path d="M5685 7581 c4 -12 1 -45 -6 -74 -9 -38 -9 -52 0 -55 6 -2 11 -13 11
-25 0 -15 3 -18 10 -11 16 16 8 176 -9 182 -9 3 -11 -2 -6 -17z"/>
<path d="M5620 7469 c0 -5 5 -7 10 -4 6 3 10 8 10 11 0 2 -4 4 -10 4 -5 0 -10
-5 -10 -11z"/>
<path d="M2020 7420 c0 -11 2 -20 4 -20 2 0 6 9 9 20 3 11 1 20 -4 20 -5 0 -9
-9 -9 -20z"/>
<path d="M2020 7336 c0 -22 3 -27 11 -19 8 8 8 16 0 30 -9 16 -10 14 -11 -11z"/>
<path d="M5411 7285 c0 -17 4 -39 9 -50 6 -17 9 -17 14 -5 9 21 2 58 -12 72
-9 9 -12 5 -11 -17z"/>
<path d="M5698 7295 c-3 -6 -9 -34 -13 -62 -4 -29 -11 -53 -17 -53 -5 0 -7 -4
-4 -9 4 -5 1 -11 -4 -13 -7 -2 -5 -11 4 -23 15 -20 15 -19 16 5 0 14 7 52 15
85 15 55 16 91 3 70z"/>
<path d="M2090 7121 c0 -11 5 -23 10 -26 6 -4 10 5 10 19 0 14 -4 26 -10 26
-5 0 -10 -9 -10 -19z"/>
<path d="M5661 7074 c0 -11 3 -14 6 -6 3 7 2 16 -1 19 -3 4 -6 -2 -5 -13z"/>
<path d="M5581 7054 c0 -11 3 -14 6 -6 3 7 2 16 -1 19 -3 4 -6 -2 -5 -13z"/>
<path d="M1790 7044 c0 -8 5 -12 10 -9 6 3 10 10 10 16 0 5 -4 9 -10 9 -5 0
-10 -7 -10 -16z"/>
<path d="M5025 7031 c-3 -6 -2 -11 4 -11 6 0 8 -6 5 -13 -7 -18 -70 -53 -112
-62 -18 -4 -32 -9 -29 -11 6 -6 107 16 134 29 17 7 21 17 19 39 -4 34 -11 44
-21 29z"/>
<path d="M2065 7009 c-4 -6 -5 -12 -2 -15 2 -3 7 2 10 11 7 17 1 20 -8 4z"/>
<path d="M3270 6998 c0 -11 -19 -24 -55 -37 -31 -12 -61 -21 -67 -21 -6 0 -9
-2 -6 -5 10 -10 108 17 130 35 19 15 21 21 11 31 -11 11 -13 10 -13 -3z"/>
<path d="M5461 6994 c0 -11 3 -14 6 -6 3 7 2 16 -1 19 -3 4 -6 -2 -5 -13z"/>
<path d="M2796 6958 c9 -53 12 -58 38 -58 16 0 34 13 55 39 17 21 31 42 31 45
0 3 -29 6 -65 6 l-64 0 5 -32z"/>
<path d="M2980 6980 c0 -5 -12 -21 -27 -36 l-28 -26 33 18 c18 11 40 27 49 37
15 16 14 17 -5 17 -12 0 -22 -4 -22 -10z"/>
<path d="M4549 6948 c8 -58 34 -61 84 -12 20 21 37 41 37 46 0 4 -28 8 -63 8
l-63 0 5 -42z"/>
<path d="M4715 6960 c-37 -38 -21 -38 25 0 22 19 29 30 19 30 -8 0 -28 -13
-44 -30z"/>
<path d="M2815 6880 c-4 -7 -11 -28 -15 -46 l-8 -34 59 0 c32 0 59 3 59 8 0
13 -45 61 -60 64 -8 2 -18 7 -21 12 -4 4 -10 3 -14 -4z"/>
<path d="M4555 6865 c-2 -5 -5 -22 -8 -37 -4 -28 -4 -28 54 -28 33 0 59 4 59
9 0 5 -13 22 -29 38 -28 28 -70 38 -76 18z"/>
<path d="M2940 6854 c14 -10 28 -22 31 -27 4 -5 15 -7 25 -5 16 3 15 5 -7 19
-13 9 -35 19 -49 23 l-25 8 25 -18z"/>
<path d="M4705 6840 c40 -31 50 -35 59 -22 4 7 -74 52 -91 52 -3 0 11 -13 32
-30z"/>
<path d="M5620 6851 c-12 -24 -13 -31 -1 -31 5 0 11 11 13 25 6 30 2 32 -12 6z"/>
<path d="M5221 6844 c0 -11 3 -14 6 -6 3 7 2 16 -1 19 -3 4 -6 -2 -5 -13z"/>
<path d="M2195 6760 c3 -5 8 -10 11 -10 2 0 4 5 4 10 0 6 -5 10 -11 10 -5 0
-7 -4 -4 -10z"/>
<path d="M5497 6764 c-4 -4 -7 -14 -7 -23 0 -11 3 -12 11 -4 6 6 10 16 7 23
-2 6 -7 8 -11 4z"/>
<path d="M1890 6735 c0 -16 16 -20 24 -6 3 5 -1 11 -9 15 -9 3 -15 0 -15 -9z"/>
<path d="M5250 6711 c0 -6 5 -13 10 -16 6 -3 10 1 10 9 0 9 -4 16 -10 16 -5 0
-10 -4 -10 -9z"/>
<path d="M5490 6665 c0 -15 4 -24 10 -20 6 3 10 12 10 20 0 8 -4 17 -10 20 -6
4 -10 -5 -10 -20z"/>
<path d="M1895 6640 c3 -5 8 -10 11 -10 2 0 4 5 4 10 0 6 -5 10 -11 10 -5 0
-7 -4 -4 -10z"/>
<path d="M5221 6574 c0 -11 3 -14 6 -6 3 7 2 16 -1 19 -3 4 -6 -2 -5 -13z"/>
<path d="M5071 6434 c0 -11 3 -14 6 -6 3 7 2 16 -1 19 -3 4 -6 -2 -5 -13z"/>
<path d="M5316 6404 c-11 -28 -6 -39 9 -20 8 11 15 23 15 28 0 14 -18 9 -24
-8z"/>
<path d="M2064 6384 c3 -8 6 -18 6 -20 0 -3 5 -2 10 1 15 9 12 22 -6 29 -12 5
-15 2 -10 -10z"/>
<path d="M2372 6375 c0 -16 2 -22 5 -12 2 9 2 23 0 30 -3 6 -5 -1 -5 -18z"/>
<path d="M2065 6330 c-4 -6 -3 -16 3 -22 13 -13 23 4 13 21 -7 10 -10 10 -16
1z"/>
<path d="M4869 6328 c0 -7 -2 -21 -4 -30 -2 -10 1 -20 6 -24 5 -3 9 11 9 30 0
33 -9 52 -11 24z"/>
<path d="M5310 6320 c0 -13 5 -20 13 -17 6 2 12 10 12 17 0 7 -6 15 -12 18 -8
2 -13 -5 -13 -18z"/>
<path d="M4822 6260 c0 -14 2 -19 5 -12 2 6 2 18 0 25 -3 6 -5 1 -5 -13z"/>
<path d="M3797 6253 c-4 -3 -7 -14 -7 -24 0 -10 -11 -29 -25 -43 -14 -14 -25
-30 -25 -36 0 -17 -31 -60 -40 -55 -4 3 -10 -5 -14 -18 -5 -17 -8 -19 -15 -8
-17 27 -22 -9 -5 -44 13 -28 19 -33 30 -24 8 6 14 16 14 21 0 5 20 51 44 103
56 118 67 153 43 128z"/>
<path d="M5055 6100 c-3 -5 -2 -17 3 -26 8 -14 10 -12 14 10 5 26 -5 35 -17
16z"/>
<path d="M2320 6079 c0 -18 2 -19 15 -9 15 12 12 30 -6 30 -5 0 -9 -10 -9 -21z"/>
<path d="M4573 6089 c-7 -9 -9 -20 -3 -29 12 -19 22 -7 18 21 -2 19 -5 20 -15
8z"/>
<path d="M2800 6056 c0 -8 5 -18 10 -21 6 -3 10 1 10 9 0 8 -4 18 -10 21 -5 3
-10 -1 -10 -9z"/>
<path d="M5057 6028 c-7 -27 -3 -32 16 -21 13 7 13 11 2 26 -12 16 -13 16 -18
-5z"/>
<path d="M2320 6015 c0 -8 7 -15 16 -15 14 0 14 3 4 15 -7 8 -14 15 -16 15 -2
0 -4 -7 -4 -15z"/>
<path d="M4422 6023 c-7 -2 -17 -14 -23 -25 -10 -19 -10 -19 15 -3 14 10 26
21 26 26 0 5 -1 9 -2 8 -2 0 -9 -3 -16 -6z"/>
<path d="M4582 5950 c0 -14 2 -19 5 -12 2 6 2 18 0 25 -3 6 -5 1 -5 -13z"/>
<path d="M4273 5913 c-18 -7 -16 -23 2 -23 8 0 15 7 15 15 0 8 -1 15 -2 14 -2
0 -9 -3 -15 -6z"/>
<path d="M3100 5885 c0 -15 4 -24 10 -20 6 3 10 12 10 20 0 8 -4 17 -10 20 -6
4 -10 -5 -10 -20z"/>
<path d="M2581 5856 c2 -2 14 -9 27 -15 18 -10 22 -9 22 4 0 10 -9 15 -27 15
-14 0 -24 -2 -22 -4z"/>
<path d="M4770 5838 c0 -21 0 -21 23 -2 12 10 24 20 26 21 2 2 -8 3 -22 3 -21
0 -27 -5 -27 -22z"/>
<path d="M3956 5833 c-11 -11 -6 -23 9 -23 8 0 15 4 15 9 0 13 -16 22 -24 14z"/>
<path d="M4277 5823 c-4 -3 -7 -11 -7 -17 0 -6 5 -5 12 2 6 6 9 14 7 17 -3 3
-9 2 -12 -2z"/>
<path d="M3105 5810 c3 -5 8 -10 11 -10 2 0 4 5 4 10 0 6 -5 10 -11 10 -5 0
-7 -4 -4 -10z"/>
<path d="M3420 5800 c0 -23 13 -26 29 -6 9 11 8 15 -5 20 -23 9 -24 8 -24 -14z"/>
<path d="M4520 5811 c0 -5 -7 -17 -16 -25 -14 -15 -12 -16 18 -16 28 1 30 2
15 11 -14 8 -16 14 -6 25 8 10 8 14 0 14 -6 0 -11 -4 -11 -9z"/>
<path d="M4770 5796 c0 -19 13 -27 28 -17 8 4 5 11 -8 19 -16 10 -20 10 -20
-2z"/>
<path d="M2596 5785 c-19 -14 -19 -15 7 -15 17 0 27 5 27 15 0 19 -9 19 -34 0z"/>
<path d="M3420 5742 c0 -5 7 -15 15 -22 8 -7 15 -8 15 -2 0 5 -7 15 -15 22 -8
7 -15 8 -15 2z"/>
<path d="M3957 5743 c-4 -3 -7 -11 -7 -17 0 -6 5 -5 12 2 6 6 9 14 7 17 -3 3
-9 2 -12 -2z"/>
<path d="M4415 5687 c10 -8 15 -19 11 -25 -9 -15 -5 -15 35 3 27 11 30 14 12
15 -12 0 -25 5 -28 10 -3 6 -16 10 -28 10 -20 0 -20 -1 -2 -13z"/>
<path d="M2940 5676 c0 -2 6 -9 14 -15 10 -9 15 -8 20 4 4 10 -1 15 -14 15
-11 0 -20 -2 -20 -4z"/>
<path d="M4421 5618 c-1 -30 0 -31 23 -22 20 8 21 24 2 24 -8 0 -17 6 -19 13
-3 6 -6 0 -6 -15z"/>
<path d="M2956 5621 c-4 -7 -5 -15 -2 -18 9 -9 19 4 14 18 -4 11 -6 11 -12 0z"/>
<path d="M3626 5604 c-8 -22 -7 -34 3 -34 5 0 8 8 7 18 -1 13 10 18 49 23 l50
6 -51 1 c-39 2 -53 -2 -58 -14z"/>
<path d="M3863 5613 c9 -2 25 -2 35 0 9 3 1 5 -18 5 -19 0 -27 -2 -17 -5z"/>
<path d="M3928 5613 c7 -3 16 -2 19 1 4 3 -2 6 -13 5 -11 0 -14 -3 -6 -6z"/>
<path d="M3746 5577 c3 -10 9 -15 12 -12 3 3 0 11 -7 18 -10 9 -11 8 -5 -6z"/>
<path d="M3830 5580 c-9 -6 -10 -10 -3 -10 6 0 15 5 18 10 8 12 4 12 -15 0z"/>
<path d="M3337 5574 c-8 -8 1 -24 14 -24 5 0 9 7 9 15 0 15 -12 20 -23 9z"/>
<path d="M4041 5556 c-10 -12 -8 -13 8 -9 12 3 21 9 21 14 0 14 -16 11 -29 -5z"/>
<path d="M3330 5500 c-12 -8 -11 -10 8 -10 12 0 22 5 22 10 0 13 -11 13 -30 0z"/>
<path d="M4058 5493 c7 -3 16 -2 19 1 4 3 -2 6 -13 5 -11 0 -14 -3 -6 -6z"/>
<path d="M3947 5391 c6 -25 19 -35 27 -22 3 4 -3 16 -14 26 -18 16 -18 16 -13
-4z"/>
<path d="M3427 5393 c-4 -3 -7 -13 -7 -22 1 -13 3 -13 11 2 11 19 8 33 -4 20z"/>
<path d="M3420 5306 c0 -9 5 -16 10 -16 6 0 10 4 10 9 0 6 -4 13 -10 16 -5 3
-10 -1 -10 -9z"/>
<path d="M3940 5290 c-12 -8 -9 -10 13 -10 16 0 26 4 22 10 -8 12 -16 12 -35
0z"/>
</g>
</svg>
